%TF.GenerationSoftware,KiCad,Pcbnew,9.0.0*%
%TF.CreationDate,2025-07-02T14:57:16+08:00*%
%TF.ProjectId,ESPNOW,4553504e-4f57-42e6-9b69-6361645f7063,rev?*%
%TF.SameCoordinates,Original*%
%TF.FileFunction,Drillmap*%
%TF.FilePolarity,Positive*%
%FSLAX45Y45*%
G04 Gerber Fmt 4.5, Leading zero omitted, Abs format (unit mm)*
G04 Created by KiCad (PCBNEW 9.0.0) date 2025-07-02 14:57:16*
%MOMM*%
%LPD*%
G01*
G04 APERTURE LIST*
%ADD10C,0.050000*%
%ADD11C,0.200000*%
%ADD12C,0.100000*%
G04 APERTURE END LIST*
D10*
X19950000Y-6250000D02*
G75*
G02*
X20450000Y-6750000I0J-500000D01*
G01*
X19950000Y-14450000D02*
X16950000Y-14450000D01*
X16950000Y-14450000D02*
G75*
G02*
X16450000Y-13950000I0J500000D01*
G01*
X20450000Y-6750000D02*
X20450000Y-13950000D01*
X16450000Y-13950000D02*
X16450000Y-6750000D01*
X20450000Y-13950000D02*
G75*
G02*
X19950000Y-14450000I-500000J0D01*
G01*
X16950000Y-6250000D02*
X19950000Y-6250000D01*
X16450000Y-6750000D02*
G75*
G02*
X16950000Y-6250000I500000J0D01*
G01*
D11*
D12*
X16893500Y-6772500D02*
X16958500Y-6837500D01*
X16958500Y-6772500D02*
X16893500Y-6837500D01*
X17471500Y-6772500D02*
X17536500Y-6837500D01*
X17536500Y-6772500D02*
X17471500Y-6837500D01*
D11*
X16708277Y-14763984D02*
X16708277Y-14563984D01*
X16708277Y-14563984D02*
X16755896Y-14563984D01*
X16755896Y-14563984D02*
X16784467Y-14573508D01*
X16784467Y-14573508D02*
X16803515Y-14592555D01*
X16803515Y-14592555D02*
X16813039Y-14611603D01*
X16813039Y-14611603D02*
X16822563Y-14649698D01*
X16822563Y-14649698D02*
X16822563Y-14678269D01*
X16822563Y-14678269D02*
X16813039Y-14716365D01*
X16813039Y-14716365D02*
X16803515Y-14735412D01*
X16803515Y-14735412D02*
X16784467Y-14754460D01*
X16784467Y-14754460D02*
X16755896Y-14763984D01*
X16755896Y-14763984D02*
X16708277Y-14763984D01*
X16908277Y-14763984D02*
X16908277Y-14630650D01*
X16908277Y-14668746D02*
X16917801Y-14649698D01*
X16917801Y-14649698D02*
X16927324Y-14640174D01*
X16927324Y-14640174D02*
X16946372Y-14630650D01*
X16946372Y-14630650D02*
X16965420Y-14630650D01*
X17032086Y-14763984D02*
X17032086Y-14630650D01*
X17032086Y-14563984D02*
X17022563Y-14573508D01*
X17022563Y-14573508D02*
X17032086Y-14583031D01*
X17032086Y-14583031D02*
X17041610Y-14573508D01*
X17041610Y-14573508D02*
X17032086Y-14563984D01*
X17032086Y-14563984D02*
X17032086Y-14583031D01*
X17155896Y-14763984D02*
X17136848Y-14754460D01*
X17136848Y-14754460D02*
X17127324Y-14735412D01*
X17127324Y-14735412D02*
X17127324Y-14563984D01*
X17260658Y-14763984D02*
X17241610Y-14754460D01*
X17241610Y-14754460D02*
X17232086Y-14735412D01*
X17232086Y-14735412D02*
X17232086Y-14563984D01*
X17489229Y-14763984D02*
X17489229Y-14563984D01*
X17489229Y-14563984D02*
X17555896Y-14706841D01*
X17555896Y-14706841D02*
X17622563Y-14563984D01*
X17622563Y-14563984D02*
X17622563Y-14763984D01*
X17803515Y-14763984D02*
X17803515Y-14659222D01*
X17803515Y-14659222D02*
X17793991Y-14640174D01*
X17793991Y-14640174D02*
X17774944Y-14630650D01*
X17774944Y-14630650D02*
X17736848Y-14630650D01*
X17736848Y-14630650D02*
X17717801Y-14640174D01*
X17803515Y-14754460D02*
X17784467Y-14763984D01*
X17784467Y-14763984D02*
X17736848Y-14763984D01*
X17736848Y-14763984D02*
X17717801Y-14754460D01*
X17717801Y-14754460D02*
X17708277Y-14735412D01*
X17708277Y-14735412D02*
X17708277Y-14716365D01*
X17708277Y-14716365D02*
X17717801Y-14697317D01*
X17717801Y-14697317D02*
X17736848Y-14687793D01*
X17736848Y-14687793D02*
X17784467Y-14687793D01*
X17784467Y-14687793D02*
X17803515Y-14678269D01*
X17898753Y-14630650D02*
X17898753Y-14830650D01*
X17898753Y-14640174D02*
X17917801Y-14630650D01*
X17917801Y-14630650D02*
X17955896Y-14630650D01*
X17955896Y-14630650D02*
X17974944Y-14640174D01*
X17974944Y-14640174D02*
X17984467Y-14649698D01*
X17984467Y-14649698D02*
X17993991Y-14668746D01*
X17993991Y-14668746D02*
X17993991Y-14725888D01*
X17993991Y-14725888D02*
X17984467Y-14744936D01*
X17984467Y-14744936D02*
X17974944Y-14754460D01*
X17974944Y-14754460D02*
X17955896Y-14763984D01*
X17955896Y-14763984D02*
X17917801Y-14763984D01*
X17917801Y-14763984D02*
X17898753Y-14754460D01*
X18079705Y-14744936D02*
X18089229Y-14754460D01*
X18089229Y-14754460D02*
X18079705Y-14763984D01*
X18079705Y-14763984D02*
X18070182Y-14754460D01*
X18070182Y-14754460D02*
X18079705Y-14744936D01*
X18079705Y-14744936D02*
X18079705Y-14763984D01*
X18079705Y-14640174D02*
X18089229Y-14649698D01*
X18089229Y-14649698D02*
X18079705Y-14659222D01*
X18079705Y-14659222D02*
X18070182Y-14649698D01*
X18070182Y-14649698D02*
X18079705Y-14640174D01*
X18079705Y-14640174D02*
X18079705Y-14659222D01*
D12*
X16382500Y-15060000D02*
X16447500Y-15125000D01*
X16447500Y-15060000D02*
X16382500Y-15125000D01*
D11*
X16746372Y-14983984D02*
X16765420Y-14983984D01*
X16765420Y-14983984D02*
X16784467Y-14993508D01*
X16784467Y-14993508D02*
X16793991Y-15003031D01*
X16793991Y-15003031D02*
X16803515Y-15022079D01*
X16803515Y-15022079D02*
X16813039Y-15060174D01*
X16813039Y-15060174D02*
X16813039Y-15107793D01*
X16813039Y-15107793D02*
X16803515Y-15145888D01*
X16803515Y-15145888D02*
X16793991Y-15164936D01*
X16793991Y-15164936D02*
X16784467Y-15174460D01*
X16784467Y-15174460D02*
X16765420Y-15183984D01*
X16765420Y-15183984D02*
X16746372Y-15183984D01*
X16746372Y-15183984D02*
X16727324Y-15174460D01*
X16727324Y-15174460D02*
X16717801Y-15164936D01*
X16717801Y-15164936D02*
X16708277Y-15145888D01*
X16708277Y-15145888D02*
X16698753Y-15107793D01*
X16698753Y-15107793D02*
X16698753Y-15060174D01*
X16698753Y-15060174D02*
X16708277Y-15022079D01*
X16708277Y-15022079D02*
X16717801Y-15003031D01*
X16717801Y-15003031D02*
X16727324Y-14993508D01*
X16727324Y-14993508D02*
X16746372Y-14983984D01*
X16898753Y-15164936D02*
X16908277Y-15174460D01*
X16908277Y-15174460D02*
X16898753Y-15183984D01*
X16898753Y-15183984D02*
X16889229Y-15174460D01*
X16889229Y-15174460D02*
X16898753Y-15164936D01*
X16898753Y-15164936D02*
X16898753Y-15183984D01*
X17079705Y-14983984D02*
X17041610Y-14983984D01*
X17041610Y-14983984D02*
X17022563Y-14993508D01*
X17022563Y-14993508D02*
X17013039Y-15003031D01*
X17013039Y-15003031D02*
X16993991Y-15031603D01*
X16993991Y-15031603D02*
X16984467Y-15069698D01*
X16984467Y-15069698D02*
X16984467Y-15145888D01*
X16984467Y-15145888D02*
X16993991Y-15164936D01*
X16993991Y-15164936D02*
X17003515Y-15174460D01*
X17003515Y-15174460D02*
X17022563Y-15183984D01*
X17022563Y-15183984D02*
X17060658Y-15183984D01*
X17060658Y-15183984D02*
X17079705Y-15174460D01*
X17079705Y-15174460D02*
X17089229Y-15164936D01*
X17089229Y-15164936D02*
X17098753Y-15145888D01*
X17098753Y-15145888D02*
X17098753Y-15098269D01*
X17098753Y-15098269D02*
X17089229Y-15079222D01*
X17089229Y-15079222D02*
X17079705Y-15069698D01*
X17079705Y-15069698D02*
X17060658Y-15060174D01*
X17060658Y-15060174D02*
X17022563Y-15060174D01*
X17022563Y-15060174D02*
X17003515Y-15069698D01*
X17003515Y-15069698D02*
X16993991Y-15079222D01*
X16993991Y-15079222D02*
X16984467Y-15098269D01*
X17279705Y-14983984D02*
X17184467Y-14983984D01*
X17184467Y-14983984D02*
X17174944Y-15079222D01*
X17174944Y-15079222D02*
X17184467Y-15069698D01*
X17184467Y-15069698D02*
X17203515Y-15060174D01*
X17203515Y-15060174D02*
X17251134Y-15060174D01*
X17251134Y-15060174D02*
X17270182Y-15069698D01*
X17270182Y-15069698D02*
X17279705Y-15079222D01*
X17279705Y-15079222D02*
X17289229Y-15098269D01*
X17289229Y-15098269D02*
X17289229Y-15145888D01*
X17289229Y-15145888D02*
X17279705Y-15164936D01*
X17279705Y-15164936D02*
X17270182Y-15174460D01*
X17270182Y-15174460D02*
X17251134Y-15183984D01*
X17251134Y-15183984D02*
X17203515Y-15183984D01*
X17203515Y-15183984D02*
X17184467Y-15174460D01*
X17184467Y-15174460D02*
X17174944Y-15164936D01*
X17413039Y-14983984D02*
X17432086Y-14983984D01*
X17432086Y-14983984D02*
X17451134Y-14993508D01*
X17451134Y-14993508D02*
X17460658Y-15003031D01*
X17460658Y-15003031D02*
X17470182Y-15022079D01*
X17470182Y-15022079D02*
X17479705Y-15060174D01*
X17479705Y-15060174D02*
X17479705Y-15107793D01*
X17479705Y-15107793D02*
X17470182Y-15145888D01*
X17470182Y-15145888D02*
X17460658Y-15164936D01*
X17460658Y-15164936D02*
X17451134Y-15174460D01*
X17451134Y-15174460D02*
X17432086Y-15183984D01*
X17432086Y-15183984D02*
X17413039Y-15183984D01*
X17413039Y-15183984D02*
X17393991Y-15174460D01*
X17393991Y-15174460D02*
X17384467Y-15164936D01*
X17384467Y-15164936D02*
X17374944Y-15145888D01*
X17374944Y-15145888D02*
X17365420Y-15107793D01*
X17365420Y-15107793D02*
X17365420Y-15060174D01*
X17365420Y-15060174D02*
X17374944Y-15022079D01*
X17374944Y-15022079D02*
X17384467Y-15003031D01*
X17384467Y-15003031D02*
X17393991Y-14993508D01*
X17393991Y-14993508D02*
X17413039Y-14983984D01*
X17565420Y-15183984D02*
X17565420Y-15050650D01*
X17565420Y-15069698D02*
X17574944Y-15060174D01*
X17574944Y-15060174D02*
X17593991Y-15050650D01*
X17593991Y-15050650D02*
X17622563Y-15050650D01*
X17622563Y-15050650D02*
X17641610Y-15060174D01*
X17641610Y-15060174D02*
X17651134Y-15079222D01*
X17651134Y-15079222D02*
X17651134Y-15183984D01*
X17651134Y-15079222D02*
X17660658Y-15060174D01*
X17660658Y-15060174D02*
X17679705Y-15050650D01*
X17679705Y-15050650D02*
X17708277Y-15050650D01*
X17708277Y-15050650D02*
X17727325Y-15060174D01*
X17727325Y-15060174D02*
X17736848Y-15079222D01*
X17736848Y-15079222D02*
X17736848Y-15183984D01*
X17832086Y-15183984D02*
X17832086Y-15050650D01*
X17832086Y-15069698D02*
X17841610Y-15060174D01*
X17841610Y-15060174D02*
X17860658Y-15050650D01*
X17860658Y-15050650D02*
X17889229Y-15050650D01*
X17889229Y-15050650D02*
X17908277Y-15060174D01*
X17908277Y-15060174D02*
X17917801Y-15079222D01*
X17917801Y-15079222D02*
X17917801Y-15183984D01*
X17917801Y-15079222D02*
X17927325Y-15060174D01*
X17927325Y-15060174D02*
X17946372Y-15050650D01*
X17946372Y-15050650D02*
X17974944Y-15050650D01*
X17974944Y-15050650D02*
X17993991Y-15060174D01*
X17993991Y-15060174D02*
X18003515Y-15079222D01*
X18003515Y-15079222D02*
X18003515Y-15183984D01*
X18393991Y-14974460D02*
X18222563Y-15231603D01*
X18651134Y-14983984D02*
X18670182Y-14983984D01*
X18670182Y-14983984D02*
X18689229Y-14993508D01*
X18689229Y-14993508D02*
X18698753Y-15003031D01*
X18698753Y-15003031D02*
X18708277Y-15022079D01*
X18708277Y-15022079D02*
X18717801Y-15060174D01*
X18717801Y-15060174D02*
X18717801Y-15107793D01*
X18717801Y-15107793D02*
X18708277Y-15145888D01*
X18708277Y-15145888D02*
X18698753Y-15164936D01*
X18698753Y-15164936D02*
X18689229Y-15174460D01*
X18689229Y-15174460D02*
X18670182Y-15183984D01*
X18670182Y-15183984D02*
X18651134Y-15183984D01*
X18651134Y-15183984D02*
X18632087Y-15174460D01*
X18632087Y-15174460D02*
X18622563Y-15164936D01*
X18622563Y-15164936D02*
X18613039Y-15145888D01*
X18613039Y-15145888D02*
X18603515Y-15107793D01*
X18603515Y-15107793D02*
X18603515Y-15060174D01*
X18603515Y-15060174D02*
X18613039Y-15022079D01*
X18613039Y-15022079D02*
X18622563Y-15003031D01*
X18622563Y-15003031D02*
X18632087Y-14993508D01*
X18632087Y-14993508D02*
X18651134Y-14983984D01*
X18803515Y-15164936D02*
X18813039Y-15174460D01*
X18813039Y-15174460D02*
X18803515Y-15183984D01*
X18803515Y-15183984D02*
X18793991Y-15174460D01*
X18793991Y-15174460D02*
X18803515Y-15164936D01*
X18803515Y-15164936D02*
X18803515Y-15183984D01*
X18936848Y-14983984D02*
X18955896Y-14983984D01*
X18955896Y-14983984D02*
X18974944Y-14993508D01*
X18974944Y-14993508D02*
X18984468Y-15003031D01*
X18984468Y-15003031D02*
X18993991Y-15022079D01*
X18993991Y-15022079D02*
X19003515Y-15060174D01*
X19003515Y-15060174D02*
X19003515Y-15107793D01*
X19003515Y-15107793D02*
X18993991Y-15145888D01*
X18993991Y-15145888D02*
X18984468Y-15164936D01*
X18984468Y-15164936D02*
X18974944Y-15174460D01*
X18974944Y-15174460D02*
X18955896Y-15183984D01*
X18955896Y-15183984D02*
X18936848Y-15183984D01*
X18936848Y-15183984D02*
X18917801Y-15174460D01*
X18917801Y-15174460D02*
X18908277Y-15164936D01*
X18908277Y-15164936D02*
X18898753Y-15145888D01*
X18898753Y-15145888D02*
X18889229Y-15107793D01*
X18889229Y-15107793D02*
X18889229Y-15060174D01*
X18889229Y-15060174D02*
X18898753Y-15022079D01*
X18898753Y-15022079D02*
X18908277Y-15003031D01*
X18908277Y-15003031D02*
X18917801Y-14993508D01*
X18917801Y-14993508D02*
X18936848Y-14983984D01*
X19079706Y-15003031D02*
X19089229Y-14993508D01*
X19089229Y-14993508D02*
X19108277Y-14983984D01*
X19108277Y-14983984D02*
X19155896Y-14983984D01*
X19155896Y-14983984D02*
X19174944Y-14993508D01*
X19174944Y-14993508D02*
X19184468Y-15003031D01*
X19184468Y-15003031D02*
X19193991Y-15022079D01*
X19193991Y-15022079D02*
X19193991Y-15041127D01*
X19193991Y-15041127D02*
X19184468Y-15069698D01*
X19184468Y-15069698D02*
X19070182Y-15183984D01*
X19070182Y-15183984D02*
X19193991Y-15183984D01*
X19374944Y-14983984D02*
X19279706Y-14983984D01*
X19279706Y-14983984D02*
X19270182Y-15079222D01*
X19270182Y-15079222D02*
X19279706Y-15069698D01*
X19279706Y-15069698D02*
X19298753Y-15060174D01*
X19298753Y-15060174D02*
X19346372Y-15060174D01*
X19346372Y-15060174D02*
X19365420Y-15069698D01*
X19365420Y-15069698D02*
X19374944Y-15079222D01*
X19374944Y-15079222D02*
X19384468Y-15098269D01*
X19384468Y-15098269D02*
X19384468Y-15145888D01*
X19384468Y-15145888D02*
X19374944Y-15164936D01*
X19374944Y-15164936D02*
X19365420Y-15174460D01*
X19365420Y-15174460D02*
X19346372Y-15183984D01*
X19346372Y-15183984D02*
X19298753Y-15183984D01*
X19298753Y-15183984D02*
X19279706Y-15174460D01*
X19279706Y-15174460D02*
X19270182Y-15164936D01*
X19555896Y-14983984D02*
X19517801Y-14983984D01*
X19517801Y-14983984D02*
X19498753Y-14993508D01*
X19498753Y-14993508D02*
X19489229Y-15003031D01*
X19489229Y-15003031D02*
X19470182Y-15031603D01*
X19470182Y-15031603D02*
X19460658Y-15069698D01*
X19460658Y-15069698D02*
X19460658Y-15145888D01*
X19460658Y-15145888D02*
X19470182Y-15164936D01*
X19470182Y-15164936D02*
X19479706Y-15174460D01*
X19479706Y-15174460D02*
X19498753Y-15183984D01*
X19498753Y-15183984D02*
X19536849Y-15183984D01*
X19536849Y-15183984D02*
X19555896Y-15174460D01*
X19555896Y-15174460D02*
X19565420Y-15164936D01*
X19565420Y-15164936D02*
X19574944Y-15145888D01*
X19574944Y-15145888D02*
X19574944Y-15098269D01*
X19574944Y-15098269D02*
X19565420Y-15079222D01*
X19565420Y-15079222D02*
X19555896Y-15069698D01*
X19555896Y-15069698D02*
X19536849Y-15060174D01*
X19536849Y-15060174D02*
X19498753Y-15060174D01*
X19498753Y-15060174D02*
X19479706Y-15069698D01*
X19479706Y-15069698D02*
X19470182Y-15079222D01*
X19470182Y-15079222D02*
X19460658Y-15098269D01*
X19651134Y-14983984D02*
X19651134Y-15022079D01*
X19727325Y-14983984D02*
X19727325Y-15022079D01*
X20022563Y-15260174D02*
X20013039Y-15250650D01*
X20013039Y-15250650D02*
X19993991Y-15222079D01*
X19993991Y-15222079D02*
X19984468Y-15203031D01*
X19984468Y-15203031D02*
X19974944Y-15174460D01*
X19974944Y-15174460D02*
X19965420Y-15126841D01*
X19965420Y-15126841D02*
X19965420Y-15088746D01*
X19965420Y-15088746D02*
X19974944Y-15041127D01*
X19974944Y-15041127D02*
X19984468Y-15012555D01*
X19984468Y-15012555D02*
X19993991Y-14993508D01*
X19993991Y-14993508D02*
X20013039Y-14964936D01*
X20013039Y-14964936D02*
X20022563Y-14955412D01*
X20089230Y-15003031D02*
X20098753Y-14993508D01*
X20098753Y-14993508D02*
X20117801Y-14983984D01*
X20117801Y-14983984D02*
X20165420Y-14983984D01*
X20165420Y-14983984D02*
X20184468Y-14993508D01*
X20184468Y-14993508D02*
X20193991Y-15003031D01*
X20193991Y-15003031D02*
X20203515Y-15022079D01*
X20203515Y-15022079D02*
X20203515Y-15041127D01*
X20203515Y-15041127D02*
X20193991Y-15069698D01*
X20193991Y-15069698D02*
X20079706Y-15183984D01*
X20079706Y-15183984D02*
X20203515Y-15183984D01*
X20441611Y-15183984D02*
X20441611Y-14983984D01*
X20527325Y-15183984D02*
X20527325Y-15079222D01*
X20527325Y-15079222D02*
X20517801Y-15060174D01*
X20517801Y-15060174D02*
X20498753Y-15050650D01*
X20498753Y-15050650D02*
X20470182Y-15050650D01*
X20470182Y-15050650D02*
X20451134Y-15060174D01*
X20451134Y-15060174D02*
X20441611Y-15069698D01*
X20651134Y-15183984D02*
X20632087Y-15174460D01*
X20632087Y-15174460D02*
X20622563Y-15164936D01*
X20622563Y-15164936D02*
X20613039Y-15145888D01*
X20613039Y-15145888D02*
X20613039Y-15088746D01*
X20613039Y-15088746D02*
X20622563Y-15069698D01*
X20622563Y-15069698D02*
X20632087Y-15060174D01*
X20632087Y-15060174D02*
X20651134Y-15050650D01*
X20651134Y-15050650D02*
X20679706Y-15050650D01*
X20679706Y-15050650D02*
X20698753Y-15060174D01*
X20698753Y-15060174D02*
X20708277Y-15069698D01*
X20708277Y-15069698D02*
X20717801Y-15088746D01*
X20717801Y-15088746D02*
X20717801Y-15145888D01*
X20717801Y-15145888D02*
X20708277Y-15164936D01*
X20708277Y-15164936D02*
X20698753Y-15174460D01*
X20698753Y-15174460D02*
X20679706Y-15183984D01*
X20679706Y-15183984D02*
X20651134Y-15183984D01*
X20832087Y-15183984D02*
X20813039Y-15174460D01*
X20813039Y-15174460D02*
X20803515Y-15155412D01*
X20803515Y-15155412D02*
X20803515Y-14983984D01*
X20984468Y-15174460D02*
X20965420Y-15183984D01*
X20965420Y-15183984D02*
X20927325Y-15183984D01*
X20927325Y-15183984D02*
X20908277Y-15174460D01*
X20908277Y-15174460D02*
X20898753Y-15155412D01*
X20898753Y-15155412D02*
X20898753Y-15079222D01*
X20898753Y-15079222D02*
X20908277Y-15060174D01*
X20908277Y-15060174D02*
X20927325Y-15050650D01*
X20927325Y-15050650D02*
X20965420Y-15050650D01*
X20965420Y-15050650D02*
X20984468Y-15060174D01*
X20984468Y-15060174D02*
X20993992Y-15079222D01*
X20993992Y-15079222D02*
X20993992Y-15098269D01*
X20993992Y-15098269D02*
X20898753Y-15117317D01*
X21070182Y-15174460D02*
X21089230Y-15183984D01*
X21089230Y-15183984D02*
X21127325Y-15183984D01*
X21127325Y-15183984D02*
X21146373Y-15174460D01*
X21146373Y-15174460D02*
X21155896Y-15155412D01*
X21155896Y-15155412D02*
X21155896Y-15145888D01*
X21155896Y-15145888D02*
X21146373Y-15126841D01*
X21146373Y-15126841D02*
X21127325Y-15117317D01*
X21127325Y-15117317D02*
X21098753Y-15117317D01*
X21098753Y-15117317D02*
X21079706Y-15107793D01*
X21079706Y-15107793D02*
X21070182Y-15088746D01*
X21070182Y-15088746D02*
X21070182Y-15079222D01*
X21070182Y-15079222D02*
X21079706Y-15060174D01*
X21079706Y-15060174D02*
X21098753Y-15050650D01*
X21098753Y-15050650D02*
X21127325Y-15050650D01*
X21127325Y-15050650D02*
X21146373Y-15060174D01*
X21222563Y-15260174D02*
X21232087Y-15250650D01*
X21232087Y-15250650D02*
X21251134Y-15222079D01*
X21251134Y-15222079D02*
X21260658Y-15203031D01*
X21260658Y-15203031D02*
X21270182Y-15174460D01*
X21270182Y-15174460D02*
X21279706Y-15126841D01*
X21279706Y-15126841D02*
X21279706Y-15088746D01*
X21279706Y-15088746D02*
X21270182Y-15041127D01*
X21270182Y-15041127D02*
X21260658Y-15012555D01*
X21260658Y-15012555D02*
X21251134Y-14993508D01*
X21251134Y-14993508D02*
X21232087Y-14964936D01*
X21232087Y-14964936D02*
X21222563Y-14955412D01*
X21584468Y-15260174D02*
X21574944Y-15250650D01*
X21574944Y-15250650D02*
X21555896Y-15222079D01*
X21555896Y-15222079D02*
X21546373Y-15203031D01*
X21546373Y-15203031D02*
X21536849Y-15174460D01*
X21536849Y-15174460D02*
X21527325Y-15126841D01*
X21527325Y-15126841D02*
X21527325Y-15088746D01*
X21527325Y-15088746D02*
X21536849Y-15041127D01*
X21536849Y-15041127D02*
X21546373Y-15012555D01*
X21546373Y-15012555D02*
X21555896Y-14993508D01*
X21555896Y-14993508D02*
X21574944Y-14964936D01*
X21574944Y-14964936D02*
X21584468Y-14955412D01*
X21660658Y-15050650D02*
X21660658Y-15183984D01*
X21660658Y-15069698D02*
X21670182Y-15060174D01*
X21670182Y-15060174D02*
X21689230Y-15050650D01*
X21689230Y-15050650D02*
X21717801Y-15050650D01*
X21717801Y-15050650D02*
X21736849Y-15060174D01*
X21736849Y-15060174D02*
X21746373Y-15079222D01*
X21746373Y-15079222D02*
X21746373Y-15183984D01*
X21870182Y-15183984D02*
X21851134Y-15174460D01*
X21851134Y-15174460D02*
X21841611Y-15164936D01*
X21841611Y-15164936D02*
X21832087Y-15145888D01*
X21832087Y-15145888D02*
X21832087Y-15088746D01*
X21832087Y-15088746D02*
X21841611Y-15069698D01*
X21841611Y-15069698D02*
X21851134Y-15060174D01*
X21851134Y-15060174D02*
X21870182Y-15050650D01*
X21870182Y-15050650D02*
X21898754Y-15050650D01*
X21898754Y-15050650D02*
X21917801Y-15060174D01*
X21917801Y-15060174D02*
X21927325Y-15069698D01*
X21927325Y-15069698D02*
X21936849Y-15088746D01*
X21936849Y-15088746D02*
X21936849Y-15145888D01*
X21936849Y-15145888D02*
X21927325Y-15164936D01*
X21927325Y-15164936D02*
X21917801Y-15174460D01*
X21917801Y-15174460D02*
X21898754Y-15183984D01*
X21898754Y-15183984D02*
X21870182Y-15183984D01*
X21993992Y-15050650D02*
X22070182Y-15050650D01*
X22022563Y-14983984D02*
X22022563Y-15155412D01*
X22022563Y-15155412D02*
X22032087Y-15174460D01*
X22032087Y-15174460D02*
X22051134Y-15183984D01*
X22051134Y-15183984D02*
X22070182Y-15183984D01*
X22289230Y-15050650D02*
X22289230Y-15250650D01*
X22289230Y-15060174D02*
X22308277Y-15050650D01*
X22308277Y-15050650D02*
X22346373Y-15050650D01*
X22346373Y-15050650D02*
X22365420Y-15060174D01*
X22365420Y-15060174D02*
X22374944Y-15069698D01*
X22374944Y-15069698D02*
X22384468Y-15088746D01*
X22384468Y-15088746D02*
X22384468Y-15145888D01*
X22384468Y-15145888D02*
X22374944Y-15164936D01*
X22374944Y-15164936D02*
X22365420Y-15174460D01*
X22365420Y-15174460D02*
X22346373Y-15183984D01*
X22346373Y-15183984D02*
X22308277Y-15183984D01*
X22308277Y-15183984D02*
X22289230Y-15174460D01*
X22498753Y-15183984D02*
X22479706Y-15174460D01*
X22479706Y-15174460D02*
X22470182Y-15155412D01*
X22470182Y-15155412D02*
X22470182Y-14983984D01*
X22660658Y-15183984D02*
X22660658Y-15079222D01*
X22660658Y-15079222D02*
X22651134Y-15060174D01*
X22651134Y-15060174D02*
X22632087Y-15050650D01*
X22632087Y-15050650D02*
X22593992Y-15050650D01*
X22593992Y-15050650D02*
X22574944Y-15060174D01*
X22660658Y-15174460D02*
X22641611Y-15183984D01*
X22641611Y-15183984D02*
X22593992Y-15183984D01*
X22593992Y-15183984D02*
X22574944Y-15174460D01*
X22574944Y-15174460D02*
X22565420Y-15155412D01*
X22565420Y-15155412D02*
X22565420Y-15136365D01*
X22565420Y-15136365D02*
X22574944Y-15117317D01*
X22574944Y-15117317D02*
X22593992Y-15107793D01*
X22593992Y-15107793D02*
X22641611Y-15107793D01*
X22641611Y-15107793D02*
X22660658Y-15098269D01*
X22727325Y-15050650D02*
X22803515Y-15050650D01*
X22755896Y-14983984D02*
X22755896Y-15155412D01*
X22755896Y-15155412D02*
X22765420Y-15174460D01*
X22765420Y-15174460D02*
X22784468Y-15183984D01*
X22784468Y-15183984D02*
X22803515Y-15183984D01*
X22946373Y-15174460D02*
X22927325Y-15183984D01*
X22927325Y-15183984D02*
X22889230Y-15183984D01*
X22889230Y-15183984D02*
X22870182Y-15174460D01*
X22870182Y-15174460D02*
X22860658Y-15155412D01*
X22860658Y-15155412D02*
X22860658Y-15079222D01*
X22860658Y-15079222D02*
X22870182Y-15060174D01*
X22870182Y-15060174D02*
X22889230Y-15050650D01*
X22889230Y-15050650D02*
X22927325Y-15050650D01*
X22927325Y-15050650D02*
X22946373Y-15060174D01*
X22946373Y-15060174D02*
X22955896Y-15079222D01*
X22955896Y-15079222D02*
X22955896Y-15098269D01*
X22955896Y-15098269D02*
X22860658Y-15117317D01*
X23127325Y-15183984D02*
X23127325Y-14983984D01*
X23127325Y-15174460D02*
X23108277Y-15183984D01*
X23108277Y-15183984D02*
X23070182Y-15183984D01*
X23070182Y-15183984D02*
X23051134Y-15174460D01*
X23051134Y-15174460D02*
X23041611Y-15164936D01*
X23041611Y-15164936D02*
X23032087Y-15145888D01*
X23032087Y-15145888D02*
X23032087Y-15088746D01*
X23032087Y-15088746D02*
X23041611Y-15069698D01*
X23041611Y-15069698D02*
X23051134Y-15060174D01*
X23051134Y-15060174D02*
X23070182Y-15050650D01*
X23070182Y-15050650D02*
X23108277Y-15050650D01*
X23108277Y-15050650D02*
X23127325Y-15060174D01*
X23203515Y-15260174D02*
X23213039Y-15250650D01*
X23213039Y-15250650D02*
X23232087Y-15222079D01*
X23232087Y-15222079D02*
X23241611Y-15203031D01*
X23241611Y-15203031D02*
X23251134Y-15174460D01*
X23251134Y-15174460D02*
X23260658Y-15126841D01*
X23260658Y-15126841D02*
X23260658Y-15088746D01*
X23260658Y-15088746D02*
X23251134Y-15041127D01*
X23251134Y-15041127D02*
X23241611Y-15012555D01*
X23241611Y-15012555D02*
X23232087Y-14993508D01*
X23232087Y-14993508D02*
X23213039Y-14964936D01*
X23213039Y-14964936D02*
X23203515Y-14955412D01*
M02*
