M48
; DRILL file {KiCad 9.0.0} date 2025-07-02T14:57:16+0800
; FORMAT={-:-/ absolute / metric / decimal}
; #@! TF.CreationDate,2025-07-02T14:57:16+08:00
; #@! TF.GenerationSoftware,Kicad,Pcbnew,9.0.0
; #@! TF.FileFunction,Plated,1,4,PTH
FMAT,2
METRIC
; #@! TA.AperFunction,Plated,PTH,ViaDrill
T1C0.300
; #@! TA.AperFunction,Plated,PTH,ComponentDrill
T2C0.600
; #@! TA.AperFunction,Plated,PTH,ComponentDrill
T3C1.000
; #@! TA.AperFunction,Plated,PTH,ComponentDrill
T4C1.100
; #@! TA.AperFunction,Plated,PTH,ComponentDrill
T5C1.300
; #@! TA.AperFunction,Plated,PTH,ComponentDrill
T6C3.200
%
G90
G05
T1
X165.5Y-67.0
X165.5Y-68.0
X165.5Y-69.0
X165.5Y-70.0
X165.5Y-71.0
X165.5Y-72.0
X165.5Y-73.0
X165.5Y-74.0
X165.5Y-75.0
X165.5Y-76.0
X165.5Y-77.0
X165.5Y-78.0
X165.5Y-79.0
X165.5Y-80.0
X165.5Y-81.0
X165.5Y-82.0
X165.5Y-83.0
X165.5Y-84.0
X165.5Y-85.0
X165.5Y-86.0
X165.5Y-87.0
X165.5Y-88.0
X165.5Y-89.0
X165.5Y-90.0
X165.5Y-91.0
X165.5Y-92.0
X165.5Y-94.0
X165.5Y-95.0
X165.5Y-96.0
X165.5Y-97.0
X165.5Y-99.0
X165.5Y-100.0
X165.5Y-101.0
X165.5Y-102.0
X165.5Y-104.0
X165.5Y-105.0
X165.5Y-106.0
X165.5Y-107.0
X165.5Y-109.0
X165.5Y-110.0
X165.5Y-111.0
X165.5Y-115.0
X165.5Y-116.0
X165.5Y-120.0
X165.5Y-121.0
X165.5Y-122.0
X165.5Y-127.0
X165.5Y-128.0
X165.5Y-133.0
X165.5Y-134.0
X165.5Y-135.0
X165.5Y-136.0
X165.5Y-137.0
X165.5Y-138.0
X165.5Y-139.0
X165.5Y-140.0
X168.5Y-143.5
X169.3Y-79.5
X169.5Y-64.105
X169.5Y-143.5
X170.26Y-68.045
X170.5Y-64.105
X170.5Y-143.5
X171.5Y-64.105
X171.5Y-143.5
X172.5Y-64.105
X172.5Y-143.5
X173.4Y-77.43
X173.46Y-71.23
X173.5Y-64.105
X173.5Y-143.5
X174.03Y-68.045
X174.5Y-64.105
X174.5Y-143.5
X174.9Y-75.41
X175.0Y-79.5
X175.35Y-69.17
X175.35Y-70.175
X175.5Y-64.105
X175.5Y-143.5
X176.16Y-80.21
X176.21Y-73.55
X176.5Y-143.5
X176.8Y-66.2
X177.5Y-64.0
X177.8Y-66.2
X177.8Y-67.2
X177.98Y-75.24
X178.5Y-64.0
X178.63Y-75.89
X178.8Y-66.2
X179.28Y-76.54
X179.5Y-64.0
X179.93Y-77.19
X180.5Y-64.0
X180.5Y-77.76
X180.58Y-74.07
X180.58Y-75.34
X180.58Y-76.61
X180.9Y-65.31
X180.94Y-80.75
X181.31Y-107.1
X181.5Y-82.0
X182.1Y-115.65
X182.31Y-107.1
X182.475Y-92.15
X182.61Y-108.7
X182.61Y-111.0
X182.9Y-115.65
X183.075Y-92.15
X183.2Y-87.8
X183.4Y-78.01
X183.41Y-108.7
X183.41Y-111.0
X183.5Y-64.0
X183.6Y-66.2
X183.6Y-67.2
X184.1Y-116.85
X184.1Y-117.7
X184.21Y-108.7
X184.21Y-111.0
X184.5Y-64.0
X184.5Y-143.5
X184.8Y-66.2
X184.8Y-67.2
X184.81Y-111.6
X184.85Y-119.25
X185.05Y-84.325
X185.05Y-114.9
X185.05Y-115.65
X185.5Y-64.0
X185.5Y-143.5
X185.55Y-113.6
X185.69Y-119.8
X185.85Y-92.975
X185.87Y-87.388
X186.45Y-113.6
X186.49Y-111.6
X186.498Y-95.0
X186.5Y-64.0
X186.5Y-95.65
X186.5Y-143.5
X186.59Y-119.8
X186.67Y-87.397
X186.78Y-90.557
X186.78Y-92.027
X187.0Y-70.4
X187.0Y-71.8
X187.0Y-73.2
X187.0Y-114.75
X187.0Y-116.75
X187.49Y-119.8
X187.5Y-64.0
X187.5Y-143.5
X187.6Y-113.7
X187.675Y-90.557
X187.675Y-92.027
X187.75Y-95.0
X187.75Y-95.65
X188.0Y-69.4
X188.0Y-74.2
X188.05Y-80.55
X188.3Y-112.7
X188.42Y-79.84
X188.447Y-86.725
X188.447Y-87.525
X188.46Y-119.76
X188.5Y-64.0
X188.5Y-95.0
X188.5Y-95.65
X188.57Y-90.557
X188.57Y-92.027
X188.89Y-79.19
X189.14Y-119.14
X189.4Y-69.4
X189.4Y-74.2
X189.465Y-90.557
X189.465Y-92.027
X189.5Y-64.0
X189.65Y-115.5
X189.66Y-118.41
X189.7Y-116.56
X189.7Y-117.4
X189.748Y-95.0
X189.748Y-95.65
X190.05Y-111.8
X190.2Y-114.6
X190.25Y-113.25
X190.25Y-113.9
X190.4Y-93.025
X190.5Y-64.0
X190.8Y-69.4
X190.8Y-74.2
X190.915Y-78.605
X191.16Y-103.7
X191.2Y-83.6
X191.2Y-84.4
X191.39Y-87.65
X191.39Y-88.53
X191.5Y-64.0
X191.72Y-78.72
X191.8Y-70.4
X191.8Y-71.8
X191.8Y-73.2
X191.83Y-110.3
X192.0Y-83.6
X192.0Y-84.4
X192.01Y-103.7
X192.23Y-112.15
X192.5Y-64.0
X192.63Y-110.3
X192.76Y-103.7
X192.89Y-88.25
X192.9Y-80.55
X193.5Y-64.0
X193.82Y-80.55
X194.2Y-88.4
X194.4Y-83.6
X194.4Y-84.4
X194.4Y-85.2
X194.5Y-64.0
X194.62Y-80.55
X195.44Y-123.24
X195.5Y-64.0
X195.75Y-122.6
X196.15Y-122.0
X196.5Y-64.0
X196.5Y-143.5
X196.525Y-121.4
X196.89Y-69.48
X196.95Y-70.56
X197.39Y-71.2
X197.5Y-64.0
X197.5Y-143.5
X197.74Y-67.71
X198.5Y-64.0
X198.5Y-143.5
X199.5Y-143.5
X200.5Y-143.5
X200.8Y-67.275
X200.808Y-72.74
X201.365Y-74.397
X201.365Y-76.998
X201.365Y-79.597
X201.5Y-64.0
X202.34Y-73.347
X202.34Y-75.947
X202.34Y-78.547
X202.34Y-81.147
X203.5Y-85.0
X203.5Y-86.0
X203.5Y-87.0
X203.5Y-88.0
X203.5Y-89.0
X203.5Y-90.0
X203.5Y-91.0
X203.5Y-94.0
X203.5Y-95.0
X203.5Y-96.0
X203.5Y-99.0
X203.5Y-100.0
X203.5Y-101.0
X203.5Y-104.0
X203.5Y-105.0
X203.5Y-110.0
X203.5Y-111.0
X203.5Y-114.0
X203.5Y-115.0
X203.5Y-120.0
X203.5Y-121.0
X203.5Y-122.0
X203.5Y-123.0
X203.5Y-124.0
X203.5Y-125.0
X203.5Y-126.0
X203.5Y-127.0
X203.5Y-128.0
X203.5Y-131.0
X203.5Y-132.0
X203.5Y-133.0
X203.5Y-134.0
X203.5Y-135.0
X203.5Y-136.0
X203.5Y-137.0
X203.5Y-138.0
X203.5Y-139.0
X203.5Y-140.0
T3
X177.33Y-124.5
X177.33Y-127.04
X177.33Y-129.58
X179.87Y-124.5
X179.87Y-127.04
X179.87Y-129.58
X182.41Y-124.5
X182.41Y-127.04
X182.41Y-129.58
X184.95Y-124.5
X184.95Y-127.04
X184.95Y-129.58
X187.49Y-124.5
X187.49Y-127.04
X187.49Y-129.58
X190.03Y-124.5
X190.03Y-127.04
X190.03Y-129.58
X192.57Y-124.5
X192.57Y-127.04
X192.57Y-129.58
X195.11Y-124.5
X195.11Y-127.04
X195.11Y-129.58
X197.65Y-124.5
X197.65Y-127.04
X197.65Y-129.58
T4
X168.91Y-72.24
X168.91Y-76.74
X175.41Y-72.24
X175.41Y-76.74
T5
X170.95Y-93.04
X170.95Y-98.04
X170.95Y-103.04
X170.95Y-108.04
X170.95Y-113.04
X170.95Y-118.04
X170.95Y-125.04
X170.95Y-130.04
X176.37Y-138.07
X181.37Y-138.07
X188.14Y-138.07
X193.14Y-138.07
X197.95Y-92.64
X197.95Y-97.64
X197.95Y-102.64
X197.95Y-107.64
X197.95Y-112.64
X197.95Y-117.64
T6
X169.5Y-86.0
X169.5Y-139.5
X199.5Y-86.0
X199.5Y-139.5
T2
X167.83Y-64.77G85X167.83Y-63.97
G05
X167.83Y-69.12G85X167.83Y-68.02
G05
X176.47Y-64.77G85X176.47Y-63.97
G05
X176.47Y-69.12G85X176.47Y-68.02
G05
M30
