G04 #@! TF.GenerationSoftware,KiCad,Pcbnew,9.0.0*
G04 #@! TF.CreationDate,2025-07-02T14:57:14+08:00*
G04 #@! TF.ProjectId,ESPNOW,4553504e-4f57-42e6-9b69-6361645f7063,rev?*
G04 #@! TF.SameCoordinates,Original*
G04 #@! TF.FileFunction,Legend,Top*
G04 #@! TF.FilePolarity,Positive*
%FSLAX46Y46*%
G04 Gerber Fmt 4.6, Leading zero omitted, Abs format (unit mm)*
G04 Created by KiCad (PCBNEW 9.0.0) date 2025-07-02 14:57:14*
%MOMM*%
%LPD*%
G01*
G04 APERTURE LIST*
G04 Aperture macros list*
%AMRoundRect*
0 Rectangle with rounded corners*
0 $1 Rounding radius*
0 $2 $3 $4 $5 $6 $7 $8 $9 X,Y pos of 4 corners*
0 Add a 4 corners polygon primitive as box body*
4,1,4,$2,$3,$4,$5,$6,$7,$8,$9,$2,$3,0*
0 Add four circle primitives for the rounded corners*
1,1,$1+$1,$2,$3*
1,1,$1+$1,$4,$5*
1,1,$1+$1,$6,$7*
1,1,$1+$1,$8,$9*
0 Add four rect primitives between the rounded corners*
20,1,$1+$1,$2,$3,$4,$5,0*
20,1,$1+$1,$4,$5,$6,$7,0*
20,1,$1+$1,$6,$7,$8,$9,0*
20,1,$1+$1,$8,$9,$2,$3,0*%
G04 Aperture macros list end*
%ADD10C,0.100000*%
%ADD11C,0.200000*%
%ADD12C,0.300000*%
%ADD13C,0.150000*%
%ADD14C,0.125000*%
%ADD15C,0.120000*%
%ADD16RoundRect,0.200000X-0.275000X0.200000X-0.275000X-0.200000X0.275000X-0.200000X0.275000X0.200000X0*%
%ADD17RoundRect,0.250000X-1.000000X0.700000X-1.000000X-0.700000X1.000000X-0.700000X1.000000X0.700000X0*%
%ADD18R,1.700000X1.700000*%
%ADD19O,1.700000X1.700000*%
%ADD20C,2.000000*%
%ADD21RoundRect,0.250001X1.149999X-1.149999X1.149999X1.149999X-1.149999X1.149999X-1.149999X-1.149999X0*%
%ADD22C,2.800000*%
%ADD23RoundRect,0.250001X-1.149999X1.149999X-1.149999X-1.149999X1.149999X-1.149999X1.149999X1.149999X0*%
%ADD24C,0.650000*%
%ADD25R,0.600000X1.240000*%
%ADD26R,0.300000X1.240000*%
%ADD27O,1.000000X2.100000*%
%ADD28O,1.000000X1.800000*%
%ADD29R,0.450000X1.050000*%
%ADD30R,0.895000X1.470000*%
%ADD31RoundRect,0.200000X0.200000X0.275000X-0.200000X0.275000X-0.200000X-0.275000X0.200000X-0.275000X0*%
%ADD32C,5.600000*%
%ADD33RoundRect,0.375000X-0.625000X-0.375000X0.625000X-0.375000X0.625000X0.375000X-0.625000X0.375000X0*%
%ADD34RoundRect,0.500000X-0.500000X-1.400000X0.500000X-1.400000X0.500000X1.400000X-0.500000X1.400000X0*%
%ADD35RoundRect,0.135000X-0.185000X0.135000X-0.185000X-0.135000X0.185000X-0.135000X0.185000X0.135000X0*%
%ADD36R,0.700000X0.700000*%
%ADD37RoundRect,0.250000X-0.250000X-0.475000X0.250000X-0.475000X0.250000X0.475000X-0.250000X0.475000X0*%
%ADD38RoundRect,0.250000X-0.312500X-0.625000X0.312500X-0.625000X0.312500X0.625000X-0.312500X0.625000X0*%
%ADD39RoundRect,0.250000X0.312500X0.625000X-0.312500X0.625000X-0.312500X-0.625000X0.312500X-0.625000X0*%
%ADD40RoundRect,0.250001X-1.149999X-1.149999X1.149999X-1.149999X1.149999X1.149999X-1.149999X1.149999X0*%
%ADD41RoundRect,0.087500X-0.250000X-0.087500X0.250000X-0.087500X0.250000X0.087500X-0.250000X0.087500X0*%
%ADD42RoundRect,0.140000X0.140000X0.170000X-0.140000X0.170000X-0.140000X-0.170000X0.140000X-0.170000X0*%
%ADD43RoundRect,0.225000X-0.225000X-0.250000X0.225000X-0.250000X0.225000X0.250000X-0.225000X0.250000X0*%
%ADD44RoundRect,0.200000X0.275000X-0.200000X0.275000X0.200000X-0.275000X0.200000X-0.275000X-0.200000X0*%
%ADD45RoundRect,0.200000X-0.200000X-0.275000X0.200000X-0.275000X0.200000X0.275000X-0.200000X0.275000X0*%
%ADD46RoundRect,0.250000X0.250000X0.475000X-0.250000X0.475000X-0.250000X-0.475000X0.250000X-0.475000X0*%
%ADD47RoundRect,0.243750X0.456250X-0.243750X0.456250X0.243750X-0.456250X0.243750X-0.456250X-0.243750X0*%
%ADD48RoundRect,0.140000X-0.140000X-0.170000X0.140000X-0.170000X0.140000X0.170000X-0.140000X0.170000X0*%
%ADD49R,1.500000X0.900000*%
%ADD50R,0.900000X1.500000*%
%ADD51R,0.900000X0.900000*%
%ADD52RoundRect,0.135000X-0.135000X-0.185000X0.135000X-0.185000X0.135000X0.185000X-0.135000X0.185000X0*%
%ADD53RoundRect,0.140000X0.170000X-0.140000X0.170000X0.140000X-0.170000X0.140000X-0.170000X-0.140000X0*%
%ADD54RoundRect,0.135000X0.185000X-0.135000X0.185000X0.135000X-0.185000X0.135000X-0.185000X-0.135000X0*%
%ADD55RoundRect,0.225000X-0.250000X0.225000X-0.250000X-0.225000X0.250000X-0.225000X0.250000X0.225000X0*%
%ADD56RoundRect,0.225000X0.225000X0.250000X-0.225000X0.250000X-0.225000X-0.250000X0.225000X-0.250000X0*%
G04 APERTURE END LIST*
D10*
X191550000Y-122827500D02*
X193550000Y-122827500D01*
X183930000Y-122827500D02*
X185930000Y-122827500D01*
X194090000Y-122827500D02*
X198630000Y-122827500D01*
X176310000Y-122827500D02*
X178310000Y-122827500D01*
X172360000Y-122434061D02*
X171860000Y-122434061D01*
X172110000Y-122209061D01*
X172360000Y-122434061D01*
G36*
X172360000Y-122434061D02*
G01*
X171860000Y-122434061D01*
X172110000Y-122209061D01*
X172360000Y-122434061D01*
G37*
X199920000Y-129580000D02*
X175060000Y-129580000D01*
X199920000Y-127040000D02*
X175060000Y-127040000D01*
X186470000Y-122827500D02*
X188470000Y-122827500D01*
D11*
X176500000Y-98500000D02*
X192500000Y-98500000D01*
D10*
X181390000Y-122827500D02*
X183390000Y-122827500D01*
X178850000Y-122827500D02*
X180850000Y-122827500D01*
D11*
X176710000Y-120500000D02*
X192065000Y-120500000D01*
X178400000Y-84500000D02*
X192530000Y-84500000D01*
D10*
X189010000Y-122827500D02*
X191010000Y-122827500D01*
D11*
X179500000Y-107350000D02*
X192510000Y-107350000D01*
D10*
X189446895Y-116743734D02*
X188646895Y-116743734D01*
X188646895Y-116743734D02*
X188646895Y-116438972D01*
X188646895Y-116438972D02*
X188684990Y-116362782D01*
X188684990Y-116362782D02*
X188723085Y-116324687D01*
X188723085Y-116324687D02*
X188799276Y-116286591D01*
X188799276Y-116286591D02*
X188913561Y-116286591D01*
X188913561Y-116286591D02*
X188989752Y-116324687D01*
X188989752Y-116324687D02*
X189027847Y-116362782D01*
X189027847Y-116362782D02*
X189065942Y-116438972D01*
X189065942Y-116438972D02*
X189065942Y-116743734D01*
X188684990Y-115524687D02*
X188646895Y-115600877D01*
X188646895Y-115600877D02*
X188646895Y-115715163D01*
X188646895Y-115715163D02*
X188684990Y-115829449D01*
X188684990Y-115829449D02*
X188761180Y-115905639D01*
X188761180Y-115905639D02*
X188837371Y-115943734D01*
X188837371Y-115943734D02*
X188989752Y-115981830D01*
X188989752Y-115981830D02*
X189104038Y-115981830D01*
X189104038Y-115981830D02*
X189256419Y-115943734D01*
X189256419Y-115943734D02*
X189332609Y-115905639D01*
X189332609Y-115905639D02*
X189408800Y-115829449D01*
X189408800Y-115829449D02*
X189446895Y-115715163D01*
X189446895Y-115715163D02*
X189446895Y-115638972D01*
X189446895Y-115638972D02*
X189408800Y-115524687D01*
X189408800Y-115524687D02*
X189370704Y-115486591D01*
X189370704Y-115486591D02*
X189104038Y-115486591D01*
X189104038Y-115486591D02*
X189104038Y-115638972D01*
D12*
X177470870Y-93900000D02*
X175970870Y-93900000D01*
X175970870Y-93900000D02*
X177042299Y-93400000D01*
X177042299Y-93400000D02*
X175970870Y-92900000D01*
X175970870Y-92900000D02*
X177470870Y-92900000D01*
X177470870Y-91971428D02*
X177399442Y-92114285D01*
X177399442Y-92114285D02*
X177328013Y-92185714D01*
X177328013Y-92185714D02*
X177185156Y-92257142D01*
X177185156Y-92257142D02*
X176756584Y-92257142D01*
X176756584Y-92257142D02*
X176613727Y-92185714D01*
X176613727Y-92185714D02*
X176542299Y-92114285D01*
X176542299Y-92114285D02*
X176470870Y-91971428D01*
X176470870Y-91971428D02*
X176470870Y-91757142D01*
X176470870Y-91757142D02*
X176542299Y-91614285D01*
X176542299Y-91614285D02*
X176613727Y-91542857D01*
X176613727Y-91542857D02*
X176756584Y-91471428D01*
X176756584Y-91471428D02*
X177185156Y-91471428D01*
X177185156Y-91471428D02*
X177328013Y-91542857D01*
X177328013Y-91542857D02*
X177399442Y-91614285D01*
X177399442Y-91614285D02*
X177470870Y-91757142D01*
X177470870Y-91757142D02*
X177470870Y-91971428D01*
X176470870Y-91042856D02*
X176470870Y-90471428D01*
X175970870Y-90828571D02*
X177256584Y-90828571D01*
X177256584Y-90828571D02*
X177399442Y-90757142D01*
X177399442Y-90757142D02*
X177470870Y-90614285D01*
X177470870Y-90614285D02*
X177470870Y-90471428D01*
X177470870Y-89757142D02*
X177399442Y-89899999D01*
X177399442Y-89899999D02*
X177328013Y-89971428D01*
X177328013Y-89971428D02*
X177185156Y-90042856D01*
X177185156Y-90042856D02*
X176756584Y-90042856D01*
X176756584Y-90042856D02*
X176613727Y-89971428D01*
X176613727Y-89971428D02*
X176542299Y-89899999D01*
X176542299Y-89899999D02*
X176470870Y-89757142D01*
X176470870Y-89757142D02*
X176470870Y-89542856D01*
X176470870Y-89542856D02*
X176542299Y-89399999D01*
X176542299Y-89399999D02*
X176613727Y-89328571D01*
X176613727Y-89328571D02*
X176756584Y-89257142D01*
X176756584Y-89257142D02*
X177185156Y-89257142D01*
X177185156Y-89257142D02*
X177328013Y-89328571D01*
X177328013Y-89328571D02*
X177399442Y-89399999D01*
X177399442Y-89399999D02*
X177470870Y-89542856D01*
X177470870Y-89542856D02*
X177470870Y-89757142D01*
X177470870Y-88614285D02*
X176470870Y-88614285D01*
X176756584Y-88614285D02*
X176613727Y-88542856D01*
X176613727Y-88542856D02*
X176542299Y-88471428D01*
X176542299Y-88471428D02*
X176470870Y-88328570D01*
X176470870Y-88328570D02*
X176470870Y-88185713D01*
X179885786Y-94042856D02*
X178385786Y-94042856D01*
X178385786Y-94042856D02*
X178385786Y-93685713D01*
X178385786Y-93685713D02*
X178457215Y-93471427D01*
X178457215Y-93471427D02*
X178600072Y-93328570D01*
X178600072Y-93328570D02*
X178742929Y-93257141D01*
X178742929Y-93257141D02*
X179028643Y-93185713D01*
X179028643Y-93185713D02*
X179242929Y-93185713D01*
X179242929Y-93185713D02*
X179528643Y-93257141D01*
X179528643Y-93257141D02*
X179671500Y-93328570D01*
X179671500Y-93328570D02*
X179814358Y-93471427D01*
X179814358Y-93471427D02*
X179885786Y-93685713D01*
X179885786Y-93685713D02*
X179885786Y-94042856D01*
X179885786Y-92542856D02*
X178885786Y-92542856D01*
X179171500Y-92542856D02*
X179028643Y-92471427D01*
X179028643Y-92471427D02*
X178957215Y-92399999D01*
X178957215Y-92399999D02*
X178885786Y-92257141D01*
X178885786Y-92257141D02*
X178885786Y-92114284D01*
X179885786Y-91614285D02*
X178885786Y-91614285D01*
X178385786Y-91614285D02*
X178457215Y-91685713D01*
X178457215Y-91685713D02*
X178528643Y-91614285D01*
X178528643Y-91614285D02*
X178457215Y-91542856D01*
X178457215Y-91542856D02*
X178385786Y-91614285D01*
X178385786Y-91614285D02*
X178528643Y-91614285D01*
X178885786Y-91042856D02*
X179885786Y-90685713D01*
X179885786Y-90685713D02*
X178885786Y-90328570D01*
X179814358Y-89185713D02*
X179885786Y-89328570D01*
X179885786Y-89328570D02*
X179885786Y-89614285D01*
X179885786Y-89614285D02*
X179814358Y-89757142D01*
X179814358Y-89757142D02*
X179671500Y-89828570D01*
X179671500Y-89828570D02*
X179100072Y-89828570D01*
X179100072Y-89828570D02*
X178957215Y-89757142D01*
X178957215Y-89757142D02*
X178885786Y-89614285D01*
X178885786Y-89614285D02*
X178885786Y-89328570D01*
X178885786Y-89328570D02*
X178957215Y-89185713D01*
X178957215Y-89185713D02*
X179100072Y-89114285D01*
X179100072Y-89114285D02*
X179242929Y-89114285D01*
X179242929Y-89114285D02*
X179385786Y-89828570D01*
X179885786Y-88471428D02*
X178885786Y-88471428D01*
X179171500Y-88471428D02*
X179028643Y-88399999D01*
X179028643Y-88399999D02*
X178957215Y-88328571D01*
X178957215Y-88328571D02*
X178885786Y-88185713D01*
X178885786Y-88185713D02*
X178885786Y-88042856D01*
D13*
X192379523Y-122414819D02*
X191808095Y-122414819D01*
X192093809Y-122414819D02*
X192093809Y-121414819D01*
X192093809Y-121414819D02*
X191998571Y-121557676D01*
X191998571Y-121557676D02*
X191903333Y-121652914D01*
X191903333Y-121652914D02*
X191808095Y-121700533D01*
X192760476Y-121510057D02*
X192808095Y-121462438D01*
X192808095Y-121462438D02*
X192903333Y-121414819D01*
X192903333Y-121414819D02*
X193141428Y-121414819D01*
X193141428Y-121414819D02*
X193236666Y-121462438D01*
X193236666Y-121462438D02*
X193284285Y-121510057D01*
X193284285Y-121510057D02*
X193331904Y-121605295D01*
X193331904Y-121605295D02*
X193331904Y-121700533D01*
X193331904Y-121700533D02*
X193284285Y-121843390D01*
X193284285Y-121843390D02*
X192712857Y-122414819D01*
X192712857Y-122414819D02*
X193331904Y-122414819D01*
X184759523Y-122414819D02*
X184188095Y-122414819D01*
X184473809Y-122414819D02*
X184473809Y-121414819D01*
X184473809Y-121414819D02*
X184378571Y-121557676D01*
X184378571Y-121557676D02*
X184283333Y-121652914D01*
X184283333Y-121652914D02*
X184188095Y-121700533D01*
X185664285Y-121414819D02*
X185188095Y-121414819D01*
X185188095Y-121414819D02*
X185140476Y-121891009D01*
X185140476Y-121891009D02*
X185188095Y-121843390D01*
X185188095Y-121843390D02*
X185283333Y-121795771D01*
X185283333Y-121795771D02*
X185521428Y-121795771D01*
X185521428Y-121795771D02*
X185616666Y-121843390D01*
X185616666Y-121843390D02*
X185664285Y-121891009D01*
X185664285Y-121891009D02*
X185711904Y-121986247D01*
X185711904Y-121986247D02*
X185711904Y-122224342D01*
X185711904Y-122224342D02*
X185664285Y-122319580D01*
X185664285Y-122319580D02*
X185616666Y-122367200D01*
X185616666Y-122367200D02*
X185521428Y-122414819D01*
X185521428Y-122414819D02*
X185283333Y-122414819D01*
X185283333Y-122414819D02*
X185188095Y-122367200D01*
X185188095Y-122367200D02*
X185140476Y-122319580D01*
D12*
X178942614Y-77138927D02*
X178942614Y-76638927D01*
X179728328Y-76424641D02*
X179728328Y-77138927D01*
X179728328Y-77138927D02*
X178228328Y-77138927D01*
X178228328Y-77138927D02*
X178228328Y-76424641D01*
X179656900Y-75853212D02*
X179728328Y-75638927D01*
X179728328Y-75638927D02*
X179728328Y-75281784D01*
X179728328Y-75281784D02*
X179656900Y-75138927D01*
X179656900Y-75138927D02*
X179585471Y-75067498D01*
X179585471Y-75067498D02*
X179442614Y-74996069D01*
X179442614Y-74996069D02*
X179299757Y-74996069D01*
X179299757Y-74996069D02*
X179156900Y-75067498D01*
X179156900Y-75067498D02*
X179085471Y-75138927D01*
X179085471Y-75138927D02*
X179014042Y-75281784D01*
X179014042Y-75281784D02*
X178942614Y-75567498D01*
X178942614Y-75567498D02*
X178871185Y-75710355D01*
X178871185Y-75710355D02*
X178799757Y-75781784D01*
X178799757Y-75781784D02*
X178656900Y-75853212D01*
X178656900Y-75853212D02*
X178514042Y-75853212D01*
X178514042Y-75853212D02*
X178371185Y-75781784D01*
X178371185Y-75781784D02*
X178299757Y-75710355D01*
X178299757Y-75710355D02*
X178228328Y-75567498D01*
X178228328Y-75567498D02*
X178228328Y-75210355D01*
X178228328Y-75210355D02*
X178299757Y-74996069D01*
X179728328Y-74353213D02*
X178228328Y-74353213D01*
X178228328Y-74353213D02*
X178228328Y-73781784D01*
X178228328Y-73781784D02*
X178299757Y-73638927D01*
X178299757Y-73638927D02*
X178371185Y-73567498D01*
X178371185Y-73567498D02*
X178514042Y-73496070D01*
X178514042Y-73496070D02*
X178728328Y-73496070D01*
X178728328Y-73496070D02*
X178871185Y-73567498D01*
X178871185Y-73567498D02*
X178942614Y-73638927D01*
X178942614Y-73638927D02*
X179014042Y-73781784D01*
X179014042Y-73781784D02*
X179014042Y-74353213D01*
X178228328Y-72996070D02*
X178228328Y-72067498D01*
X178228328Y-72067498D02*
X178799757Y-72567498D01*
X178799757Y-72567498D02*
X178799757Y-72353213D01*
X178799757Y-72353213D02*
X178871185Y-72210356D01*
X178871185Y-72210356D02*
X178942614Y-72138927D01*
X178942614Y-72138927D02*
X179085471Y-72067498D01*
X179085471Y-72067498D02*
X179442614Y-72067498D01*
X179442614Y-72067498D02*
X179585471Y-72138927D01*
X179585471Y-72138927D02*
X179656900Y-72210356D01*
X179656900Y-72210356D02*
X179728328Y-72353213D01*
X179728328Y-72353213D02*
X179728328Y-72781784D01*
X179728328Y-72781784D02*
X179656900Y-72924641D01*
X179656900Y-72924641D02*
X179585471Y-72996070D01*
X178371185Y-71496070D02*
X178299757Y-71424642D01*
X178299757Y-71424642D02*
X178228328Y-71281785D01*
X178228328Y-71281785D02*
X178228328Y-70924642D01*
X178228328Y-70924642D02*
X178299757Y-70781785D01*
X178299757Y-70781785D02*
X178371185Y-70710356D01*
X178371185Y-70710356D02*
X178514042Y-70638927D01*
X178514042Y-70638927D02*
X178656900Y-70638927D01*
X178656900Y-70638927D02*
X178871185Y-70710356D01*
X178871185Y-70710356D02*
X179728328Y-71567499D01*
X179728328Y-71567499D02*
X179728328Y-70638927D01*
X179156900Y-69996071D02*
X179156900Y-68853214D01*
X179656900Y-68210356D02*
X179728328Y-67996071D01*
X179728328Y-67996071D02*
X179728328Y-67638928D01*
X179728328Y-67638928D02*
X179656900Y-67496071D01*
X179656900Y-67496071D02*
X179585471Y-67424642D01*
X179585471Y-67424642D02*
X179442614Y-67353213D01*
X179442614Y-67353213D02*
X179299757Y-67353213D01*
X179299757Y-67353213D02*
X179156900Y-67424642D01*
X179156900Y-67424642D02*
X179085471Y-67496071D01*
X179085471Y-67496071D02*
X179014042Y-67638928D01*
X179014042Y-67638928D02*
X178942614Y-67924642D01*
X178942614Y-67924642D02*
X178871185Y-68067499D01*
X178871185Y-68067499D02*
X178799757Y-68138928D01*
X178799757Y-68138928D02*
X178656900Y-68210356D01*
X178656900Y-68210356D02*
X178514042Y-68210356D01*
X178514042Y-68210356D02*
X178371185Y-68138928D01*
X178371185Y-68138928D02*
X178299757Y-68067499D01*
X178299757Y-68067499D02*
X178228328Y-67924642D01*
X178228328Y-67924642D02*
X178228328Y-67567499D01*
X178228328Y-67567499D02*
X178299757Y-67353213D01*
X178228328Y-66853214D02*
X178228328Y-65924642D01*
X178228328Y-65924642D02*
X178799757Y-66424642D01*
X178799757Y-66424642D02*
X178799757Y-66210357D01*
X178799757Y-66210357D02*
X178871185Y-66067500D01*
X178871185Y-66067500D02*
X178942614Y-65996071D01*
X178942614Y-65996071D02*
X179085471Y-65924642D01*
X179085471Y-65924642D02*
X179442614Y-65924642D01*
X179442614Y-65924642D02*
X179585471Y-65996071D01*
X179585471Y-65996071D02*
X179656900Y-66067500D01*
X179656900Y-66067500D02*
X179728328Y-66210357D01*
X179728328Y-66210357D02*
X179728328Y-66638928D01*
X179728328Y-66638928D02*
X179656900Y-66781785D01*
X179656900Y-66781785D02*
X179585471Y-66853214D01*
D10*
X202879919Y-108996353D02*
X202879919Y-108377306D01*
X202879919Y-108377306D02*
X203260871Y-108710639D01*
X203260871Y-108710639D02*
X203260871Y-108567782D01*
X203260871Y-108567782D02*
X203308490Y-108472544D01*
X203308490Y-108472544D02*
X203356109Y-108424925D01*
X203356109Y-108424925D02*
X203451347Y-108377306D01*
X203451347Y-108377306D02*
X203689442Y-108377306D01*
X203689442Y-108377306D02*
X203784680Y-108424925D01*
X203784680Y-108424925D02*
X203832300Y-108472544D01*
X203832300Y-108472544D02*
X203879919Y-108567782D01*
X203879919Y-108567782D02*
X203879919Y-108853496D01*
X203879919Y-108853496D02*
X203832300Y-108948734D01*
X203832300Y-108948734D02*
X203784680Y-108996353D01*
X202879919Y-108091591D02*
X203879919Y-107758258D01*
X203879919Y-107758258D02*
X202879919Y-107424925D01*
X202879919Y-107186829D02*
X202879919Y-106567782D01*
X202879919Y-106567782D02*
X203260871Y-106901115D01*
X203260871Y-106901115D02*
X203260871Y-106758258D01*
X203260871Y-106758258D02*
X203308490Y-106663020D01*
X203308490Y-106663020D02*
X203356109Y-106615401D01*
X203356109Y-106615401D02*
X203451347Y-106567782D01*
X203451347Y-106567782D02*
X203689442Y-106567782D01*
X203689442Y-106567782D02*
X203784680Y-106615401D01*
X203784680Y-106615401D02*
X203832300Y-106663020D01*
X203832300Y-106663020D02*
X203879919Y-106758258D01*
X203879919Y-106758258D02*
X203879919Y-107043972D01*
X203879919Y-107043972D02*
X203832300Y-107139210D01*
X203832300Y-107139210D02*
X203784680Y-107186829D01*
X166145080Y-107748646D02*
X166145080Y-108415312D01*
X166145080Y-108415312D02*
X165145080Y-107986741D01*
X165781747Y-93192455D02*
X165115080Y-93192455D01*
X166162700Y-92954360D02*
X165448414Y-92716265D01*
X165448414Y-92716265D02*
X165448414Y-93335312D01*
X182511027Y-109272419D02*
X182844360Y-110272419D01*
X182844360Y-110272419D02*
X183177693Y-109272419D01*
X183511027Y-110272419D02*
X183511027Y-109605752D01*
X183511027Y-109272419D02*
X183463408Y-109320038D01*
X183463408Y-109320038D02*
X183511027Y-109367657D01*
X183511027Y-109367657D02*
X183558646Y-109320038D01*
X183558646Y-109320038D02*
X183511027Y-109272419D01*
X183511027Y-109272419D02*
X183511027Y-109367657D01*
X183987217Y-109605752D02*
X183987217Y-110272419D01*
X183987217Y-109700990D02*
X184034836Y-109653371D01*
X184034836Y-109653371D02*
X184130074Y-109605752D01*
X184130074Y-109605752D02*
X184272931Y-109605752D01*
X184272931Y-109605752D02*
X184368169Y-109653371D01*
X184368169Y-109653371D02*
X184415788Y-109748609D01*
X184415788Y-109748609D02*
X184415788Y-110272419D01*
X188870952Y-143744919D02*
X188870952Y-142744919D01*
X188870952Y-142744919D02*
X189204285Y-143459204D01*
X189204285Y-143459204D02*
X189537618Y-142744919D01*
X189537618Y-142744919D02*
X189537618Y-143744919D01*
X190204285Y-142744919D02*
X190394761Y-142744919D01*
X190394761Y-142744919D02*
X190489999Y-142792538D01*
X190489999Y-142792538D02*
X190585237Y-142887776D01*
X190585237Y-142887776D02*
X190632856Y-143078252D01*
X190632856Y-143078252D02*
X190632856Y-143411585D01*
X190632856Y-143411585D02*
X190585237Y-143602061D01*
X190585237Y-143602061D02*
X190489999Y-143697300D01*
X190489999Y-143697300D02*
X190394761Y-143744919D01*
X190394761Y-143744919D02*
X190204285Y-143744919D01*
X190204285Y-143744919D02*
X190109047Y-143697300D01*
X190109047Y-143697300D02*
X190013809Y-143602061D01*
X190013809Y-143602061D02*
X189966190Y-143411585D01*
X189966190Y-143411585D02*
X189966190Y-143078252D01*
X189966190Y-143078252D02*
X190013809Y-142887776D01*
X190013809Y-142887776D02*
X190109047Y-142792538D01*
X190109047Y-142792538D02*
X190204285Y-142744919D01*
X190918571Y-142744919D02*
X191489999Y-142744919D01*
X191204285Y-143744919D02*
X191204285Y-142744919D01*
X192013809Y-142744919D02*
X192204285Y-142744919D01*
X192204285Y-142744919D02*
X192299523Y-142792538D01*
X192299523Y-142792538D02*
X192394761Y-142887776D01*
X192394761Y-142887776D02*
X192442380Y-143078252D01*
X192442380Y-143078252D02*
X192442380Y-143411585D01*
X192442380Y-143411585D02*
X192394761Y-143602061D01*
X192394761Y-143602061D02*
X192299523Y-143697300D01*
X192299523Y-143697300D02*
X192204285Y-143744919D01*
X192204285Y-143744919D02*
X192013809Y-143744919D01*
X192013809Y-143744919D02*
X191918571Y-143697300D01*
X191918571Y-143697300D02*
X191823333Y-143602061D01*
X191823333Y-143602061D02*
X191775714Y-143411585D01*
X191775714Y-143411585D02*
X191775714Y-143078252D01*
X191775714Y-143078252D02*
X191823333Y-142887776D01*
X191823333Y-142887776D02*
X191918571Y-142792538D01*
X191918571Y-142792538D02*
X192013809Y-142744919D01*
X193442380Y-143744919D02*
X193109047Y-143268728D01*
X192870952Y-143744919D02*
X192870952Y-142744919D01*
X192870952Y-142744919D02*
X193251904Y-142744919D01*
X193251904Y-142744919D02*
X193347142Y-142792538D01*
X193347142Y-142792538D02*
X193394761Y-142840157D01*
X193394761Y-142840157D02*
X193442380Y-142935395D01*
X193442380Y-142935395D02*
X193442380Y-143078252D01*
X193442380Y-143078252D02*
X193394761Y-143173490D01*
X193394761Y-143173490D02*
X193347142Y-143221109D01*
X193347142Y-143221109D02*
X193251904Y-143268728D01*
X193251904Y-143268728D02*
X192870952Y-143268728D01*
X194585238Y-142840157D02*
X194632857Y-142792538D01*
X194632857Y-142792538D02*
X194728095Y-142744919D01*
X194728095Y-142744919D02*
X194966190Y-142744919D01*
X194966190Y-142744919D02*
X195061428Y-142792538D01*
X195061428Y-142792538D02*
X195109047Y-142840157D01*
X195109047Y-142840157D02*
X195156666Y-142935395D01*
X195156666Y-142935395D02*
X195156666Y-143030633D01*
X195156666Y-143030633D02*
X195109047Y-143173490D01*
X195109047Y-143173490D02*
X194537619Y-143744919D01*
X194537619Y-143744919D02*
X195156666Y-143744919D01*
X203849919Y-92337306D02*
X203849919Y-92908734D01*
X203849919Y-92623020D02*
X202849919Y-92623020D01*
X202849919Y-92623020D02*
X202992776Y-92718258D01*
X202992776Y-92718258D02*
X203088014Y-92813496D01*
X203088014Y-92813496D02*
X203135633Y-92908734D01*
X188322931Y-107927847D02*
X188056265Y-107927847D01*
X188056265Y-108346895D02*
X188056265Y-107546895D01*
X188056265Y-107546895D02*
X188437217Y-107546895D01*
X189046741Y-108308800D02*
X188970550Y-108346895D01*
X188970550Y-108346895D02*
X188818169Y-108346895D01*
X188818169Y-108346895D02*
X188741979Y-108308800D01*
X188741979Y-108308800D02*
X188703883Y-108232609D01*
X188703883Y-108232609D02*
X188703883Y-107927847D01*
X188703883Y-107927847D02*
X188741979Y-107851657D01*
X188741979Y-107851657D02*
X188818169Y-107813561D01*
X188818169Y-107813561D02*
X188970550Y-107813561D01*
X188970550Y-107813561D02*
X189046741Y-107851657D01*
X189046741Y-107851657D02*
X189084836Y-107927847D01*
X189084836Y-107927847D02*
X189084836Y-108004038D01*
X189084836Y-108004038D02*
X188703883Y-108080228D01*
X189732455Y-108308800D02*
X189656264Y-108346895D01*
X189656264Y-108346895D02*
X189503883Y-108346895D01*
X189503883Y-108346895D02*
X189427693Y-108308800D01*
X189427693Y-108308800D02*
X189389597Y-108232609D01*
X189389597Y-108232609D02*
X189389597Y-107927847D01*
X189389597Y-107927847D02*
X189427693Y-107851657D01*
X189427693Y-107851657D02*
X189503883Y-107813561D01*
X189503883Y-107813561D02*
X189656264Y-107813561D01*
X189656264Y-107813561D02*
X189732455Y-107851657D01*
X189732455Y-107851657D02*
X189770550Y-107927847D01*
X189770550Y-107927847D02*
X189770550Y-108004038D01*
X189770550Y-108004038D02*
X189389597Y-108080228D01*
X190456264Y-108346895D02*
X190456264Y-107546895D01*
X190456264Y-108308800D02*
X190380073Y-108346895D01*
X190380073Y-108346895D02*
X190227692Y-108346895D01*
X190227692Y-108346895D02*
X190151502Y-108308800D01*
X190151502Y-108308800D02*
X190113407Y-108270704D01*
X190113407Y-108270704D02*
X190075311Y-108194514D01*
X190075311Y-108194514D02*
X190075311Y-107965942D01*
X190075311Y-107965942D02*
X190113407Y-107889752D01*
X190113407Y-107889752D02*
X190151502Y-107851657D01*
X190151502Y-107851657D02*
X190227692Y-107813561D01*
X190227692Y-107813561D02*
X190380073Y-107813561D01*
X190380073Y-107813561D02*
X190456264Y-107851657D01*
X190837217Y-108346895D02*
X190837217Y-107546895D01*
X190837217Y-107851657D02*
X190913407Y-107813561D01*
X190913407Y-107813561D02*
X191065788Y-107813561D01*
X191065788Y-107813561D02*
X191141979Y-107851657D01*
X191141979Y-107851657D02*
X191180074Y-107889752D01*
X191180074Y-107889752D02*
X191218169Y-107965942D01*
X191218169Y-107965942D02*
X191218169Y-108194514D01*
X191218169Y-108194514D02*
X191180074Y-108270704D01*
X191180074Y-108270704D02*
X191141979Y-108308800D01*
X191141979Y-108308800D02*
X191065788Y-108346895D01*
X191065788Y-108346895D02*
X190913407Y-108346895D01*
X190913407Y-108346895D02*
X190837217Y-108308800D01*
X191903884Y-108346895D02*
X191903884Y-107927847D01*
X191903884Y-107927847D02*
X191865789Y-107851657D01*
X191865789Y-107851657D02*
X191789598Y-107813561D01*
X191789598Y-107813561D02*
X191637217Y-107813561D01*
X191637217Y-107813561D02*
X191561027Y-107851657D01*
X191903884Y-108308800D02*
X191827693Y-108346895D01*
X191827693Y-108346895D02*
X191637217Y-108346895D01*
X191637217Y-108346895D02*
X191561027Y-108308800D01*
X191561027Y-108308800D02*
X191522931Y-108232609D01*
X191522931Y-108232609D02*
X191522931Y-108156419D01*
X191522931Y-108156419D02*
X191561027Y-108080228D01*
X191561027Y-108080228D02*
X191637217Y-108042133D01*
X191637217Y-108042133D02*
X191827693Y-108042133D01*
X191827693Y-108042133D02*
X191903884Y-108004038D01*
X192627694Y-108308800D02*
X192551503Y-108346895D01*
X192551503Y-108346895D02*
X192399122Y-108346895D01*
X192399122Y-108346895D02*
X192322932Y-108308800D01*
X192322932Y-108308800D02*
X192284837Y-108270704D01*
X192284837Y-108270704D02*
X192246741Y-108194514D01*
X192246741Y-108194514D02*
X192246741Y-107965942D01*
X192246741Y-107965942D02*
X192284837Y-107889752D01*
X192284837Y-107889752D02*
X192322932Y-107851657D01*
X192322932Y-107851657D02*
X192399122Y-107813561D01*
X192399122Y-107813561D02*
X192551503Y-107813561D01*
X192551503Y-107813561D02*
X192627694Y-107851657D01*
X192970551Y-108346895D02*
X192970551Y-107546895D01*
X193046741Y-108042133D02*
X193275313Y-108346895D01*
X193275313Y-107813561D02*
X192970551Y-108118323D01*
X191756265Y-115927847D02*
X192022931Y-115927847D01*
X192137217Y-116346895D02*
X191756265Y-116346895D01*
X191756265Y-116346895D02*
X191756265Y-115546895D01*
X191756265Y-115546895D02*
X192137217Y-115546895D01*
X192480075Y-116346895D02*
X192480075Y-115546895D01*
X192480075Y-115546895D02*
X192937218Y-116346895D01*
X192937218Y-116346895D02*
X192937218Y-115546895D01*
D13*
X177139523Y-122414819D02*
X176568095Y-122414819D01*
X176853809Y-122414819D02*
X176853809Y-121414819D01*
X176853809Y-121414819D02*
X176758571Y-121557676D01*
X176758571Y-121557676D02*
X176663333Y-121652914D01*
X176663333Y-121652914D02*
X176568095Y-121700533D01*
X177710952Y-121843390D02*
X177615714Y-121795771D01*
X177615714Y-121795771D02*
X177568095Y-121748152D01*
X177568095Y-121748152D02*
X177520476Y-121652914D01*
X177520476Y-121652914D02*
X177520476Y-121605295D01*
X177520476Y-121605295D02*
X177568095Y-121510057D01*
X177568095Y-121510057D02*
X177615714Y-121462438D01*
X177615714Y-121462438D02*
X177710952Y-121414819D01*
X177710952Y-121414819D02*
X177901428Y-121414819D01*
X177901428Y-121414819D02*
X177996666Y-121462438D01*
X177996666Y-121462438D02*
X178044285Y-121510057D01*
X178044285Y-121510057D02*
X178091904Y-121605295D01*
X178091904Y-121605295D02*
X178091904Y-121652914D01*
X178091904Y-121652914D02*
X178044285Y-121748152D01*
X178044285Y-121748152D02*
X177996666Y-121795771D01*
X177996666Y-121795771D02*
X177901428Y-121843390D01*
X177901428Y-121843390D02*
X177710952Y-121843390D01*
X177710952Y-121843390D02*
X177615714Y-121891009D01*
X177615714Y-121891009D02*
X177568095Y-121938628D01*
X177568095Y-121938628D02*
X177520476Y-122033866D01*
X177520476Y-122033866D02*
X177520476Y-122224342D01*
X177520476Y-122224342D02*
X177568095Y-122319580D01*
X177568095Y-122319580D02*
X177615714Y-122367200D01*
X177615714Y-122367200D02*
X177710952Y-122414819D01*
X177710952Y-122414819D02*
X177901428Y-122414819D01*
X177901428Y-122414819D02*
X177996666Y-122367200D01*
X177996666Y-122367200D02*
X178044285Y-122319580D01*
X178044285Y-122319580D02*
X178091904Y-122224342D01*
X178091904Y-122224342D02*
X178091904Y-122033866D01*
X178091904Y-122033866D02*
X178044285Y-121938628D01*
X178044285Y-121938628D02*
X177996666Y-121891009D01*
X177996666Y-121891009D02*
X177901428Y-121843390D01*
X201198095Y-129079938D02*
X201102857Y-129032319D01*
X201102857Y-129032319D02*
X200960000Y-129032319D01*
X200960000Y-129032319D02*
X200817143Y-129079938D01*
X200817143Y-129079938D02*
X200721905Y-129175176D01*
X200721905Y-129175176D02*
X200674286Y-129270414D01*
X200674286Y-129270414D02*
X200626667Y-129460890D01*
X200626667Y-129460890D02*
X200626667Y-129603747D01*
X200626667Y-129603747D02*
X200674286Y-129794223D01*
X200674286Y-129794223D02*
X200721905Y-129889461D01*
X200721905Y-129889461D02*
X200817143Y-129984700D01*
X200817143Y-129984700D02*
X200960000Y-130032319D01*
X200960000Y-130032319D02*
X201055238Y-130032319D01*
X201055238Y-130032319D02*
X201198095Y-129984700D01*
X201198095Y-129984700D02*
X201245714Y-129937080D01*
X201245714Y-129937080D02*
X201245714Y-129603747D01*
X201245714Y-129603747D02*
X201055238Y-129603747D01*
X201674286Y-130032319D02*
X201674286Y-129032319D01*
X201674286Y-129032319D02*
X202245714Y-130032319D01*
X202245714Y-130032319D02*
X202245714Y-129032319D01*
X202721905Y-130032319D02*
X202721905Y-129032319D01*
X202721905Y-129032319D02*
X202960000Y-129032319D01*
X202960000Y-129032319D02*
X203102857Y-129079938D01*
X203102857Y-129079938D02*
X203198095Y-129175176D01*
X203198095Y-129175176D02*
X203245714Y-129270414D01*
X203245714Y-129270414D02*
X203293333Y-129460890D01*
X203293333Y-129460890D02*
X203293333Y-129603747D01*
X203293333Y-129603747D02*
X203245714Y-129794223D01*
X203245714Y-129794223D02*
X203198095Y-129889461D01*
X203198095Y-129889461D02*
X203102857Y-129984700D01*
X203102857Y-129984700D02*
X202960000Y-130032319D01*
X202960000Y-130032319D02*
X202721905Y-130032319D01*
X179679523Y-122414819D02*
X179108095Y-122414819D01*
X179393809Y-122414819D02*
X179393809Y-121414819D01*
X179393809Y-121414819D02*
X179298571Y-121557676D01*
X179298571Y-121557676D02*
X179203333Y-121652914D01*
X179203333Y-121652914D02*
X179108095Y-121700533D01*
X180012857Y-121414819D02*
X180679523Y-121414819D01*
X180679523Y-121414819D02*
X180250952Y-122414819D01*
D10*
X166135080Y-112830074D02*
X166135080Y-112353884D01*
X166135080Y-112353884D02*
X165658890Y-112306265D01*
X165658890Y-112306265D02*
X165706509Y-112353884D01*
X165706509Y-112353884D02*
X165754128Y-112449122D01*
X165754128Y-112449122D02*
X165754128Y-112687217D01*
X165754128Y-112687217D02*
X165706509Y-112782455D01*
X165706509Y-112782455D02*
X165658890Y-112830074D01*
X165658890Y-112830074D02*
X165563652Y-112877693D01*
X165563652Y-112877693D02*
X165325557Y-112877693D01*
X165325557Y-112877693D02*
X165230319Y-112830074D01*
X165230319Y-112830074D02*
X165182700Y-112782455D01*
X165182700Y-112782455D02*
X165135080Y-112687217D01*
X165135080Y-112687217D02*
X165135080Y-112449122D01*
X165135080Y-112449122D02*
X165182700Y-112353884D01*
X165182700Y-112353884D02*
X165230319Y-112306265D01*
X166135080Y-113163408D02*
X165135080Y-113496741D01*
X165135080Y-113496741D02*
X166135080Y-113830074D01*
X165606390Y-122727975D02*
X165558771Y-122870832D01*
X165558771Y-122870832D02*
X165511152Y-122918451D01*
X165511152Y-122918451D02*
X165415914Y-122966070D01*
X165415914Y-122966070D02*
X165273057Y-122966070D01*
X165273057Y-122966070D02*
X165177819Y-122918451D01*
X165177819Y-122918451D02*
X165130200Y-122870832D01*
X165130200Y-122870832D02*
X165082580Y-122775594D01*
X165082580Y-122775594D02*
X165082580Y-122394642D01*
X165082580Y-122394642D02*
X166082580Y-122394642D01*
X166082580Y-122394642D02*
X166082580Y-122727975D01*
X166082580Y-122727975D02*
X166034961Y-122823213D01*
X166034961Y-122823213D02*
X165987342Y-122870832D01*
X165987342Y-122870832D02*
X165892104Y-122918451D01*
X165892104Y-122918451D02*
X165796866Y-122918451D01*
X165796866Y-122918451D02*
X165701628Y-122870832D01*
X165701628Y-122870832D02*
X165654009Y-122823213D01*
X165654009Y-122823213D02*
X165606390Y-122727975D01*
X165606390Y-122727975D02*
X165606390Y-122394642D01*
X165368295Y-123347023D02*
X165368295Y-123823213D01*
X165082580Y-123251785D02*
X166082580Y-123585118D01*
X166082580Y-123585118D02*
X165082580Y-123918451D01*
X166082580Y-124108928D02*
X166082580Y-124680356D01*
X165082580Y-124394642D02*
X166082580Y-124394642D01*
X166082580Y-124870833D02*
X166082580Y-125442261D01*
X165082580Y-125156547D02*
X166082580Y-125156547D01*
X165463533Y-125775595D02*
X165463533Y-126537500D01*
X165082580Y-126156547D02*
X165844485Y-126156547D01*
X165606390Y-128870833D02*
X165558771Y-129013690D01*
X165558771Y-129013690D02*
X165511152Y-129061309D01*
X165511152Y-129061309D02*
X165415914Y-129108928D01*
X165415914Y-129108928D02*
X165273057Y-129108928D01*
X165273057Y-129108928D02*
X165177819Y-129061309D01*
X165177819Y-129061309D02*
X165130200Y-129013690D01*
X165130200Y-129013690D02*
X165082580Y-128918452D01*
X165082580Y-128918452D02*
X165082580Y-128537500D01*
X165082580Y-128537500D02*
X166082580Y-128537500D01*
X166082580Y-128537500D02*
X166082580Y-128870833D01*
X166082580Y-128870833D02*
X166034961Y-128966071D01*
X166034961Y-128966071D02*
X165987342Y-129013690D01*
X165987342Y-129013690D02*
X165892104Y-129061309D01*
X165892104Y-129061309D02*
X165796866Y-129061309D01*
X165796866Y-129061309D02*
X165701628Y-129013690D01*
X165701628Y-129013690D02*
X165654009Y-128966071D01*
X165654009Y-128966071D02*
X165606390Y-128870833D01*
X165606390Y-128870833D02*
X165606390Y-128537500D01*
X165368295Y-129489881D02*
X165368295Y-129966071D01*
X165082580Y-129394643D02*
X166082580Y-129727976D01*
X166082580Y-129727976D02*
X165082580Y-130061309D01*
X166082580Y-130251786D02*
X166082580Y-130823214D01*
X165082580Y-130537500D02*
X166082580Y-130537500D01*
X166082580Y-131013691D02*
X166082580Y-131585119D01*
X165082580Y-131299405D02*
X166082580Y-131299405D01*
X165463533Y-131918453D02*
X165463533Y-132680358D01*
D14*
X177522857Y-78869809D02*
X177665714Y-78917428D01*
X177665714Y-78917428D02*
X177713333Y-78965047D01*
X177713333Y-78965047D02*
X177760952Y-79060285D01*
X177760952Y-79060285D02*
X177760952Y-79203142D01*
X177760952Y-79203142D02*
X177713333Y-79298380D01*
X177713333Y-79298380D02*
X177665714Y-79346000D01*
X177665714Y-79346000D02*
X177570476Y-79393619D01*
X177570476Y-79393619D02*
X177189524Y-79393619D01*
X177189524Y-79393619D02*
X177189524Y-78393619D01*
X177189524Y-78393619D02*
X177522857Y-78393619D01*
X177522857Y-78393619D02*
X177618095Y-78441238D01*
X177618095Y-78441238D02*
X177665714Y-78488857D01*
X177665714Y-78488857D02*
X177713333Y-78584095D01*
X177713333Y-78584095D02*
X177713333Y-78679333D01*
X177713333Y-78679333D02*
X177665714Y-78774571D01*
X177665714Y-78774571D02*
X177618095Y-78822190D01*
X177618095Y-78822190D02*
X177522857Y-78869809D01*
X177522857Y-78869809D02*
X177189524Y-78869809D01*
X178380000Y-78393619D02*
X178570476Y-78393619D01*
X178570476Y-78393619D02*
X178665714Y-78441238D01*
X178665714Y-78441238D02*
X178760952Y-78536476D01*
X178760952Y-78536476D02*
X178808571Y-78726952D01*
X178808571Y-78726952D02*
X178808571Y-79060285D01*
X178808571Y-79060285D02*
X178760952Y-79250761D01*
X178760952Y-79250761D02*
X178665714Y-79346000D01*
X178665714Y-79346000D02*
X178570476Y-79393619D01*
X178570476Y-79393619D02*
X178380000Y-79393619D01*
X178380000Y-79393619D02*
X178284762Y-79346000D01*
X178284762Y-79346000D02*
X178189524Y-79250761D01*
X178189524Y-79250761D02*
X178141905Y-79060285D01*
X178141905Y-79060285D02*
X178141905Y-78726952D01*
X178141905Y-78726952D02*
X178189524Y-78536476D01*
X178189524Y-78536476D02*
X178284762Y-78441238D01*
X178284762Y-78441238D02*
X178380000Y-78393619D01*
X179427619Y-78393619D02*
X179618095Y-78393619D01*
X179618095Y-78393619D02*
X179713333Y-78441238D01*
X179713333Y-78441238D02*
X179808571Y-78536476D01*
X179808571Y-78536476D02*
X179856190Y-78726952D01*
X179856190Y-78726952D02*
X179856190Y-79060285D01*
X179856190Y-79060285D02*
X179808571Y-79250761D01*
X179808571Y-79250761D02*
X179713333Y-79346000D01*
X179713333Y-79346000D02*
X179618095Y-79393619D01*
X179618095Y-79393619D02*
X179427619Y-79393619D01*
X179427619Y-79393619D02*
X179332381Y-79346000D01*
X179332381Y-79346000D02*
X179237143Y-79250761D01*
X179237143Y-79250761D02*
X179189524Y-79060285D01*
X179189524Y-79060285D02*
X179189524Y-78726952D01*
X179189524Y-78726952D02*
X179237143Y-78536476D01*
X179237143Y-78536476D02*
X179332381Y-78441238D01*
X179332381Y-78441238D02*
X179427619Y-78393619D01*
X180141905Y-78393619D02*
X180713333Y-78393619D01*
X180427619Y-79393619D02*
X180427619Y-78393619D01*
D10*
X202859919Y-112804925D02*
X202859919Y-113281115D01*
X202859919Y-113281115D02*
X203336109Y-113328734D01*
X203336109Y-113328734D02*
X203288490Y-113281115D01*
X203288490Y-113281115D02*
X203240871Y-113185877D01*
X203240871Y-113185877D02*
X203240871Y-112947782D01*
X203240871Y-112947782D02*
X203288490Y-112852544D01*
X203288490Y-112852544D02*
X203336109Y-112804925D01*
X203336109Y-112804925D02*
X203431347Y-112757306D01*
X203431347Y-112757306D02*
X203669442Y-112757306D01*
X203669442Y-112757306D02*
X203764680Y-112804925D01*
X203764680Y-112804925D02*
X203812300Y-112852544D01*
X203812300Y-112852544D02*
X203859919Y-112947782D01*
X203859919Y-112947782D02*
X203859919Y-113185877D01*
X203859919Y-113185877D02*
X203812300Y-113281115D01*
X203812300Y-113281115D02*
X203764680Y-113328734D01*
X202859919Y-112471591D02*
X203859919Y-112138258D01*
X203859919Y-112138258D02*
X202859919Y-111804925D01*
D12*
X178338328Y-112314285D02*
X176838328Y-112314285D01*
X176838328Y-112314285D02*
X176838328Y-111742856D01*
X176838328Y-111742856D02*
X176909757Y-111599999D01*
X176909757Y-111599999D02*
X176981185Y-111528570D01*
X176981185Y-111528570D02*
X177124042Y-111457142D01*
X177124042Y-111457142D02*
X177338328Y-111457142D01*
X177338328Y-111457142D02*
X177481185Y-111528570D01*
X177481185Y-111528570D02*
X177552614Y-111599999D01*
X177552614Y-111599999D02*
X177624042Y-111742856D01*
X177624042Y-111742856D02*
X177624042Y-112314285D01*
X178338328Y-110599999D02*
X178266900Y-110742856D01*
X178266900Y-110742856D02*
X178195471Y-110814285D01*
X178195471Y-110814285D02*
X178052614Y-110885713D01*
X178052614Y-110885713D02*
X177624042Y-110885713D01*
X177624042Y-110885713D02*
X177481185Y-110814285D01*
X177481185Y-110814285D02*
X177409757Y-110742856D01*
X177409757Y-110742856D02*
X177338328Y-110599999D01*
X177338328Y-110599999D02*
X177338328Y-110385713D01*
X177338328Y-110385713D02*
X177409757Y-110242856D01*
X177409757Y-110242856D02*
X177481185Y-110171428D01*
X177481185Y-110171428D02*
X177624042Y-110099999D01*
X177624042Y-110099999D02*
X178052614Y-110099999D01*
X178052614Y-110099999D02*
X178195471Y-110171428D01*
X178195471Y-110171428D02*
X178266900Y-110242856D01*
X178266900Y-110242856D02*
X178338328Y-110385713D01*
X178338328Y-110385713D02*
X178338328Y-110599999D01*
X177338328Y-109599999D02*
X178338328Y-109314285D01*
X178338328Y-109314285D02*
X177624042Y-109028570D01*
X177624042Y-109028570D02*
X178338328Y-108742856D01*
X178338328Y-108742856D02*
X177338328Y-108457142D01*
X178266900Y-107314284D02*
X178338328Y-107457141D01*
X178338328Y-107457141D02*
X178338328Y-107742856D01*
X178338328Y-107742856D02*
X178266900Y-107885713D01*
X178266900Y-107885713D02*
X178124042Y-107957141D01*
X178124042Y-107957141D02*
X177552614Y-107957141D01*
X177552614Y-107957141D02*
X177409757Y-107885713D01*
X177409757Y-107885713D02*
X177338328Y-107742856D01*
X177338328Y-107742856D02*
X177338328Y-107457141D01*
X177338328Y-107457141D02*
X177409757Y-107314284D01*
X177409757Y-107314284D02*
X177552614Y-107242856D01*
X177552614Y-107242856D02*
X177695471Y-107242856D01*
X177695471Y-107242856D02*
X177838328Y-107957141D01*
X178338328Y-106599999D02*
X177338328Y-106599999D01*
X177624042Y-106599999D02*
X177481185Y-106528570D01*
X177481185Y-106528570D02*
X177409757Y-106457142D01*
X177409757Y-106457142D02*
X177338328Y-106314284D01*
X177338328Y-106314284D02*
X177338328Y-106171427D01*
D13*
X195101905Y-121407319D02*
X195720952Y-121407319D01*
X195720952Y-121407319D02*
X195387619Y-121788271D01*
X195387619Y-121788271D02*
X195530476Y-121788271D01*
X195530476Y-121788271D02*
X195625714Y-121835890D01*
X195625714Y-121835890D02*
X195673333Y-121883509D01*
X195673333Y-121883509D02*
X195720952Y-121978747D01*
X195720952Y-121978747D02*
X195720952Y-122216842D01*
X195720952Y-122216842D02*
X195673333Y-122312080D01*
X195673333Y-122312080D02*
X195625714Y-122359700D01*
X195625714Y-122359700D02*
X195530476Y-122407319D01*
X195530476Y-122407319D02*
X195244762Y-122407319D01*
X195244762Y-122407319D02*
X195149524Y-122359700D01*
X195149524Y-122359700D02*
X195101905Y-122312080D01*
X196006667Y-121407319D02*
X196340000Y-122407319D01*
X196340000Y-122407319D02*
X196673333Y-121407319D01*
X196911429Y-121407319D02*
X197530476Y-121407319D01*
X197530476Y-121407319D02*
X197197143Y-121788271D01*
X197197143Y-121788271D02*
X197340000Y-121788271D01*
X197340000Y-121788271D02*
X197435238Y-121835890D01*
X197435238Y-121835890D02*
X197482857Y-121883509D01*
X197482857Y-121883509D02*
X197530476Y-121978747D01*
X197530476Y-121978747D02*
X197530476Y-122216842D01*
X197530476Y-122216842D02*
X197482857Y-122312080D01*
X197482857Y-122312080D02*
X197435238Y-122359700D01*
X197435238Y-122359700D02*
X197340000Y-122407319D01*
X197340000Y-122407319D02*
X197054286Y-122407319D01*
X197054286Y-122407319D02*
X196959048Y-122359700D01*
X196959048Y-122359700D02*
X196911429Y-122312080D01*
D10*
X202907538Y-118377306D02*
X202859919Y-118472544D01*
X202859919Y-118472544D02*
X202859919Y-118615401D01*
X202859919Y-118615401D02*
X202907538Y-118758258D01*
X202907538Y-118758258D02*
X203002776Y-118853496D01*
X203002776Y-118853496D02*
X203098014Y-118901115D01*
X203098014Y-118901115D02*
X203288490Y-118948734D01*
X203288490Y-118948734D02*
X203431347Y-118948734D01*
X203431347Y-118948734D02*
X203621823Y-118901115D01*
X203621823Y-118901115D02*
X203717061Y-118853496D01*
X203717061Y-118853496D02*
X203812300Y-118758258D01*
X203812300Y-118758258D02*
X203859919Y-118615401D01*
X203859919Y-118615401D02*
X203859919Y-118520163D01*
X203859919Y-118520163D02*
X203812300Y-118377306D01*
X203812300Y-118377306D02*
X203764680Y-118329687D01*
X203764680Y-118329687D02*
X203431347Y-118329687D01*
X203431347Y-118329687D02*
X203431347Y-118520163D01*
X203859919Y-117901115D02*
X202859919Y-117901115D01*
X202859919Y-117901115D02*
X203859919Y-117329687D01*
X203859919Y-117329687D02*
X202859919Y-117329687D01*
X203859919Y-116853496D02*
X202859919Y-116853496D01*
X202859919Y-116853496D02*
X202859919Y-116615401D01*
X202859919Y-116615401D02*
X202907538Y-116472544D01*
X202907538Y-116472544D02*
X203002776Y-116377306D01*
X203002776Y-116377306D02*
X203098014Y-116329687D01*
X203098014Y-116329687D02*
X203288490Y-116282068D01*
X203288490Y-116282068D02*
X203431347Y-116282068D01*
X203431347Y-116282068D02*
X203621823Y-116329687D01*
X203621823Y-116329687D02*
X203717061Y-116377306D01*
X203717061Y-116377306D02*
X203812300Y-116472544D01*
X203812300Y-116472544D02*
X203859919Y-116615401D01*
X203859919Y-116615401D02*
X203859919Y-116853496D01*
D13*
X187299523Y-122414819D02*
X186728095Y-122414819D01*
X187013809Y-122414819D02*
X187013809Y-121414819D01*
X187013809Y-121414819D02*
X186918571Y-121557676D01*
X186918571Y-121557676D02*
X186823333Y-121652914D01*
X186823333Y-121652914D02*
X186728095Y-121700533D01*
X188156666Y-121748152D02*
X188156666Y-122414819D01*
X187918571Y-121367200D02*
X187680476Y-122081485D01*
X187680476Y-122081485D02*
X188299523Y-122081485D01*
D10*
X166097461Y-117307693D02*
X166145080Y-117212455D01*
X166145080Y-117212455D02*
X166145080Y-117069598D01*
X166145080Y-117069598D02*
X166097461Y-116926741D01*
X166097461Y-116926741D02*
X166002223Y-116831503D01*
X166002223Y-116831503D02*
X165906985Y-116783884D01*
X165906985Y-116783884D02*
X165716509Y-116736265D01*
X165716509Y-116736265D02*
X165573652Y-116736265D01*
X165573652Y-116736265D02*
X165383176Y-116783884D01*
X165383176Y-116783884D02*
X165287938Y-116831503D01*
X165287938Y-116831503D02*
X165192700Y-116926741D01*
X165192700Y-116926741D02*
X165145080Y-117069598D01*
X165145080Y-117069598D02*
X165145080Y-117164836D01*
X165145080Y-117164836D02*
X165192700Y-117307693D01*
X165192700Y-117307693D02*
X165240319Y-117355312D01*
X165240319Y-117355312D02*
X165573652Y-117355312D01*
X165573652Y-117355312D02*
X165573652Y-117164836D01*
X165145080Y-117783884D02*
X166145080Y-117783884D01*
X166145080Y-117783884D02*
X165145080Y-118355312D01*
X165145080Y-118355312D02*
X166145080Y-118355312D01*
X165145080Y-118831503D02*
X166145080Y-118831503D01*
X166145080Y-118831503D02*
X166145080Y-119069598D01*
X166145080Y-119069598D02*
X166097461Y-119212455D01*
X166097461Y-119212455D02*
X166002223Y-119307693D01*
X166002223Y-119307693D02*
X165906985Y-119355312D01*
X165906985Y-119355312D02*
X165716509Y-119402931D01*
X165716509Y-119402931D02*
X165573652Y-119402931D01*
X165573652Y-119402931D02*
X165383176Y-119355312D01*
X165383176Y-119355312D02*
X165287938Y-119307693D01*
X165287938Y-119307693D02*
X165192700Y-119212455D01*
X165192700Y-119212455D02*
X165145080Y-119069598D01*
X165145080Y-119069598D02*
X165145080Y-118831503D01*
X202945157Y-98098734D02*
X202897538Y-98051115D01*
X202897538Y-98051115D02*
X202849919Y-97955877D01*
X202849919Y-97955877D02*
X202849919Y-97717782D01*
X202849919Y-97717782D02*
X202897538Y-97622544D01*
X202897538Y-97622544D02*
X202945157Y-97574925D01*
X202945157Y-97574925D02*
X203040395Y-97527306D01*
X203040395Y-97527306D02*
X203135633Y-97527306D01*
X203135633Y-97527306D02*
X203278490Y-97574925D01*
X203278490Y-97574925D02*
X203849919Y-98146353D01*
X203849919Y-98146353D02*
X203849919Y-97527306D01*
D13*
X182219523Y-122414819D02*
X181648095Y-122414819D01*
X181933809Y-122414819D02*
X181933809Y-121414819D01*
X181933809Y-121414819D02*
X181838571Y-121557676D01*
X181838571Y-121557676D02*
X181743333Y-121652914D01*
X181743333Y-121652914D02*
X181648095Y-121700533D01*
X183076666Y-121414819D02*
X182886190Y-121414819D01*
X182886190Y-121414819D02*
X182790952Y-121462438D01*
X182790952Y-121462438D02*
X182743333Y-121510057D01*
X182743333Y-121510057D02*
X182648095Y-121652914D01*
X182648095Y-121652914D02*
X182600476Y-121843390D01*
X182600476Y-121843390D02*
X182600476Y-122224342D01*
X182600476Y-122224342D02*
X182648095Y-122319580D01*
X182648095Y-122319580D02*
X182695714Y-122367200D01*
X182695714Y-122367200D02*
X182790952Y-122414819D01*
X182790952Y-122414819D02*
X182981428Y-122414819D01*
X182981428Y-122414819D02*
X183076666Y-122367200D01*
X183076666Y-122367200D02*
X183124285Y-122319580D01*
X183124285Y-122319580D02*
X183171904Y-122224342D01*
X183171904Y-122224342D02*
X183171904Y-121986247D01*
X183171904Y-121986247D02*
X183124285Y-121891009D01*
X183124285Y-121891009D02*
X183076666Y-121843390D01*
X183076666Y-121843390D02*
X182981428Y-121795771D01*
X182981428Y-121795771D02*
X182790952Y-121795771D01*
X182790952Y-121795771D02*
X182695714Y-121843390D01*
X182695714Y-121843390D02*
X182648095Y-121891009D01*
X182648095Y-121891009D02*
X182600476Y-121986247D01*
X201129523Y-126492319D02*
X200653333Y-126492319D01*
X200653333Y-126492319D02*
X200605714Y-126968509D01*
X200605714Y-126968509D02*
X200653333Y-126920890D01*
X200653333Y-126920890D02*
X200748571Y-126873271D01*
X200748571Y-126873271D02*
X200986666Y-126873271D01*
X200986666Y-126873271D02*
X201081904Y-126920890D01*
X201081904Y-126920890D02*
X201129523Y-126968509D01*
X201129523Y-126968509D02*
X201177142Y-127063747D01*
X201177142Y-127063747D02*
X201177142Y-127301842D01*
X201177142Y-127301842D02*
X201129523Y-127397080D01*
X201129523Y-127397080D02*
X201081904Y-127444700D01*
X201081904Y-127444700D02*
X200986666Y-127492319D01*
X200986666Y-127492319D02*
X200748571Y-127492319D01*
X200748571Y-127492319D02*
X200653333Y-127444700D01*
X200653333Y-127444700D02*
X200605714Y-127397080D01*
X201462857Y-126492319D02*
X201796190Y-127492319D01*
X201796190Y-127492319D02*
X202129523Y-126492319D01*
X189839523Y-122414819D02*
X189268095Y-122414819D01*
X189553809Y-122414819D02*
X189553809Y-121414819D01*
X189553809Y-121414819D02*
X189458571Y-121557676D01*
X189458571Y-121557676D02*
X189363333Y-121652914D01*
X189363333Y-121652914D02*
X189268095Y-121700533D01*
X190172857Y-121414819D02*
X190791904Y-121414819D01*
X190791904Y-121414819D02*
X190458571Y-121795771D01*
X190458571Y-121795771D02*
X190601428Y-121795771D01*
X190601428Y-121795771D02*
X190696666Y-121843390D01*
X190696666Y-121843390D02*
X190744285Y-121891009D01*
X190744285Y-121891009D02*
X190791904Y-121986247D01*
X190791904Y-121986247D02*
X190791904Y-122224342D01*
X190791904Y-122224342D02*
X190744285Y-122319580D01*
X190744285Y-122319580D02*
X190696666Y-122367200D01*
X190696666Y-122367200D02*
X190601428Y-122414819D01*
X190601428Y-122414819D02*
X190315714Y-122414819D01*
X190315714Y-122414819D02*
X190220476Y-122367200D01*
X190220476Y-122367200D02*
X190172857Y-122319580D01*
D10*
X203298490Y-102828258D02*
X203250871Y-102923496D01*
X203250871Y-102923496D02*
X203203252Y-102971115D01*
X203203252Y-102971115D02*
X203108014Y-103018734D01*
X203108014Y-103018734D02*
X203060395Y-103018734D01*
X203060395Y-103018734D02*
X202965157Y-102971115D01*
X202965157Y-102971115D02*
X202917538Y-102923496D01*
X202917538Y-102923496D02*
X202869919Y-102828258D01*
X202869919Y-102828258D02*
X202869919Y-102637782D01*
X202869919Y-102637782D02*
X202917538Y-102542544D01*
X202917538Y-102542544D02*
X202965157Y-102494925D01*
X202965157Y-102494925D02*
X203060395Y-102447306D01*
X203060395Y-102447306D02*
X203108014Y-102447306D01*
X203108014Y-102447306D02*
X203203252Y-102494925D01*
X203203252Y-102494925D02*
X203250871Y-102542544D01*
X203250871Y-102542544D02*
X203298490Y-102637782D01*
X203298490Y-102637782D02*
X203298490Y-102828258D01*
X203298490Y-102828258D02*
X203346109Y-102923496D01*
X203346109Y-102923496D02*
X203393728Y-102971115D01*
X203393728Y-102971115D02*
X203488966Y-103018734D01*
X203488966Y-103018734D02*
X203679442Y-103018734D01*
X203679442Y-103018734D02*
X203774680Y-102971115D01*
X203774680Y-102971115D02*
X203822300Y-102923496D01*
X203822300Y-102923496D02*
X203869919Y-102828258D01*
X203869919Y-102828258D02*
X203869919Y-102637782D01*
X203869919Y-102637782D02*
X203822300Y-102542544D01*
X203822300Y-102542544D02*
X203774680Y-102494925D01*
X203774680Y-102494925D02*
X203679442Y-102447306D01*
X203679442Y-102447306D02*
X203488966Y-102447306D01*
X203488966Y-102447306D02*
X203393728Y-102494925D01*
X203393728Y-102494925D02*
X203346109Y-102542544D01*
X203346109Y-102542544D02*
X203298490Y-102637782D01*
X166145080Y-98360074D02*
X166145080Y-97883884D01*
X166145080Y-97883884D02*
X165668890Y-97836265D01*
X165668890Y-97836265D02*
X165716509Y-97883884D01*
X165716509Y-97883884D02*
X165764128Y-97979122D01*
X165764128Y-97979122D02*
X165764128Y-98217217D01*
X165764128Y-98217217D02*
X165716509Y-98312455D01*
X165716509Y-98312455D02*
X165668890Y-98360074D01*
X165668890Y-98360074D02*
X165573652Y-98407693D01*
X165573652Y-98407693D02*
X165335557Y-98407693D01*
X165335557Y-98407693D02*
X165240319Y-98360074D01*
X165240319Y-98360074D02*
X165192700Y-98312455D01*
X165192700Y-98312455D02*
X165145080Y-98217217D01*
X165145080Y-98217217D02*
X165145080Y-97979122D01*
X165145080Y-97979122D02*
X165192700Y-97883884D01*
X165192700Y-97883884D02*
X165240319Y-97836265D01*
X177100952Y-143744919D02*
X177100952Y-142744919D01*
X177100952Y-142744919D02*
X177434285Y-143459204D01*
X177434285Y-143459204D02*
X177767618Y-142744919D01*
X177767618Y-142744919D02*
X177767618Y-143744919D01*
X178434285Y-142744919D02*
X178624761Y-142744919D01*
X178624761Y-142744919D02*
X178719999Y-142792538D01*
X178719999Y-142792538D02*
X178815237Y-142887776D01*
X178815237Y-142887776D02*
X178862856Y-143078252D01*
X178862856Y-143078252D02*
X178862856Y-143411585D01*
X178862856Y-143411585D02*
X178815237Y-143602061D01*
X178815237Y-143602061D02*
X178719999Y-143697300D01*
X178719999Y-143697300D02*
X178624761Y-143744919D01*
X178624761Y-143744919D02*
X178434285Y-143744919D01*
X178434285Y-143744919D02*
X178339047Y-143697300D01*
X178339047Y-143697300D02*
X178243809Y-143602061D01*
X178243809Y-143602061D02*
X178196190Y-143411585D01*
X178196190Y-143411585D02*
X178196190Y-143078252D01*
X178196190Y-143078252D02*
X178243809Y-142887776D01*
X178243809Y-142887776D02*
X178339047Y-142792538D01*
X178339047Y-142792538D02*
X178434285Y-142744919D01*
X179148571Y-142744919D02*
X179719999Y-142744919D01*
X179434285Y-143744919D02*
X179434285Y-142744919D01*
X180243809Y-142744919D02*
X180434285Y-142744919D01*
X180434285Y-142744919D02*
X180529523Y-142792538D01*
X180529523Y-142792538D02*
X180624761Y-142887776D01*
X180624761Y-142887776D02*
X180672380Y-143078252D01*
X180672380Y-143078252D02*
X180672380Y-143411585D01*
X180672380Y-143411585D02*
X180624761Y-143602061D01*
X180624761Y-143602061D02*
X180529523Y-143697300D01*
X180529523Y-143697300D02*
X180434285Y-143744919D01*
X180434285Y-143744919D02*
X180243809Y-143744919D01*
X180243809Y-143744919D02*
X180148571Y-143697300D01*
X180148571Y-143697300D02*
X180053333Y-143602061D01*
X180053333Y-143602061D02*
X180005714Y-143411585D01*
X180005714Y-143411585D02*
X180005714Y-143078252D01*
X180005714Y-143078252D02*
X180053333Y-142887776D01*
X180053333Y-142887776D02*
X180148571Y-142792538D01*
X180148571Y-142792538D02*
X180243809Y-142744919D01*
X181672380Y-143744919D02*
X181339047Y-143268728D01*
X181100952Y-143744919D02*
X181100952Y-142744919D01*
X181100952Y-142744919D02*
X181481904Y-142744919D01*
X181481904Y-142744919D02*
X181577142Y-142792538D01*
X181577142Y-142792538D02*
X181624761Y-142840157D01*
X181624761Y-142840157D02*
X181672380Y-142935395D01*
X181672380Y-142935395D02*
X181672380Y-143078252D01*
X181672380Y-143078252D02*
X181624761Y-143173490D01*
X181624761Y-143173490D02*
X181577142Y-143221109D01*
X181577142Y-143221109D02*
X181481904Y-143268728D01*
X181481904Y-143268728D02*
X181100952Y-143268728D01*
X183386666Y-143744919D02*
X182815238Y-143744919D01*
X183100952Y-143744919D02*
X183100952Y-142744919D01*
X183100952Y-142744919D02*
X183005714Y-142887776D01*
X183005714Y-142887776D02*
X182910476Y-142983014D01*
X182910476Y-142983014D02*
X182815238Y-143030633D01*
X166145080Y-103202455D02*
X166145080Y-103011979D01*
X166145080Y-103011979D02*
X166097461Y-102916741D01*
X166097461Y-102916741D02*
X166049842Y-102869122D01*
X166049842Y-102869122D02*
X165906985Y-102773884D01*
X165906985Y-102773884D02*
X165716509Y-102726265D01*
X165716509Y-102726265D02*
X165335557Y-102726265D01*
X165335557Y-102726265D02*
X165240319Y-102773884D01*
X165240319Y-102773884D02*
X165192700Y-102821503D01*
X165192700Y-102821503D02*
X165145080Y-102916741D01*
X165145080Y-102916741D02*
X165145080Y-103107217D01*
X165145080Y-103107217D02*
X165192700Y-103202455D01*
X165192700Y-103202455D02*
X165240319Y-103250074D01*
X165240319Y-103250074D02*
X165335557Y-103297693D01*
X165335557Y-103297693D02*
X165573652Y-103297693D01*
X165573652Y-103297693D02*
X165668890Y-103250074D01*
X165668890Y-103250074D02*
X165716509Y-103202455D01*
X165716509Y-103202455D02*
X165764128Y-103107217D01*
X165764128Y-103107217D02*
X165764128Y-102916741D01*
X165764128Y-102916741D02*
X165716509Y-102821503D01*
X165716509Y-102821503D02*
X165668890Y-102773884D01*
X165668890Y-102773884D02*
X165573652Y-102726265D01*
X179611027Y-118372419D02*
X179944360Y-119372419D01*
X179944360Y-119372419D02*
X180277693Y-118372419D01*
X180753884Y-119372419D02*
X180658646Y-119324800D01*
X180658646Y-119324800D02*
X180611027Y-119277180D01*
X180611027Y-119277180D02*
X180563408Y-119181942D01*
X180563408Y-119181942D02*
X180563408Y-118896228D01*
X180563408Y-118896228D02*
X180611027Y-118800990D01*
X180611027Y-118800990D02*
X180658646Y-118753371D01*
X180658646Y-118753371D02*
X180753884Y-118705752D01*
X180753884Y-118705752D02*
X180896741Y-118705752D01*
X180896741Y-118705752D02*
X180991979Y-118753371D01*
X180991979Y-118753371D02*
X181039598Y-118800990D01*
X181039598Y-118800990D02*
X181087217Y-118896228D01*
X181087217Y-118896228D02*
X181087217Y-119181942D01*
X181087217Y-119181942D02*
X181039598Y-119277180D01*
X181039598Y-119277180D02*
X180991979Y-119324800D01*
X180991979Y-119324800D02*
X180896741Y-119372419D01*
X180896741Y-119372419D02*
X180753884Y-119372419D01*
X181944360Y-118705752D02*
X181944360Y-119372419D01*
X181515789Y-118705752D02*
X181515789Y-119229561D01*
X181515789Y-119229561D02*
X181563408Y-119324800D01*
X181563408Y-119324800D02*
X181658646Y-119372419D01*
X181658646Y-119372419D02*
X181801503Y-119372419D01*
X181801503Y-119372419D02*
X181896741Y-119324800D01*
X181896741Y-119324800D02*
X181944360Y-119277180D01*
X182277694Y-118705752D02*
X182658646Y-118705752D01*
X182420551Y-118372419D02*
X182420551Y-119229561D01*
X182420551Y-119229561D02*
X182468170Y-119324800D01*
X182468170Y-119324800D02*
X182563408Y-119372419D01*
X182563408Y-119372419D02*
X182658646Y-119372419D01*
X188311027Y-99972419D02*
X188644360Y-100972419D01*
X188644360Y-100972419D02*
X188977693Y-99972419D01*
X189453884Y-100972419D02*
X189358646Y-100924800D01*
X189358646Y-100924800D02*
X189311027Y-100877180D01*
X189311027Y-100877180D02*
X189263408Y-100781942D01*
X189263408Y-100781942D02*
X189263408Y-100496228D01*
X189263408Y-100496228D02*
X189311027Y-100400990D01*
X189311027Y-100400990D02*
X189358646Y-100353371D01*
X189358646Y-100353371D02*
X189453884Y-100305752D01*
X189453884Y-100305752D02*
X189596741Y-100305752D01*
X189596741Y-100305752D02*
X189691979Y-100353371D01*
X189691979Y-100353371D02*
X189739598Y-100400990D01*
X189739598Y-100400990D02*
X189787217Y-100496228D01*
X189787217Y-100496228D02*
X189787217Y-100781942D01*
X189787217Y-100781942D02*
X189739598Y-100877180D01*
X189739598Y-100877180D02*
X189691979Y-100924800D01*
X189691979Y-100924800D02*
X189596741Y-100972419D01*
X189596741Y-100972419D02*
X189453884Y-100972419D01*
X190644360Y-100305752D02*
X190644360Y-100972419D01*
X190215789Y-100305752D02*
X190215789Y-100829561D01*
X190215789Y-100829561D02*
X190263408Y-100924800D01*
X190263408Y-100924800D02*
X190358646Y-100972419D01*
X190358646Y-100972419D02*
X190501503Y-100972419D01*
X190501503Y-100972419D02*
X190596741Y-100924800D01*
X190596741Y-100924800D02*
X190644360Y-100877180D01*
X190977694Y-100305752D02*
X191358646Y-100305752D01*
X191120551Y-99972419D02*
X191120551Y-100829561D01*
X191120551Y-100829561D02*
X191168170Y-100924800D01*
X191168170Y-100924800D02*
X191263408Y-100972419D01*
X191263408Y-100972419D02*
X191358646Y-100972419D01*
D13*
X180357142Y-88038152D02*
X180738094Y-88038152D01*
X180499999Y-88704819D02*
X180499999Y-87847676D01*
X180499999Y-87847676D02*
X180547618Y-87752438D01*
X180547618Y-87752438D02*
X180642856Y-87704819D01*
X180642856Y-87704819D02*
X180738094Y-87704819D01*
X181499999Y-88704819D02*
X181499999Y-88181009D01*
X181499999Y-88181009D02*
X181452380Y-88085771D01*
X181452380Y-88085771D02*
X181357142Y-88038152D01*
X181357142Y-88038152D02*
X181166666Y-88038152D01*
X181166666Y-88038152D02*
X181071428Y-88085771D01*
X181499999Y-88657200D02*
X181404761Y-88704819D01*
X181404761Y-88704819D02*
X181166666Y-88704819D01*
X181166666Y-88704819D02*
X181071428Y-88657200D01*
X181071428Y-88657200D02*
X181023809Y-88561961D01*
X181023809Y-88561961D02*
X181023809Y-88466723D01*
X181023809Y-88466723D02*
X181071428Y-88371485D01*
X181071428Y-88371485D02*
X181166666Y-88323866D01*
X181166666Y-88323866D02*
X181404761Y-88323866D01*
X181404761Y-88323866D02*
X181499999Y-88276247D01*
X182404761Y-88038152D02*
X182404761Y-88704819D01*
X181976190Y-88038152D02*
X181976190Y-88561961D01*
X181976190Y-88561961D02*
X182023809Y-88657200D01*
X182023809Y-88657200D02*
X182119047Y-88704819D01*
X182119047Y-88704819D02*
X182261904Y-88704819D01*
X182261904Y-88704819D02*
X182357142Y-88657200D01*
X182357142Y-88657200D02*
X182404761Y-88609580D01*
X183023809Y-88704819D02*
X182928571Y-88657200D01*
X182928571Y-88657200D02*
X182880952Y-88561961D01*
X182880952Y-88561961D02*
X182880952Y-87704819D01*
X183261905Y-88038152D02*
X183642857Y-88038152D01*
X183404762Y-87704819D02*
X183404762Y-88561961D01*
X183404762Y-88561961D02*
X183452381Y-88657200D01*
X183452381Y-88657200D02*
X183547619Y-88704819D01*
X183547619Y-88704819D02*
X183642857Y-88704819D01*
X177214819Y-118240476D02*
X177214819Y-118716666D01*
X177214819Y-118716666D02*
X177691009Y-118764285D01*
X177691009Y-118764285D02*
X177643390Y-118716666D01*
X177643390Y-118716666D02*
X177595771Y-118621428D01*
X177595771Y-118621428D02*
X177595771Y-118383333D01*
X177595771Y-118383333D02*
X177643390Y-118288095D01*
X177643390Y-118288095D02*
X177691009Y-118240476D01*
X177691009Y-118240476D02*
X177786247Y-118192857D01*
X177786247Y-118192857D02*
X178024342Y-118192857D01*
X178024342Y-118192857D02*
X178119580Y-118240476D01*
X178119580Y-118240476D02*
X178167200Y-118288095D01*
X178167200Y-118288095D02*
X178214819Y-118383333D01*
X178214819Y-118383333D02*
X178214819Y-118621428D01*
X178214819Y-118621428D02*
X178167200Y-118716666D01*
X178167200Y-118716666D02*
X178119580Y-118764285D01*
X177214819Y-117907142D02*
X178214819Y-117573809D01*
X178214819Y-117573809D02*
X177214819Y-117240476D01*
X181238095Y-97127438D02*
X181142857Y-97079819D01*
X181142857Y-97079819D02*
X181000000Y-97079819D01*
X181000000Y-97079819D02*
X180857143Y-97127438D01*
X180857143Y-97127438D02*
X180761905Y-97222676D01*
X180761905Y-97222676D02*
X180714286Y-97317914D01*
X180714286Y-97317914D02*
X180666667Y-97508390D01*
X180666667Y-97508390D02*
X180666667Y-97651247D01*
X180666667Y-97651247D02*
X180714286Y-97841723D01*
X180714286Y-97841723D02*
X180761905Y-97936961D01*
X180761905Y-97936961D02*
X180857143Y-98032200D01*
X180857143Y-98032200D02*
X181000000Y-98079819D01*
X181000000Y-98079819D02*
X181095238Y-98079819D01*
X181095238Y-98079819D02*
X181238095Y-98032200D01*
X181238095Y-98032200D02*
X181285714Y-97984580D01*
X181285714Y-97984580D02*
X181285714Y-97651247D01*
X181285714Y-97651247D02*
X181095238Y-97651247D01*
X181714286Y-98079819D02*
X181714286Y-97079819D01*
X181714286Y-97079819D02*
X182285714Y-98079819D01*
X182285714Y-98079819D02*
X182285714Y-97079819D01*
X182761905Y-98079819D02*
X182761905Y-97079819D01*
X182761905Y-97079819D02*
X183000000Y-97079819D01*
X183000000Y-97079819D02*
X183142857Y-97127438D01*
X183142857Y-97127438D02*
X183238095Y-97222676D01*
X183238095Y-97222676D02*
X183285714Y-97317914D01*
X183285714Y-97317914D02*
X183333333Y-97508390D01*
X183333333Y-97508390D02*
X183333333Y-97651247D01*
X183333333Y-97651247D02*
X183285714Y-97841723D01*
X183285714Y-97841723D02*
X183238095Y-97936961D01*
X183238095Y-97936961D02*
X183142857Y-98032200D01*
X183142857Y-98032200D02*
X183000000Y-98079819D01*
X183000000Y-98079819D02*
X182761905Y-98079819D01*
X177354819Y-101788094D02*
X177354819Y-101169047D01*
X177354819Y-101169047D02*
X177735771Y-101502380D01*
X177735771Y-101502380D02*
X177735771Y-101359523D01*
X177735771Y-101359523D02*
X177783390Y-101264285D01*
X177783390Y-101264285D02*
X177831009Y-101216666D01*
X177831009Y-101216666D02*
X177926247Y-101169047D01*
X177926247Y-101169047D02*
X178164342Y-101169047D01*
X178164342Y-101169047D02*
X178259580Y-101216666D01*
X178259580Y-101216666D02*
X178307200Y-101264285D01*
X178307200Y-101264285D02*
X178354819Y-101359523D01*
X178354819Y-101359523D02*
X178354819Y-101645237D01*
X178354819Y-101645237D02*
X178307200Y-101740475D01*
X178307200Y-101740475D02*
X178259580Y-101788094D01*
X177354819Y-100883332D02*
X178354819Y-100549999D01*
X178354819Y-100549999D02*
X177354819Y-100216666D01*
X177354819Y-99978570D02*
X177354819Y-99359523D01*
X177354819Y-99359523D02*
X177735771Y-99692856D01*
X177735771Y-99692856D02*
X177735771Y-99549999D01*
X177735771Y-99549999D02*
X177783390Y-99454761D01*
X177783390Y-99454761D02*
X177831009Y-99407142D01*
X177831009Y-99407142D02*
X177926247Y-99359523D01*
X177926247Y-99359523D02*
X178164342Y-99359523D01*
X178164342Y-99359523D02*
X178259580Y-99407142D01*
X178259580Y-99407142D02*
X178307200Y-99454761D01*
X178307200Y-99454761D02*
X178354819Y-99549999D01*
X178354819Y-99549999D02*
X178354819Y-99835713D01*
X178354819Y-99835713D02*
X178307200Y-99930951D01*
X178307200Y-99930951D02*
X178259580Y-99978570D01*
X190138095Y-54704819D02*
X190138095Y-55514342D01*
X190138095Y-55514342D02*
X190185714Y-55609580D01*
X190185714Y-55609580D02*
X190233333Y-55657200D01*
X190233333Y-55657200D02*
X190328571Y-55704819D01*
X190328571Y-55704819D02*
X190519047Y-55704819D01*
X190519047Y-55704819D02*
X190614285Y-55657200D01*
X190614285Y-55657200D02*
X190661904Y-55609580D01*
X190661904Y-55609580D02*
X190709523Y-55514342D01*
X190709523Y-55514342D02*
X190709523Y-54704819D01*
X191709523Y-55704819D02*
X191138095Y-55704819D01*
X191423809Y-55704819D02*
X191423809Y-54704819D01*
X191423809Y-54704819D02*
X191328571Y-54847676D01*
X191328571Y-54847676D02*
X191233333Y-54942914D01*
X191233333Y-54942914D02*
X191138095Y-54990533D01*
X186138094Y-59719104D02*
X186614284Y-59719104D01*
X186042856Y-60004819D02*
X186376189Y-59004819D01*
X186376189Y-59004819D02*
X186709522Y-60004819D01*
X187042856Y-59338152D02*
X187042856Y-60004819D01*
X187042856Y-59433390D02*
X187090475Y-59385771D01*
X187090475Y-59385771D02*
X187185713Y-59338152D01*
X187185713Y-59338152D02*
X187328570Y-59338152D01*
X187328570Y-59338152D02*
X187423808Y-59385771D01*
X187423808Y-59385771D02*
X187471427Y-59481009D01*
X187471427Y-59481009D02*
X187471427Y-60004819D01*
X187804761Y-59338152D02*
X188185713Y-59338152D01*
X187947618Y-59004819D02*
X187947618Y-59861961D01*
X187947618Y-59861961D02*
X187995237Y-59957200D01*
X187995237Y-59957200D02*
X188090475Y-60004819D01*
X188090475Y-60004819D02*
X188185713Y-60004819D01*
X188899999Y-59957200D02*
X188804761Y-60004819D01*
X188804761Y-60004819D02*
X188614285Y-60004819D01*
X188614285Y-60004819D02*
X188519047Y-59957200D01*
X188519047Y-59957200D02*
X188471428Y-59861961D01*
X188471428Y-59861961D02*
X188471428Y-59481009D01*
X188471428Y-59481009D02*
X188519047Y-59385771D01*
X188519047Y-59385771D02*
X188614285Y-59338152D01*
X188614285Y-59338152D02*
X188804761Y-59338152D01*
X188804761Y-59338152D02*
X188899999Y-59385771D01*
X188899999Y-59385771D02*
X188947618Y-59481009D01*
X188947618Y-59481009D02*
X188947618Y-59576247D01*
X188947618Y-59576247D02*
X188471428Y-59671485D01*
X189376190Y-59338152D02*
X189376190Y-60004819D01*
X189376190Y-59433390D02*
X189423809Y-59385771D01*
X189423809Y-59385771D02*
X189519047Y-59338152D01*
X189519047Y-59338152D02*
X189661904Y-59338152D01*
X189661904Y-59338152D02*
X189757142Y-59385771D01*
X189757142Y-59385771D02*
X189804761Y-59481009D01*
X189804761Y-59481009D02*
X189804761Y-60004819D01*
X190280952Y-59338152D02*
X190280952Y-60004819D01*
X190280952Y-59433390D02*
X190328571Y-59385771D01*
X190328571Y-59385771D02*
X190423809Y-59338152D01*
X190423809Y-59338152D02*
X190566666Y-59338152D01*
X190566666Y-59338152D02*
X190661904Y-59385771D01*
X190661904Y-59385771D02*
X190709523Y-59481009D01*
X190709523Y-59481009D02*
X190709523Y-60004819D01*
X191614285Y-60004819D02*
X191614285Y-59481009D01*
X191614285Y-59481009D02*
X191566666Y-59385771D01*
X191566666Y-59385771D02*
X191471428Y-59338152D01*
X191471428Y-59338152D02*
X191280952Y-59338152D01*
X191280952Y-59338152D02*
X191185714Y-59385771D01*
X191614285Y-59957200D02*
X191519047Y-60004819D01*
X191519047Y-60004819D02*
X191280952Y-60004819D01*
X191280952Y-60004819D02*
X191185714Y-59957200D01*
X191185714Y-59957200D02*
X191138095Y-59861961D01*
X191138095Y-59861961D02*
X191138095Y-59766723D01*
X191138095Y-59766723D02*
X191185714Y-59671485D01*
X191185714Y-59671485D02*
X191280952Y-59623866D01*
X191280952Y-59623866D02*
X191519047Y-59623866D01*
X191519047Y-59623866D02*
X191614285Y-59576247D01*
X192804762Y-59719104D02*
X193280952Y-59719104D01*
X192709524Y-60004819D02*
X193042857Y-59004819D01*
X193042857Y-59004819D02*
X193376190Y-60004819D01*
X193709524Y-60004819D02*
X193709524Y-59338152D01*
X193709524Y-59528628D02*
X193757143Y-59433390D01*
X193757143Y-59433390D02*
X193804762Y-59385771D01*
X193804762Y-59385771D02*
X193900000Y-59338152D01*
X193900000Y-59338152D02*
X193995238Y-59338152D01*
X194709524Y-59957200D02*
X194614286Y-60004819D01*
X194614286Y-60004819D02*
X194423810Y-60004819D01*
X194423810Y-60004819D02*
X194328572Y-59957200D01*
X194328572Y-59957200D02*
X194280953Y-59861961D01*
X194280953Y-59861961D02*
X194280953Y-59481009D01*
X194280953Y-59481009D02*
X194328572Y-59385771D01*
X194328572Y-59385771D02*
X194423810Y-59338152D01*
X194423810Y-59338152D02*
X194614286Y-59338152D01*
X194614286Y-59338152D02*
X194709524Y-59385771D01*
X194709524Y-59385771D02*
X194757143Y-59481009D01*
X194757143Y-59481009D02*
X194757143Y-59576247D01*
X194757143Y-59576247D02*
X194280953Y-59671485D01*
X195614286Y-60004819D02*
X195614286Y-59481009D01*
X195614286Y-59481009D02*
X195566667Y-59385771D01*
X195566667Y-59385771D02*
X195471429Y-59338152D01*
X195471429Y-59338152D02*
X195280953Y-59338152D01*
X195280953Y-59338152D02*
X195185715Y-59385771D01*
X195614286Y-59957200D02*
X195519048Y-60004819D01*
X195519048Y-60004819D02*
X195280953Y-60004819D01*
X195280953Y-60004819D02*
X195185715Y-59957200D01*
X195185715Y-59957200D02*
X195138096Y-59861961D01*
X195138096Y-59861961D02*
X195138096Y-59766723D01*
X195138096Y-59766723D02*
X195185715Y-59671485D01*
X195185715Y-59671485D02*
X195280953Y-59623866D01*
X195280953Y-59623866D02*
X195519048Y-59623866D01*
X195519048Y-59623866D02*
X195614286Y-59576247D01*
X166947200Y-75823332D02*
X166994819Y-75680475D01*
X166994819Y-75680475D02*
X166994819Y-75442380D01*
X166994819Y-75442380D02*
X166947200Y-75347142D01*
X166947200Y-75347142D02*
X166899580Y-75299523D01*
X166899580Y-75299523D02*
X166804342Y-75251904D01*
X166804342Y-75251904D02*
X166709104Y-75251904D01*
X166709104Y-75251904D02*
X166613866Y-75299523D01*
X166613866Y-75299523D02*
X166566247Y-75347142D01*
X166566247Y-75347142D02*
X166518628Y-75442380D01*
X166518628Y-75442380D02*
X166471009Y-75632856D01*
X166471009Y-75632856D02*
X166423390Y-75728094D01*
X166423390Y-75728094D02*
X166375771Y-75775713D01*
X166375771Y-75775713D02*
X166280533Y-75823332D01*
X166280533Y-75823332D02*
X166185295Y-75823332D01*
X166185295Y-75823332D02*
X166090057Y-75775713D01*
X166090057Y-75775713D02*
X166042438Y-75728094D01*
X166042438Y-75728094D02*
X165994819Y-75632856D01*
X165994819Y-75632856D02*
X165994819Y-75394761D01*
X165994819Y-75394761D02*
X166042438Y-75251904D01*
X165994819Y-74918570D02*
X166994819Y-74680475D01*
X166994819Y-74680475D02*
X166280533Y-74489999D01*
X166280533Y-74489999D02*
X166994819Y-74299523D01*
X166994819Y-74299523D02*
X165994819Y-74061428D01*
X166994819Y-73156666D02*
X166994819Y-73728094D01*
X166994819Y-73442380D02*
X165994819Y-73442380D01*
X165994819Y-73442380D02*
X166137676Y-73537618D01*
X166137676Y-73537618D02*
X166232914Y-73632856D01*
X166232914Y-73632856D02*
X166280533Y-73728094D01*
X170339580Y-80942857D02*
X170387200Y-80990476D01*
X170387200Y-80990476D02*
X170434819Y-81133333D01*
X170434819Y-81133333D02*
X170434819Y-81228571D01*
X170434819Y-81228571D02*
X170387200Y-81371428D01*
X170387200Y-81371428D02*
X170291961Y-81466666D01*
X170291961Y-81466666D02*
X170196723Y-81514285D01*
X170196723Y-81514285D02*
X170006247Y-81561904D01*
X170006247Y-81561904D02*
X169863390Y-81561904D01*
X169863390Y-81561904D02*
X169672914Y-81514285D01*
X169672914Y-81514285D02*
X169577676Y-81466666D01*
X169577676Y-81466666D02*
X169482438Y-81371428D01*
X169482438Y-81371428D02*
X169434819Y-81228571D01*
X169434819Y-81228571D02*
X169434819Y-81133333D01*
X169434819Y-81133333D02*
X169482438Y-80990476D01*
X169482438Y-80990476D02*
X169530057Y-80942857D01*
X170434819Y-79990476D02*
X170434819Y-80561904D01*
X170434819Y-80276190D02*
X169434819Y-80276190D01*
X169434819Y-80276190D02*
X169577676Y-80371428D01*
X169577676Y-80371428D02*
X169672914Y-80466666D01*
X169672914Y-80466666D02*
X169720533Y-80561904D01*
X169434819Y-79371428D02*
X169434819Y-79276190D01*
X169434819Y-79276190D02*
X169482438Y-79180952D01*
X169482438Y-79180952D02*
X169530057Y-79133333D01*
X169530057Y-79133333D02*
X169625295Y-79085714D01*
X169625295Y-79085714D02*
X169815771Y-79038095D01*
X169815771Y-79038095D02*
X170053866Y-79038095D01*
X170053866Y-79038095D02*
X170244342Y-79085714D01*
X170244342Y-79085714D02*
X170339580Y-79133333D01*
X170339580Y-79133333D02*
X170387200Y-79180952D01*
X170387200Y-79180952D02*
X170434819Y-79276190D01*
X170434819Y-79276190D02*
X170434819Y-79371428D01*
X170434819Y-79371428D02*
X170387200Y-79466666D01*
X170387200Y-79466666D02*
X170339580Y-79514285D01*
X170339580Y-79514285D02*
X170244342Y-79561904D01*
X170244342Y-79561904D02*
X170053866Y-79609523D01*
X170053866Y-79609523D02*
X169815771Y-79609523D01*
X169815771Y-79609523D02*
X169625295Y-79561904D01*
X169625295Y-79561904D02*
X169530057Y-79514285D01*
X169530057Y-79514285D02*
X169482438Y-79466666D01*
X169482438Y-79466666D02*
X169434819Y-79371428D01*
D15*
X189022500Y-109937742D02*
X189022500Y-110412258D01*
X187977500Y-109937742D02*
X187977500Y-110412258D01*
X179450000Y-112415000D02*
X179450000Y-117785000D01*
X179450000Y-112415000D02*
X180800000Y-112415000D01*
X179450000Y-117785000D02*
X180800000Y-117785000D01*
X185170000Y-112415000D02*
X183820000Y-112415000D01*
X185170000Y-112415000D02*
X185170000Y-117785000D01*
X185170000Y-117785000D02*
X183820000Y-117785000D01*
X183200000Y-86200000D02*
G75*
G02*
X180800000Y-86200000I-1200000J0D01*
G01*
X180800000Y-86200000D02*
G75*
G02*
X183200000Y-86200000I1200000J0D01*
G01*
X193830000Y-90020000D02*
X201870000Y-90020000D01*
X193830000Y-120760000D02*
X193830000Y-90020000D01*
X193830000Y-120760000D02*
X201870000Y-120760000D01*
X196464000Y-91393000D02*
X196507000Y-91436000D01*
X196464000Y-96393000D02*
X196507000Y-96436000D01*
X196464000Y-101393000D02*
X196507000Y-101436000D01*
X196464000Y-106393000D02*
X196507000Y-106436000D01*
X196464000Y-111393000D02*
X196507000Y-111436000D01*
X196703000Y-91153000D02*
X196746000Y-91196000D01*
X196703000Y-96153000D02*
X196746000Y-96196000D01*
X196703000Y-101153000D02*
X196746000Y-101196000D01*
X196703000Y-106153000D02*
X196746000Y-106196000D01*
X196703000Y-111153000D02*
X196746000Y-111196000D01*
X197450000Y-90828000D02*
X197450000Y-90020000D01*
X197450000Y-95828000D02*
X197450000Y-94452000D01*
X197450000Y-100828000D02*
X197450000Y-99452000D01*
X197450000Y-105828000D02*
X197450000Y-104452000D01*
X197450000Y-110828000D02*
X197450000Y-109452000D01*
X197450000Y-115760000D02*
X197450000Y-114452000D01*
X197450000Y-120760000D02*
X197450000Y-119520000D01*
X198450000Y-90828000D02*
X198450000Y-90020000D01*
X198450000Y-95828000D02*
X198450000Y-94452000D01*
X198450000Y-100828000D02*
X198450000Y-99452000D01*
X198450000Y-105828000D02*
X198450000Y-104452000D01*
X198450000Y-110828000D02*
X198450000Y-109452000D01*
X198450000Y-115760000D02*
X198450000Y-114452000D01*
X198450000Y-120760000D02*
X198450000Y-119520000D01*
X199154000Y-94084000D02*
X199197000Y-94127000D01*
X199154000Y-99084000D02*
X199197000Y-99127000D01*
X199154000Y-104084000D02*
X199197000Y-104127000D01*
X199154000Y-109084000D02*
X199197000Y-109127000D01*
X199154000Y-114084000D02*
X199197000Y-114127000D01*
X199393000Y-93845000D02*
X199436000Y-93888000D01*
X199393000Y-98845000D02*
X199436000Y-98888000D01*
X199393000Y-103845000D02*
X199436000Y-103888000D01*
X199393000Y-108845000D02*
X199436000Y-108888000D01*
X199393000Y-113845000D02*
X199436000Y-113888000D01*
X199750000Y-92097000D02*
X199750000Y-90020000D01*
X199750000Y-97097000D02*
X199750000Y-93183000D01*
X199750000Y-102097000D02*
X199750000Y-98183000D01*
X199750000Y-107097000D02*
X199750000Y-103183000D01*
X199750000Y-112097000D02*
X199750000Y-108183000D01*
X199750000Y-115760000D02*
X199750000Y-113183000D01*
X199750000Y-120760000D02*
X199750000Y-119520000D01*
X201870000Y-117340000D02*
X201870000Y-90020000D01*
X201870000Y-120760000D02*
X201870000Y-117940000D01*
X196070000Y-118194000D02*
G75*
G02*
X196070139Y-117085528I1880000J554000D01*
G01*
X197396000Y-115760000D02*
G75*
G02*
X198504472Y-115760139I554000J-1880000D01*
G01*
X198504000Y-119520000D02*
G75*
G02*
X197395528Y-119519861I-554000J1879990D01*
G01*
X199830000Y-117086000D02*
G75*
G02*
X199829861Y-118194472I-1879990J-554000D01*
G01*
X199910000Y-92640000D02*
G75*
G02*
X195990000Y-92640000I-1960000J0D01*
G01*
X195990000Y-92640000D02*
G75*
G02*
X199910000Y-92640000I1960000J0D01*
G01*
X199910000Y-97640000D02*
G75*
G02*
X195990000Y-97640000I-1960000J0D01*
G01*
X195990000Y-97640000D02*
G75*
G02*
X199910000Y-97640000I1960000J0D01*
G01*
X199910000Y-102640000D02*
G75*
G02*
X195990000Y-102640000I-1960000J0D01*
G01*
X195990000Y-102640000D02*
G75*
G02*
X199910000Y-102640000I1960000J0D01*
G01*
X199910000Y-107640000D02*
G75*
G02*
X195990000Y-107640000I-1960000J0D01*
G01*
X195990000Y-107640000D02*
G75*
G02*
X199910000Y-107640000I1960000J0D01*
G01*
X199910000Y-112640000D02*
G75*
G02*
X195990000Y-112640000I-1960000J0D01*
G01*
X195990000Y-112640000D02*
G75*
G02*
X199910000Y-112640000I1960000J0D01*
G01*
X202480000Y-118080000D02*
X201870000Y-117640000D01*
X202480000Y-117200000D01*
X202480000Y-118080000D01*
G36*
X202480000Y-118080000D02*
G01*
X201870000Y-117640000D01*
X202480000Y-117200000D01*
X202480000Y-118080000D01*
G37*
X167030000Y-121920000D02*
X167030000Y-124740000D01*
X167030000Y-125340000D02*
X167030000Y-132660000D01*
X169150000Y-121920000D02*
X169150000Y-123160000D01*
X169150000Y-126920000D02*
X169150000Y-129497000D01*
X169150000Y-130583000D02*
X169150000Y-132660000D01*
X169507000Y-128835000D02*
X169464000Y-128792000D01*
X169746000Y-128596000D02*
X169703000Y-128553000D01*
X170450000Y-121920000D02*
X170450000Y-123160000D01*
X170450000Y-126920000D02*
X170450000Y-128228000D01*
X170450000Y-131852000D02*
X170450000Y-132660000D01*
X171450000Y-121920000D02*
X171450000Y-123160000D01*
X171450000Y-126920000D02*
X171450000Y-128228000D01*
X171450000Y-131852000D02*
X171450000Y-132660000D01*
X172197000Y-131527000D02*
X172154000Y-131484000D01*
X172436000Y-131287000D02*
X172393000Y-131244000D01*
X175070000Y-121920000D02*
X167030000Y-121920000D01*
X175070000Y-121920000D02*
X175070000Y-132660000D01*
X175070000Y-132660000D02*
X167030000Y-132660000D01*
X169070000Y-125594000D02*
G75*
G02*
X169070139Y-124485528I1879990J554000D01*
G01*
X170396000Y-123160000D02*
G75*
G02*
X171504472Y-123160139I554000J-1879990D01*
G01*
X171504000Y-126920000D02*
G75*
G02*
X170395528Y-126919861I-554000J1880000D01*
G01*
X172830000Y-124486000D02*
G75*
G02*
X172829861Y-125594472I-1880000J-554000D01*
G01*
X172910000Y-130040000D02*
G75*
G02*
X168990000Y-130040000I-1960000J0D01*
G01*
X168990000Y-130040000D02*
G75*
G02*
X172910000Y-130040000I1960000J0D01*
G01*
X167030000Y-125040000D02*
X166420000Y-125480000D01*
X166420000Y-124600000D01*
X167030000Y-125040000D01*
G36*
X167030000Y-125040000D02*
G01*
X166420000Y-125480000D01*
X166420000Y-124600000D01*
X167030000Y-125040000D01*
G37*
X167570000Y-61660000D02*
X176730000Y-61660000D01*
X167570000Y-63365000D02*
X167570000Y-61660000D01*
X167570000Y-65375000D02*
X167570000Y-67295000D01*
X176730000Y-61660000D02*
X176730000Y-63365000D01*
X176730000Y-67295000D02*
X176730000Y-65375000D01*
D13*
X185397500Y-93542500D02*
X185397500Y-89042500D01*
X190847500Y-93542500D02*
X190847500Y-89042500D01*
D15*
X186087500Y-95172500D02*
X185607500Y-95172500D01*
X185847500Y-94842500D01*
X186087500Y-95172500D01*
G36*
X186087500Y-95172500D02*
G01*
X185607500Y-95172500D01*
X185847500Y-94842500D01*
X186087500Y-95172500D01*
G37*
X183787258Y-89377500D02*
X183312742Y-89377500D01*
X183787258Y-90422500D02*
X183312742Y-90422500D01*
X191777500Y-113725242D02*
X191777500Y-114199758D01*
X192822500Y-113725242D02*
X192822500Y-114199758D01*
X183750000Y-100190000D02*
X187510000Y-100190000D01*
X183750000Y-107010000D02*
X187510000Y-107010000D01*
X187510000Y-100190000D02*
X187510000Y-101450000D01*
X187510000Y-107010000D02*
X187510000Y-105750000D01*
X182470000Y-100290000D02*
X182230000Y-99960000D01*
X182710000Y-99960000D01*
X182470000Y-100290000D01*
G36*
X182470000Y-100290000D02*
G01*
X182230000Y-99960000D01*
X182710000Y-99960000D01*
X182470000Y-100290000D01*
G37*
X172970000Y-80086359D02*
X172970000Y-80393641D01*
X173730000Y-80086359D02*
X173730000Y-80393641D01*
X200680000Y-77597500D02*
X200680000Y-75297500D01*
X203580000Y-77597500D02*
X200680000Y-77597500D01*
X203580000Y-77597500D02*
X203880000Y-77297500D01*
X203880000Y-75297500D02*
X200680000Y-75297500D01*
X203880000Y-75297500D02*
X203880000Y-77297500D01*
X186638748Y-114015000D02*
X187161252Y-114015000D01*
X186638748Y-115485000D02*
X187161252Y-115485000D01*
X189745436Y-95990000D02*
X191199564Y-95990000D01*
X189745436Y-97810000D02*
X191199564Y-97810000D01*
X200680000Y-82797500D02*
X200680000Y-80497500D01*
X203580000Y-82797500D02*
X200680000Y-82797500D01*
X203580000Y-82797500D02*
X203880000Y-82497500D01*
X203880000Y-80497500D02*
X200680000Y-80497500D01*
X203880000Y-80497500D02*
X203880000Y-82497500D01*
X186494564Y-95990000D02*
X185040436Y-95990000D01*
X186494564Y-97810000D02*
X185040436Y-97810000D01*
X178960000Y-115200000D02*
G75*
G02*
X176560000Y-115200000I-1200000J0D01*
G01*
X176560000Y-115200000D02*
G75*
G02*
X178960000Y-115200000I1200000J0D01*
G01*
X185020000Y-133950000D02*
X185020000Y-141990000D01*
X185020000Y-133950000D02*
X195760000Y-133950000D01*
X185020000Y-137570000D02*
X186260000Y-137570000D01*
X185020000Y-138570000D02*
X186260000Y-138570000D01*
X185020000Y-139870000D02*
X186260000Y-139870000D01*
X185020000Y-141990000D02*
X187840000Y-141990000D01*
X188440000Y-141990000D02*
X195760000Y-141990000D01*
X190020000Y-137570000D02*
X191328000Y-137570000D01*
X190020000Y-138570000D02*
X191328000Y-138570000D01*
X190020000Y-139870000D02*
X192597000Y-139870000D01*
X191696000Y-139274000D02*
X191653000Y-139317000D01*
X191935000Y-139513000D02*
X191892000Y-139556000D01*
X193683000Y-139870000D02*
X195760000Y-139870000D01*
X194387000Y-136584000D02*
X194344000Y-136627000D01*
X194627000Y-136823000D02*
X194584000Y-136866000D01*
X194952000Y-137570000D02*
X195760000Y-137570000D01*
X194952000Y-138570000D02*
X195760000Y-138570000D01*
X195760000Y-133950000D02*
X195760000Y-141990000D01*
X186260000Y-138624000D02*
G75*
G02*
X186260139Y-137515528I1879990J554000D01*
G01*
X187586000Y-136190000D02*
G75*
G02*
X188694472Y-136190139I554000J-1880000D01*
G01*
X188694000Y-139950000D02*
G75*
G02*
X187585528Y-139949861I-554000J1879990D01*
G01*
X190020000Y-137516000D02*
G75*
G02*
X190019861Y-138624472I-1880000J-554000D01*
G01*
X195100000Y-138070000D02*
G75*
G02*
X191180000Y-138070000I-1960000J0D01*
G01*
X191180000Y-138070000D02*
G75*
G02*
X195100000Y-138070000I1960000J0D01*
G01*
X188580000Y-142600000D02*
X187700000Y-142600000D01*
X188140000Y-141990000D01*
X188580000Y-142600000D01*
G36*
X188580000Y-142600000D02*
G01*
X187700000Y-142600000D01*
X188140000Y-141990000D01*
X188580000Y-142600000D01*
G37*
X183200000Y-95575000D02*
G75*
G02*
X180800000Y-95575000I-1200000J0D01*
G01*
X180800000Y-95575000D02*
G75*
G02*
X183200000Y-95575000I1200000J0D01*
G01*
X186467500Y-111665000D02*
X185867500Y-111665000D01*
X186467500Y-111665000D02*
X187067500Y-111665000D01*
X186467500Y-113535000D02*
X185867500Y-113535000D01*
X186467500Y-113535000D02*
X187067500Y-113535000D01*
X185157500Y-112100000D02*
X184827500Y-112340000D01*
X184827500Y-111860000D01*
X185157500Y-112100000D01*
G36*
X185157500Y-112100000D02*
G01*
X184827500Y-112340000D01*
X184827500Y-111860000D01*
X185157500Y-112100000D01*
G37*
X179060000Y-103600000D02*
G75*
G02*
X176660000Y-103600000I-1200000J0D01*
G01*
X176660000Y-103600000D02*
G75*
G02*
X179060000Y-103600000I1200000J0D01*
G01*
X180947836Y-108740000D02*
X180732164Y-108740000D01*
X180947836Y-109460000D02*
X180732164Y-109460000D01*
X185788748Y-108115000D02*
X186311252Y-108115000D01*
X185788748Y-109585000D02*
X186311252Y-109585000D01*
X186084420Y-85490000D02*
X186365580Y-85490000D01*
X186084420Y-86510000D02*
X186365580Y-86510000D01*
X189477500Y-110412258D02*
X189477500Y-109937742D01*
X190522500Y-110412258D02*
X190522500Y-109937742D01*
X186638748Y-116015000D02*
X187161252Y-116015000D01*
X186638748Y-117485000D02*
X187161252Y-117485000D01*
X183312742Y-90877500D02*
X183787258Y-90877500D01*
X183312742Y-91922500D02*
X183787258Y-91922500D01*
X180731252Y-109865000D02*
X180208748Y-109865000D01*
X180731252Y-111335000D02*
X180208748Y-111335000D01*
X191777500Y-110100242D02*
X191777500Y-110574758D01*
X192822500Y-110100242D02*
X192822500Y-110574758D01*
X173250000Y-133950000D02*
X173250000Y-141990000D01*
X173250000Y-133950000D02*
X183990000Y-133950000D01*
X173250000Y-137570000D02*
X174490000Y-137570000D01*
X173250000Y-138570000D02*
X174490000Y-138570000D01*
X173250000Y-139870000D02*
X174490000Y-139870000D01*
X173250000Y-141990000D02*
X176070000Y-141990000D01*
X176670000Y-141990000D02*
X183990000Y-141990000D01*
X178250000Y-137570000D02*
X179558000Y-137570000D01*
X178250000Y-138570000D02*
X179558000Y-138570000D01*
X178250000Y-139870000D02*
X180827000Y-139870000D01*
X179926000Y-139274000D02*
X179883000Y-139317000D01*
X180165000Y-139513000D02*
X180122000Y-139556000D01*
X181913000Y-139870000D02*
X183990000Y-139870000D01*
X182617000Y-136584000D02*
X182574000Y-136627000D01*
X182857000Y-136823000D02*
X182814000Y-136866000D01*
X183182000Y-137570000D02*
X183990000Y-137570000D01*
X183182000Y-138570000D02*
X183990000Y-138570000D01*
X183990000Y-133950000D02*
X183990000Y-141990000D01*
X174490000Y-138624000D02*
G75*
G02*
X174490139Y-137515528I1879990J554000D01*
G01*
X175816000Y-136190000D02*
G75*
G02*
X176924472Y-136190139I554000J-1880000D01*
G01*
X176924000Y-139950000D02*
G75*
G02*
X175815528Y-139949861I-554000J1879990D01*
G01*
X178250000Y-137516000D02*
G75*
G02*
X178249861Y-138624472I-1880000J-554000D01*
G01*
X183330000Y-138070000D02*
G75*
G02*
X179410000Y-138070000I-1960000J0D01*
G01*
X179410000Y-138070000D02*
G75*
G02*
X183330000Y-138070000I1960000J0D01*
G01*
X176810000Y-142600000D02*
X175930000Y-142600000D01*
X176370000Y-141990000D01*
X176810000Y-142600000D01*
G36*
X176810000Y-142600000D02*
G01*
X175930000Y-142600000D01*
X176370000Y-141990000D01*
X176810000Y-142600000D01*
G37*
X200840000Y-69675000D02*
X200840000Y-72360000D01*
X200840000Y-72360000D02*
X202760000Y-72360000D01*
X202760000Y-72360000D02*
X202760000Y-69675000D01*
X189661252Y-85025000D02*
X189138748Y-85025000D01*
X189661252Y-86495000D02*
X189138748Y-86495000D01*
X190872164Y-101590000D02*
X191087836Y-101590000D01*
X190872164Y-102310000D02*
X191087836Y-102310000D01*
X200680000Y-80197500D02*
X200680000Y-77897500D01*
X203580000Y-80197500D02*
X200680000Y-80197500D01*
X203580000Y-80197500D02*
X203880000Y-79897500D01*
X203880000Y-77897500D02*
X200680000Y-77897500D01*
X203880000Y-77897500D02*
X203880000Y-79897500D01*
X170570000Y-80086359D02*
X170570000Y-80393641D01*
X171330000Y-80086359D02*
X171330000Y-80393641D01*
X200680000Y-74997500D02*
X200680000Y-72697500D01*
X203580000Y-74997500D02*
X200680000Y-74997500D01*
X203580000Y-74997500D02*
X203880000Y-74697500D01*
X203880000Y-72697500D02*
X200680000Y-72697500D01*
X203880000Y-72697500D02*
X203880000Y-74697500D01*
X181900000Y-56550000D02*
X181900000Y-63300000D01*
X181900000Y-56550000D02*
X199900000Y-56550000D01*
X181900000Y-81300000D02*
X181900000Y-82050000D01*
X181900000Y-82050000D02*
X182900000Y-82050000D01*
X199900000Y-56550000D02*
X199900000Y-63300000D01*
X199900000Y-62490000D02*
X181900000Y-62490000D01*
X199900000Y-81300000D02*
X199900000Y-82050000D01*
X199900000Y-82050000D02*
X198900000Y-82050000D01*
X167030000Y-89920000D02*
X167030000Y-92740000D01*
X167030000Y-93340000D02*
X167030000Y-120660000D01*
X169150000Y-89920000D02*
X169150000Y-91160000D01*
X169150000Y-94920000D02*
X169150000Y-97497000D01*
X169150000Y-98583000D02*
X169150000Y-102497000D01*
X169150000Y-103583000D02*
X169150000Y-107497000D01*
X169150000Y-108583000D02*
X169150000Y-112497000D01*
X169150000Y-113583000D02*
X169150000Y-117497000D01*
X169150000Y-118583000D02*
X169150000Y-120660000D01*
X169507000Y-96835000D02*
X169464000Y-96792000D01*
X169507000Y-101835000D02*
X169464000Y-101792000D01*
X169507000Y-106835000D02*
X169464000Y-106792000D01*
X169507000Y-111835000D02*
X169464000Y-111792000D01*
X169507000Y-116835000D02*
X169464000Y-116792000D01*
X169746000Y-96596000D02*
X169703000Y-96553000D01*
X169746000Y-101596000D02*
X169703000Y-101553000D01*
X169746000Y-106596000D02*
X169703000Y-106553000D01*
X169746000Y-111596000D02*
X169703000Y-111553000D01*
X169746000Y-116596000D02*
X169703000Y-116553000D01*
X170450000Y-89920000D02*
X170450000Y-91160000D01*
X170450000Y-94920000D02*
X170450000Y-96228000D01*
X170450000Y-99852000D02*
X170450000Y-101228000D01*
X170450000Y-104852000D02*
X170450000Y-106228000D01*
X170450000Y-109852000D02*
X170450000Y-111228000D01*
X170450000Y-114852000D02*
X170450000Y-116228000D01*
X170450000Y-119852000D02*
X170450000Y-120660000D01*
X171450000Y-89920000D02*
X171450000Y-91160000D01*
X171450000Y-94920000D02*
X171450000Y-96228000D01*
X171450000Y-99852000D02*
X171450000Y-101228000D01*
X171450000Y-104852000D02*
X171450000Y-106228000D01*
X171450000Y-109852000D02*
X171450000Y-111228000D01*
X171450000Y-114852000D02*
X171450000Y-116228000D01*
X171450000Y-119852000D02*
X171450000Y-120660000D01*
X172197000Y-99527000D02*
X172154000Y-99484000D01*
X172197000Y-104527000D02*
X172154000Y-104484000D01*
X172197000Y-109527000D02*
X172154000Y-109484000D01*
X172197000Y-114527000D02*
X172154000Y-114484000D01*
X172197000Y-119527000D02*
X172154000Y-119484000D01*
X172436000Y-99287000D02*
X172393000Y-99244000D01*
X172436000Y-104287000D02*
X172393000Y-104244000D01*
X172436000Y-109287000D02*
X172393000Y-109244000D01*
X172436000Y-114287000D02*
X172393000Y-114244000D01*
X172436000Y-119287000D02*
X172393000Y-119244000D01*
X175070000Y-89920000D02*
X167030000Y-89920000D01*
X175070000Y-89920000D02*
X175070000Y-120660000D01*
X175070000Y-120660000D02*
X167030000Y-120660000D01*
X169070000Y-93594000D02*
G75*
G02*
X169070139Y-92485528I1879990J554000D01*
G01*
X170396000Y-91160000D02*
G75*
G02*
X171504472Y-91160139I554000J-1879990D01*
G01*
X171504000Y-94920000D02*
G75*
G02*
X170395528Y-94919861I-554000J1880000D01*
G01*
X172830000Y-92486000D02*
G75*
G02*
X172829861Y-93594472I-1880000J-554000D01*
G01*
X172910000Y-98040000D02*
G75*
G02*
X168990000Y-98040000I-1960000J0D01*
G01*
X168990000Y-98040000D02*
G75*
G02*
X172910000Y-98040000I1960000J0D01*
G01*
X172910000Y-103040000D02*
G75*
G02*
X168990000Y-103040000I-1960000J0D01*
G01*
X168990000Y-103040000D02*
G75*
G02*
X172910000Y-103040000I1960000J0D01*
G01*
X172910000Y-108040000D02*
G75*
G02*
X168990000Y-108040000I-1960000J0D01*
G01*
X168990000Y-108040000D02*
G75*
G02*
X172910000Y-108040000I1960000J0D01*
G01*
X172910000Y-113040000D02*
G75*
G02*
X168990000Y-113040000I-1960000J0D01*
G01*
X168990000Y-113040000D02*
G75*
G02*
X172910000Y-113040000I1960000J0D01*
G01*
X172910000Y-118040000D02*
G75*
G02*
X168990000Y-118040000I-1960000J0D01*
G01*
X168990000Y-118040000D02*
G75*
G02*
X172910000Y-118040000I1960000J0D01*
G01*
X167030000Y-93040000D02*
X166420000Y-93480000D01*
X166420000Y-92600000D01*
X167030000Y-93040000D01*
G36*
X167030000Y-93040000D02*
G01*
X166420000Y-93480000D01*
X166420000Y-92600000D01*
X167030000Y-93040000D01*
G37*
X168660000Y-73740000D02*
X168660000Y-75240000D01*
X169910000Y-77740000D02*
X174410000Y-77740000D01*
X174410000Y-71240000D02*
X169910000Y-71240000D01*
X175660000Y-75240000D02*
X175660000Y-73740000D01*
X179321252Y-82825000D02*
X178798748Y-82825000D01*
X179321252Y-84295000D02*
X178798748Y-84295000D01*
X202527500Y-67262742D02*
X202527500Y-67737258D01*
X203572500Y-67262742D02*
X203572500Y-67737258D01*
X176036359Y-81020000D02*
X176343641Y-81020000D01*
X176036359Y-81780000D02*
X176343641Y-81780000D01*
X201027500Y-67237742D02*
X201027500Y-67712258D01*
X202072500Y-67237742D02*
X202072500Y-67712258D01*
X193246359Y-87120000D02*
X193553641Y-87120000D01*
X193246359Y-87880000D02*
X193553641Y-87880000D01*
X188720000Y-114306359D02*
X188720000Y-114613641D01*
X189480000Y-114306359D02*
X189480000Y-114613641D01*
X188990000Y-112687836D02*
X188990000Y-112472164D01*
X189710000Y-112687836D02*
X189710000Y-112472164D01*
X179870000Y-81077500D02*
G75*
G02*
X177470000Y-81077500I-1200000J0D01*
G01*
X177470000Y-81077500D02*
G75*
G02*
X179870000Y-81077500I1200000J0D01*
G01*
X175360000Y-80153641D02*
X175360000Y-79846359D01*
X176120000Y-80153641D02*
X176120000Y-79846359D01*
X185674420Y-110090000D02*
X185955580Y-110090000D01*
X185674420Y-111110000D02*
X185955580Y-111110000D01*
X168040000Y-80159420D02*
X168040000Y-80440580D01*
X169060000Y-80159420D02*
X169060000Y-80440580D01*
X183685580Y-92405000D02*
X183404420Y-92405000D01*
X183685580Y-93425000D02*
X183404420Y-93425000D01*
X186634420Y-117990000D02*
X186915580Y-117990000D01*
X186634420Y-119010000D02*
X186915580Y-119010000D01*
X191478748Y-104725000D02*
X192001252Y-104725000D01*
X191478748Y-106195000D02*
X192001252Y-106195000D01*
%LPC*%
D16*
X188500000Y-109350000D03*
X188500000Y-111000000D03*
D17*
X182310000Y-113050000D03*
X182310000Y-117150000D03*
D18*
X197650000Y-129580000D03*
D19*
X197650000Y-127040000D03*
X197650000Y-124500000D03*
D18*
X190030000Y-129580000D03*
D19*
X190030000Y-127040000D03*
X190030000Y-124500000D03*
D20*
X182000000Y-86200000D03*
D21*
X197950000Y-117640000D03*
D22*
X197950000Y-112640000D03*
X197950000Y-107640000D03*
X197950000Y-102640000D03*
X197950000Y-97640000D03*
X197950000Y-92640000D03*
D23*
X170950000Y-125040000D03*
D22*
X170950000Y-130040000D03*
D24*
X175040000Y-68050000D03*
X169260000Y-68050000D03*
D25*
X175350000Y-69170000D03*
X174550000Y-69170000D03*
D26*
X173400000Y-69170000D03*
X172400000Y-69170000D03*
X171900000Y-69170000D03*
X170900000Y-69170000D03*
D25*
X169750000Y-69170000D03*
X168950000Y-69170000D03*
X168950000Y-69170000D03*
X169750000Y-69170000D03*
D26*
X170400000Y-69170000D03*
X171400000Y-69170000D03*
X172900000Y-69170000D03*
X173900000Y-69170000D03*
D25*
X174550000Y-69170000D03*
X175350000Y-69170000D03*
D27*
X176470000Y-68570000D03*
D28*
X176470000Y-64370000D03*
D27*
X167830000Y-68570000D03*
D28*
X167830000Y-64370000D03*
D18*
X179870000Y-129580000D03*
D19*
X179870000Y-127040000D03*
X179870000Y-124500000D03*
D29*
X185847500Y-94067500D03*
X186497500Y-94067500D03*
X187147500Y-94067500D03*
X187797500Y-94067500D03*
X188447500Y-94067500D03*
X189097500Y-94067500D03*
X189747500Y-94067500D03*
X190397500Y-94067500D03*
X190397500Y-88517500D03*
X189747500Y-88517500D03*
X189097500Y-88517500D03*
X188447500Y-88517500D03*
X187797500Y-88517500D03*
X187147500Y-88517500D03*
X186497500Y-88517500D03*
X185847500Y-88517500D03*
D30*
X186780000Y-92027500D03*
X187675000Y-92027500D03*
X188570000Y-92027500D03*
X189465000Y-92027500D03*
X186780000Y-90557500D03*
X187675000Y-90557500D03*
X188570000Y-90557500D03*
X189465000Y-90557500D03*
D31*
X184375000Y-89900000D03*
X182725000Y-89900000D03*
D16*
X192300000Y-113137500D03*
X192300000Y-114787500D03*
D32*
X199500000Y-86000000D03*
D18*
X177330000Y-129580000D03*
D19*
X177330000Y-127040000D03*
X177330000Y-124500000D03*
D33*
X182450000Y-101300000D03*
X182450000Y-103600000D03*
D34*
X188750000Y-103600000D03*
D33*
X182450000Y-105900000D03*
D35*
X173350000Y-79730000D03*
X173350000Y-80750000D03*
D36*
X203195000Y-76997500D03*
X203195000Y-75897500D03*
X201365000Y-75897500D03*
X201365000Y-76997500D03*
D37*
X185950000Y-114750000D03*
X187850000Y-114750000D03*
D38*
X189010000Y-96900000D03*
X191935000Y-96900000D03*
D36*
X203195000Y-82197500D03*
X203195000Y-81097500D03*
X201365000Y-81097500D03*
X201365000Y-82197500D03*
D39*
X187230000Y-96900000D03*
X184305000Y-96900000D03*
D18*
X192570000Y-129580000D03*
D19*
X192570000Y-127040000D03*
X192570000Y-124500000D03*
D32*
X169500000Y-86000000D03*
D20*
X177760000Y-115200000D03*
D40*
X188140000Y-138070000D03*
D22*
X193140000Y-138070000D03*
D18*
X184950000Y-129580000D03*
D19*
X184950000Y-127040000D03*
X184950000Y-124500000D03*
D20*
X182000000Y-95575000D03*
D41*
X185755000Y-112100000D03*
X185755000Y-112600000D03*
X185755000Y-113100000D03*
X187180000Y-113100000D03*
X187180000Y-112600000D03*
X187180000Y-112100000D03*
D20*
X177860000Y-103600000D03*
D42*
X181320000Y-109100000D03*
X180360000Y-109100000D03*
D37*
X185100000Y-108850000D03*
X187000000Y-108850000D03*
D43*
X185450000Y-86000000D03*
X187000000Y-86000000D03*
D44*
X190000000Y-111000000D03*
X190000000Y-109350000D03*
D37*
X185950000Y-116750000D03*
X187850000Y-116750000D03*
D18*
X187490000Y-129580000D03*
D19*
X187490000Y-127040000D03*
X187490000Y-124500000D03*
D45*
X182725000Y-91400000D03*
X184375000Y-91400000D03*
D46*
X181420000Y-110600000D03*
X179520000Y-110600000D03*
D16*
X192300000Y-109512500D03*
X192300000Y-111162500D03*
D40*
X176370000Y-138070000D03*
D22*
X181370000Y-138070000D03*
D47*
X201800000Y-71612500D03*
X201800000Y-69737500D03*
D32*
X199500000Y-139500000D03*
D46*
X190350000Y-85760000D03*
X188450000Y-85760000D03*
D48*
X190500000Y-101950000D03*
X191460000Y-101950000D03*
D36*
X203195000Y-79597500D03*
X203195000Y-78497500D03*
X201365000Y-78497500D03*
X201365000Y-79597500D03*
D35*
X170950000Y-79730000D03*
X170950000Y-80750000D03*
D18*
X182410000Y-129580000D03*
D19*
X182410000Y-127040000D03*
X182410000Y-124500000D03*
D36*
X203195000Y-74397500D03*
X203195000Y-73297500D03*
X201365000Y-73297500D03*
X201365000Y-74397500D03*
D49*
X182150000Y-64040000D03*
X182150000Y-65310000D03*
X182150000Y-66580000D03*
X182150000Y-67850000D03*
X182150000Y-69120000D03*
X182150000Y-70390000D03*
X182150000Y-71660000D03*
X182150000Y-72930000D03*
X182150000Y-74200000D03*
X182150000Y-75470000D03*
X182150000Y-76740000D03*
X182150000Y-78010000D03*
X182150000Y-79280000D03*
X182150000Y-80550000D03*
D50*
X183915000Y-81800000D03*
X185185000Y-81800000D03*
X186455000Y-81800000D03*
X187725000Y-81800000D03*
X188995000Y-81800000D03*
X190265000Y-81800000D03*
X191535000Y-81800000D03*
X192805000Y-81800000D03*
X194075000Y-81800000D03*
X195345000Y-81800000D03*
X196615000Y-81800000D03*
X197885000Y-81800000D03*
D49*
X199650000Y-80550000D03*
X199650000Y-79280000D03*
X199650000Y-78010000D03*
X199650000Y-76740000D03*
X199650000Y-75470000D03*
X199650000Y-74200000D03*
X199650000Y-72930000D03*
X199650000Y-71660000D03*
X199650000Y-70390000D03*
X199650000Y-69120000D03*
X199650000Y-67850000D03*
X199650000Y-66580000D03*
X199650000Y-65310000D03*
X199650000Y-64040000D03*
D51*
X188000000Y-70360000D03*
X188000000Y-71760000D03*
X188000000Y-73160000D03*
X188000000Y-73160000D03*
X189400000Y-70360000D03*
X189400000Y-70360000D03*
X189400000Y-71760000D03*
X189400000Y-73160000D03*
X190800000Y-70360000D03*
X190800000Y-71760000D03*
X190800000Y-73160000D03*
D23*
X170950000Y-93040000D03*
D22*
X170950000Y-98040000D03*
X170950000Y-103040000D03*
X170950000Y-108040000D03*
X170950000Y-113040000D03*
X170950000Y-118040000D03*
D20*
X168910000Y-72240000D03*
X175410000Y-72240000D03*
X168910000Y-76740000D03*
X175410000Y-76740000D03*
D46*
X180010000Y-83560000D03*
X178110000Y-83560000D03*
D16*
X203050000Y-66675000D03*
X203050000Y-68325000D03*
D52*
X175680000Y-81400000D03*
X176700000Y-81400000D03*
D16*
X201550000Y-66650000D03*
X201550000Y-68300000D03*
D32*
X169500000Y-139500000D03*
D52*
X192890000Y-87500000D03*
X193910000Y-87500000D03*
D35*
X189100000Y-113950000D03*
X189100000Y-114970000D03*
D53*
X189350000Y-113060000D03*
X189350000Y-112100000D03*
D20*
X178670000Y-81077500D03*
D54*
X175740000Y-80510000D03*
X175740000Y-79490000D03*
D43*
X185040000Y-110600000D03*
X186590000Y-110600000D03*
D55*
X168550000Y-79525000D03*
X168550000Y-81075000D03*
D56*
X184320000Y-92915000D03*
X182770000Y-92915000D03*
D43*
X186000000Y-118500000D03*
X187550000Y-118500000D03*
D37*
X190790000Y-105460000D03*
X192690000Y-105460000D03*
D18*
X195110000Y-129580000D03*
D19*
X195110000Y-127040000D03*
X195110000Y-124500000D03*
%LPD*%
M02*
