%TF.GenerationSoftware,KiCad,Pcbnew,9.0.0*%
%TF.CreationDate,2025-07-02T14:57:16+08:00*%
%TF.ProjectId,ESPNOW,4553504e-4f57-42e6-9b69-6361645f7063,rev?*%
%TF.SameCoordinates,Original*%
%TF.FileFunction,Drillmap*%
%TF.FilePolarity,Positive*%
%FSLAX45Y45*%
G04 Gerber Fmt 4.5, Leading zero omitted, Abs format (unit mm)*
G04 Created by KiCad (PCBNEW 9.0.0) date 2025-07-02 14:57:16*
%MOMM*%
%LPD*%
G01*
G04 APERTURE LIST*
%ADD10C,0.050000*%
%ADD11C,0.200000*%
%ADD12C,0.100000*%
%ADD13C,0.110000*%
%ADD14C,0.130000*%
%ADD15C,0.320000*%
G04 APERTURE END LIST*
D10*
X19950000Y-6250000D02*
G75*
G02*
X20450000Y-6750000I0J-500000D01*
G01*
X19950000Y-14450000D02*
X16950000Y-14450000D01*
X16950000Y-14450000D02*
G75*
G02*
X16450000Y-13950000I0J500000D01*
G01*
X20450000Y-6750000D02*
X20450000Y-13950000D01*
X16450000Y-13950000D02*
X16450000Y-6750000D01*
X20450000Y-13950000D02*
G75*
G02*
X19950000Y-14450000I-500000J0D01*
G01*
X16950000Y-6250000D02*
X19950000Y-6250000D01*
X16450000Y-6750000D02*
G75*
G02*
X16950000Y-6250000I500000J0D01*
G01*
D11*
D12*
X16535000Y-6685000D02*
X16565000Y-6715000D01*
X16565000Y-6685000D02*
X16535000Y-6715000D01*
X16535000Y-6785000D02*
X16565000Y-6815000D01*
X16565000Y-6785000D02*
X16535000Y-6815000D01*
X16535000Y-6885000D02*
X16565000Y-6915000D01*
X16565000Y-6885000D02*
X16535000Y-6915000D01*
X16535000Y-6985000D02*
X16565000Y-7015000D01*
X16565000Y-6985000D02*
X16535000Y-7015000D01*
X16535000Y-7085000D02*
X16565000Y-7115000D01*
X16565000Y-7085000D02*
X16535000Y-7115000D01*
X16535000Y-7185000D02*
X16565000Y-7215000D01*
X16565000Y-7185000D02*
X16535000Y-7215000D01*
X16535000Y-7285000D02*
X16565000Y-7315000D01*
X16565000Y-7285000D02*
X16535000Y-7315000D01*
X16535000Y-7385000D02*
X16565000Y-7415000D01*
X16565000Y-7385000D02*
X16535000Y-7415000D01*
X16535000Y-7485000D02*
X16565000Y-7515000D01*
X16565000Y-7485000D02*
X16535000Y-7515000D01*
X16535000Y-7585000D02*
X16565000Y-7615000D01*
X16565000Y-7585000D02*
X16535000Y-7615000D01*
X16535000Y-7685000D02*
X16565000Y-7715000D01*
X16565000Y-7685000D02*
X16535000Y-7715000D01*
X16535000Y-7785000D02*
X16565000Y-7815000D01*
X16565000Y-7785000D02*
X16535000Y-7815000D01*
X16535000Y-7885000D02*
X16565000Y-7915000D01*
X16565000Y-7885000D02*
X16535000Y-7915000D01*
X16535000Y-7985000D02*
X16565000Y-8015000D01*
X16565000Y-7985000D02*
X16535000Y-8015000D01*
X16535000Y-8085000D02*
X16565000Y-8115000D01*
X16565000Y-8085000D02*
X16535000Y-8115000D01*
X16535000Y-8185000D02*
X16565000Y-8215000D01*
X16565000Y-8185000D02*
X16535000Y-8215000D01*
X16535000Y-8285000D02*
X16565000Y-8315000D01*
X16565000Y-8285000D02*
X16535000Y-8315000D01*
X16535000Y-8385000D02*
X16565000Y-8415000D01*
X16565000Y-8385000D02*
X16535000Y-8415000D01*
X16535000Y-8485000D02*
X16565000Y-8515000D01*
X16565000Y-8485000D02*
X16535000Y-8515000D01*
X16535000Y-8585000D02*
X16565000Y-8615000D01*
X16565000Y-8585000D02*
X16535000Y-8615000D01*
X16535000Y-8685000D02*
X16565000Y-8715000D01*
X16565000Y-8685000D02*
X16535000Y-8715000D01*
X16535000Y-8785000D02*
X16565000Y-8815000D01*
X16565000Y-8785000D02*
X16535000Y-8815000D01*
X16535000Y-8885000D02*
X16565000Y-8915000D01*
X16565000Y-8885000D02*
X16535000Y-8915000D01*
X16535000Y-8985000D02*
X16565000Y-9015000D01*
X16565000Y-8985000D02*
X16535000Y-9015000D01*
X16535000Y-9085000D02*
X16565000Y-9115000D01*
X16565000Y-9085000D02*
X16535000Y-9115000D01*
X16535000Y-9185000D02*
X16565000Y-9215000D01*
X16565000Y-9185000D02*
X16535000Y-9215000D01*
X16535000Y-9385000D02*
X16565000Y-9415000D01*
X16565000Y-9385000D02*
X16535000Y-9415000D01*
X16535000Y-9485000D02*
X16565000Y-9515000D01*
X16565000Y-9485000D02*
X16535000Y-9515000D01*
X16535000Y-9585000D02*
X16565000Y-9615000D01*
X16565000Y-9585000D02*
X16535000Y-9615000D01*
X16535000Y-9685000D02*
X16565000Y-9715000D01*
X16565000Y-9685000D02*
X16535000Y-9715000D01*
X16535000Y-9885000D02*
X16565000Y-9915000D01*
X16565000Y-9885000D02*
X16535000Y-9915000D01*
X16535000Y-9985000D02*
X16565000Y-10015000D01*
X16565000Y-9985000D02*
X16535000Y-10015000D01*
X16535000Y-10085000D02*
X16565000Y-10115000D01*
X16565000Y-10085000D02*
X16535000Y-10115000D01*
X16535000Y-10185000D02*
X16565000Y-10215000D01*
X16565000Y-10185000D02*
X16535000Y-10215000D01*
X16535000Y-10385000D02*
X16565000Y-10415000D01*
X16565000Y-10385000D02*
X16535000Y-10415000D01*
X16535000Y-10485000D02*
X16565000Y-10515000D01*
X16565000Y-10485000D02*
X16535000Y-10515000D01*
X16535000Y-10585000D02*
X16565000Y-10615000D01*
X16565000Y-10585000D02*
X16535000Y-10615000D01*
X16535000Y-10685000D02*
X16565000Y-10715000D01*
X16565000Y-10685000D02*
X16535000Y-10715000D01*
X16535000Y-10885000D02*
X16565000Y-10915000D01*
X16565000Y-10885000D02*
X16535000Y-10915000D01*
X16535000Y-10985000D02*
X16565000Y-11015000D01*
X16565000Y-10985000D02*
X16535000Y-11015000D01*
X16535000Y-11085000D02*
X16565000Y-11115000D01*
X16565000Y-11085000D02*
X16535000Y-11115000D01*
X16535000Y-11485000D02*
X16565000Y-11515000D01*
X16565000Y-11485000D02*
X16535000Y-11515000D01*
X16535000Y-11585000D02*
X16565000Y-11615000D01*
X16565000Y-11585000D02*
X16535000Y-11615000D01*
X16535000Y-11985000D02*
X16565000Y-12015000D01*
X16565000Y-11985000D02*
X16535000Y-12015000D01*
X16535000Y-12085000D02*
X16565000Y-12115000D01*
X16565000Y-12085000D02*
X16535000Y-12115000D01*
X16535000Y-12185000D02*
X16565000Y-12215000D01*
X16565000Y-12185000D02*
X16535000Y-12215000D01*
X16535000Y-12685000D02*
X16565000Y-12715000D01*
X16565000Y-12685000D02*
X16535000Y-12715000D01*
X16535000Y-12785000D02*
X16565000Y-12815000D01*
X16565000Y-12785000D02*
X16535000Y-12815000D01*
X16535000Y-13285000D02*
X16565000Y-13315000D01*
X16565000Y-13285000D02*
X16535000Y-13315000D01*
X16535000Y-13385000D02*
X16565000Y-13415000D01*
X16565000Y-13385000D02*
X16535000Y-13415000D01*
X16535000Y-13485000D02*
X16565000Y-13515000D01*
X16565000Y-13485000D02*
X16535000Y-13515000D01*
X16535000Y-13585000D02*
X16565000Y-13615000D01*
X16565000Y-13585000D02*
X16535000Y-13615000D01*
X16535000Y-13685000D02*
X16565000Y-13715000D01*
X16565000Y-13685000D02*
X16535000Y-13715000D01*
X16535000Y-13785000D02*
X16565000Y-13815000D01*
X16565000Y-13785000D02*
X16535000Y-13815000D01*
X16535000Y-13885000D02*
X16565000Y-13915000D01*
X16565000Y-13885000D02*
X16535000Y-13915000D01*
X16535000Y-13985000D02*
X16565000Y-14015000D01*
X16565000Y-13985000D02*
X16535000Y-14015000D01*
X16835000Y-14335000D02*
X16865000Y-14365000D01*
X16865000Y-14335000D02*
X16835000Y-14365000D01*
X16915000Y-7935000D02*
X16945000Y-7965000D01*
X16945000Y-7935000D02*
X16915000Y-7965000D01*
X16935000Y-6395500D02*
X16965000Y-6425500D01*
X16965000Y-6395500D02*
X16935000Y-6425500D01*
X16935000Y-14335000D02*
X16965000Y-14365000D01*
X16965000Y-14335000D02*
X16935000Y-14365000D01*
X17011000Y-6789500D02*
X17041000Y-6819500D01*
X17041000Y-6789500D02*
X17011000Y-6819500D01*
X17035000Y-6395500D02*
X17065000Y-6425500D01*
X17065000Y-6395500D02*
X17035000Y-6425500D01*
X17035000Y-14335000D02*
X17065000Y-14365000D01*
X17065000Y-14335000D02*
X17035000Y-14365000D01*
X17135000Y-6395500D02*
X17165000Y-6425500D01*
X17165000Y-6395500D02*
X17135000Y-6425500D01*
X17135000Y-14335000D02*
X17165000Y-14365000D01*
X17165000Y-14335000D02*
X17135000Y-14365000D01*
X17235000Y-6395500D02*
X17265000Y-6425500D01*
X17265000Y-6395500D02*
X17235000Y-6425500D01*
X17235000Y-14335000D02*
X17265000Y-14365000D01*
X17265000Y-14335000D02*
X17235000Y-14365000D01*
X17325000Y-7728000D02*
X17355000Y-7758000D01*
X17355000Y-7728000D02*
X17325000Y-7758000D01*
X17331000Y-7108000D02*
X17361000Y-7138000D01*
X17361000Y-7108000D02*
X17331000Y-7138000D01*
X17335000Y-6395500D02*
X17365000Y-6425500D01*
X17365000Y-6395500D02*
X17335000Y-6425500D01*
X17335000Y-14335000D02*
X17365000Y-14365000D01*
X17365000Y-14335000D02*
X17335000Y-14365000D01*
X17388000Y-6789500D02*
X17418000Y-6819500D01*
X17418000Y-6789500D02*
X17388000Y-6819500D01*
X17435000Y-6395500D02*
X17465000Y-6425500D01*
X17465000Y-6395500D02*
X17435000Y-6425500D01*
X17435000Y-14335000D02*
X17465000Y-14365000D01*
X17465000Y-14335000D02*
X17435000Y-14365000D01*
X17475000Y-7526000D02*
X17505000Y-7556000D01*
X17505000Y-7526000D02*
X17475000Y-7556000D01*
X17485000Y-7935000D02*
X17515000Y-7965000D01*
X17515000Y-7935000D02*
X17485000Y-7965000D01*
X17520000Y-6902000D02*
X17550000Y-6932000D01*
X17550000Y-6902000D02*
X17520000Y-6932000D01*
X17520000Y-7002500D02*
X17550000Y-7032500D01*
X17550000Y-7002500D02*
X17520000Y-7032500D01*
X17535000Y-6395500D02*
X17565000Y-6425500D01*
X17565000Y-6395500D02*
X17535000Y-6425500D01*
X17535000Y-14335000D02*
X17565000Y-14365000D01*
X17565000Y-14335000D02*
X17535000Y-14365000D01*
X17601000Y-8006000D02*
X17631000Y-8036000D01*
X17631000Y-8006000D02*
X17601000Y-8036000D01*
X17606000Y-7340000D02*
X17636000Y-7370000D01*
X17636000Y-7340000D02*
X17606000Y-7370000D01*
X17635000Y-14335000D02*
X17665000Y-14365000D01*
X17665000Y-14335000D02*
X17635000Y-14365000D01*
X17665000Y-6605000D02*
X17695000Y-6635000D01*
X17695000Y-6605000D02*
X17665000Y-6635000D01*
X17735000Y-6385000D02*
X17765000Y-6415000D01*
X17765000Y-6385000D02*
X17735000Y-6415000D01*
X17765000Y-6605000D02*
X17795000Y-6635000D01*
X17795000Y-6605000D02*
X17765000Y-6635000D01*
X17765000Y-6705000D02*
X17795000Y-6735000D01*
X17795000Y-6705000D02*
X17765000Y-6735000D01*
X17783000Y-7509000D02*
X17813000Y-7539000D01*
X17813000Y-7509000D02*
X17783000Y-7539000D01*
X17835000Y-6385000D02*
X17865000Y-6415000D01*
X17865000Y-6385000D02*
X17835000Y-6415000D01*
X17848000Y-7574000D02*
X17878000Y-7604000D01*
X17878000Y-7574000D02*
X17848000Y-7604000D01*
X17865000Y-6605000D02*
X17895000Y-6635000D01*
X17895000Y-6605000D02*
X17865000Y-6635000D01*
X17913000Y-7639000D02*
X17943000Y-7669000D01*
X17943000Y-7639000D02*
X17913000Y-7669000D01*
X17935000Y-6385000D02*
X17965000Y-6415000D01*
X17965000Y-6385000D02*
X17935000Y-6415000D01*
X17978000Y-7704000D02*
X18008000Y-7734000D01*
X18008000Y-7704000D02*
X17978000Y-7734000D01*
X18035000Y-6385000D02*
X18065000Y-6415000D01*
X18065000Y-6385000D02*
X18035000Y-6415000D01*
X18035000Y-7761000D02*
X18065000Y-7791000D01*
X18065000Y-7761000D02*
X18035000Y-7791000D01*
X18043000Y-7392000D02*
X18073000Y-7422000D01*
X18073000Y-7392000D02*
X18043000Y-7422000D01*
X18043000Y-7519000D02*
X18073000Y-7549000D01*
X18073000Y-7519000D02*
X18043000Y-7549000D01*
X18043000Y-7646000D02*
X18073000Y-7676000D01*
X18073000Y-7646000D02*
X18043000Y-7676000D01*
X18075000Y-6516000D02*
X18105000Y-6546000D01*
X18105000Y-6516000D02*
X18075000Y-6546000D01*
X18079000Y-8060000D02*
X18109000Y-8090000D01*
X18109000Y-8060000D02*
X18079000Y-8090000D01*
X18116000Y-10695000D02*
X18146000Y-10725000D01*
X18146000Y-10695000D02*
X18116000Y-10725000D01*
X18135000Y-8185000D02*
X18165000Y-8215000D01*
X18165000Y-8185000D02*
X18135000Y-8215000D01*
X18195000Y-11550000D02*
X18225000Y-11580000D01*
X18225000Y-11550000D02*
X18195000Y-11580000D01*
X18216000Y-10695000D02*
X18246000Y-10725000D01*
X18246000Y-10695000D02*
X18216000Y-10725000D01*
X18232500Y-9200000D02*
X18262500Y-9230000D01*
X18262500Y-9200000D02*
X18232500Y-9230000D01*
X18246000Y-10855000D02*
X18276000Y-10885000D01*
X18276000Y-10855000D02*
X18246000Y-10885000D01*
X18246000Y-11085000D02*
X18276000Y-11115000D01*
X18276000Y-11085000D02*
X18246000Y-11115000D01*
X18275000Y-11550000D02*
X18305000Y-11580000D01*
X18305000Y-11550000D02*
X18275000Y-11580000D01*
X18292500Y-9200000D02*
X18322500Y-9230000D01*
X18322500Y-9200000D02*
X18292500Y-9230000D01*
X18305000Y-8765000D02*
X18335000Y-8795000D01*
X18335000Y-8765000D02*
X18305000Y-8795000D01*
X18325000Y-7786000D02*
X18355000Y-7816000D01*
X18355000Y-7786000D02*
X18325000Y-7816000D01*
X18326000Y-10855000D02*
X18356000Y-10885000D01*
X18356000Y-10855000D02*
X18326000Y-10885000D01*
X18326000Y-11085000D02*
X18356000Y-11115000D01*
X18356000Y-11085000D02*
X18326000Y-11115000D01*
X18335000Y-6385000D02*
X18365000Y-6415000D01*
X18365000Y-6385000D02*
X18335000Y-6415000D01*
X18345000Y-6605000D02*
X18375000Y-6635000D01*
X18375000Y-6605000D02*
X18345000Y-6635000D01*
X18345000Y-6705000D02*
X18375000Y-6735000D01*
X18375000Y-6705000D02*
X18345000Y-6735000D01*
X18395000Y-11670000D02*
X18425000Y-11700000D01*
X18425000Y-11670000D02*
X18395000Y-11700000D01*
X18395000Y-11755000D02*
X18425000Y-11785000D01*
X18425000Y-11755000D02*
X18395000Y-11785000D01*
X18406000Y-10855000D02*
X18436000Y-10885000D01*
X18436000Y-10855000D02*
X18406000Y-10885000D01*
X18406000Y-11085000D02*
X18436000Y-11115000D01*
X18436000Y-11085000D02*
X18406000Y-11115000D01*
X18435000Y-6385000D02*
X18465000Y-6415000D01*
X18465000Y-6385000D02*
X18435000Y-6415000D01*
X18435000Y-14335000D02*
X18465000Y-14365000D01*
X18465000Y-14335000D02*
X18435000Y-14365000D01*
X18465000Y-6605000D02*
X18495000Y-6635000D01*
X18495000Y-6605000D02*
X18465000Y-6635000D01*
X18465000Y-6705000D02*
X18495000Y-6735000D01*
X18495000Y-6705000D02*
X18465000Y-6735000D01*
X18466000Y-11145000D02*
X18496000Y-11175000D01*
X18496000Y-11145000D02*
X18466000Y-11175000D01*
X18470000Y-11910000D02*
X18500000Y-11940000D01*
X18500000Y-11910000D02*
X18470000Y-11940000D01*
X18490000Y-8417500D02*
X18520000Y-8447500D01*
X18520000Y-8417500D02*
X18490000Y-8447500D01*
X18490000Y-11475000D02*
X18520000Y-11505000D01*
X18520000Y-11475000D02*
X18490000Y-11505000D01*
X18490000Y-11550000D02*
X18520000Y-11580000D01*
X18520000Y-11550000D02*
X18490000Y-11580000D01*
X18535000Y-6385000D02*
X18565000Y-6415000D01*
X18565000Y-6385000D02*
X18535000Y-6415000D01*
X18535000Y-14335000D02*
X18565000Y-14365000D01*
X18565000Y-14335000D02*
X18535000Y-14365000D01*
X18540000Y-11345000D02*
X18570000Y-11375000D01*
X18570000Y-11345000D02*
X18540000Y-11375000D01*
X18554000Y-11965000D02*
X18584000Y-11995000D01*
X18584000Y-11965000D02*
X18554000Y-11995000D01*
X18570000Y-9282500D02*
X18600000Y-9312500D01*
X18600000Y-9282500D02*
X18570000Y-9312500D01*
X18572000Y-8723750D02*
X18602000Y-8753750D01*
X18602000Y-8723750D02*
X18572000Y-8753750D01*
X18630000Y-11345000D02*
X18660000Y-11375000D01*
X18660000Y-11345000D02*
X18630000Y-11375000D01*
X18634000Y-11145000D02*
X18664000Y-11175000D01*
X18664000Y-11145000D02*
X18634000Y-11175000D01*
X18634750Y-9485000D02*
X18664750Y-9515000D01*
X18664750Y-9485000D02*
X18634750Y-9515000D01*
X18635000Y-6385000D02*
X18665000Y-6415000D01*
X18665000Y-6385000D02*
X18635000Y-6415000D01*
X18635000Y-9550000D02*
X18665000Y-9580000D01*
X18665000Y-9550000D02*
X18635000Y-9580000D01*
X18635000Y-14335000D02*
X18665000Y-14365000D01*
X18665000Y-14335000D02*
X18635000Y-14365000D01*
X18644000Y-11965000D02*
X18674000Y-11995000D01*
X18674000Y-11965000D02*
X18644000Y-11995000D01*
X18652000Y-8724750D02*
X18682000Y-8754750D01*
X18682000Y-8724750D02*
X18652000Y-8754750D01*
X18663000Y-9040750D02*
X18693000Y-9070750D01*
X18693000Y-9040750D02*
X18663000Y-9070750D01*
X18663000Y-9187750D02*
X18693000Y-9217750D01*
X18693000Y-9187750D02*
X18663000Y-9217750D01*
X18685000Y-7025000D02*
X18715000Y-7055000D01*
X18715000Y-7025000D02*
X18685000Y-7055000D01*
X18685000Y-7165000D02*
X18715000Y-7195000D01*
X18715000Y-7165000D02*
X18685000Y-7195000D01*
X18685000Y-7305000D02*
X18715000Y-7335000D01*
X18715000Y-7305000D02*
X18685000Y-7335000D01*
X18685000Y-11460000D02*
X18715000Y-11490000D01*
X18715000Y-11460000D02*
X18685000Y-11490000D01*
X18685000Y-11660000D02*
X18715000Y-11690000D01*
X18715000Y-11660000D02*
X18685000Y-11690000D01*
X18734000Y-11965000D02*
X18764000Y-11995000D01*
X18764000Y-11965000D02*
X18734000Y-11995000D01*
X18735000Y-6385000D02*
X18765000Y-6415000D01*
X18765000Y-6385000D02*
X18735000Y-6415000D01*
X18735000Y-14335000D02*
X18765000Y-14365000D01*
X18765000Y-14335000D02*
X18735000Y-14365000D01*
X18745000Y-11355000D02*
X18775000Y-11385000D01*
X18775000Y-11355000D02*
X18745000Y-11385000D01*
X18752500Y-9040750D02*
X18782500Y-9070750D01*
X18782500Y-9040750D02*
X18752500Y-9070750D01*
X18752500Y-9187750D02*
X18782500Y-9217750D01*
X18782500Y-9187750D02*
X18752500Y-9217750D01*
X18760000Y-9485000D02*
X18790000Y-9515000D01*
X18790000Y-9485000D02*
X18760000Y-9515000D01*
X18760000Y-9550000D02*
X18790000Y-9580000D01*
X18790000Y-9550000D02*
X18760000Y-9580000D01*
X18785000Y-6925000D02*
X18815000Y-6955000D01*
X18815000Y-6925000D02*
X18785000Y-6955000D01*
X18785000Y-7405000D02*
X18815000Y-7435000D01*
X18815000Y-7405000D02*
X18785000Y-7435000D01*
X18790000Y-8040000D02*
X18820000Y-8070000D01*
X18820000Y-8040000D02*
X18790000Y-8070000D01*
X18815000Y-11255000D02*
X18845000Y-11285000D01*
X18845000Y-11255000D02*
X18815000Y-11285000D01*
X18827000Y-7969000D02*
X18857000Y-7999000D01*
X18857000Y-7969000D02*
X18827000Y-7999000D01*
X18829750Y-8657500D02*
X18859750Y-8687500D01*
X18859750Y-8657500D02*
X18829750Y-8687500D01*
X18829750Y-8737500D02*
X18859750Y-8767500D01*
X18859750Y-8737500D02*
X18829750Y-8767500D01*
X18831000Y-11961000D02*
X18861000Y-11991000D01*
X18861000Y-11961000D02*
X18831000Y-11991000D01*
X18835000Y-6385000D02*
X18865000Y-6415000D01*
X18865000Y-6385000D02*
X18835000Y-6415000D01*
X18835000Y-9485000D02*
X18865000Y-9515000D01*
X18865000Y-9485000D02*
X18835000Y-9515000D01*
X18835000Y-9550000D02*
X18865000Y-9580000D01*
X18865000Y-9550000D02*
X18835000Y-9580000D01*
X18842000Y-9040750D02*
X18872000Y-9070750D01*
X18872000Y-9040750D02*
X18842000Y-9070750D01*
X18842000Y-9187750D02*
X18872000Y-9217750D01*
X18872000Y-9187750D02*
X18842000Y-9217750D01*
X18874000Y-7904000D02*
X18904000Y-7934000D01*
X18904000Y-7904000D02*
X18874000Y-7934000D01*
X18899000Y-11899000D02*
X18929000Y-11929000D01*
X18929000Y-11899000D02*
X18899000Y-11929000D01*
X18925000Y-6925000D02*
X18955000Y-6955000D01*
X18955000Y-6925000D02*
X18925000Y-6955000D01*
X18925000Y-7405000D02*
X18955000Y-7435000D01*
X18955000Y-7405000D02*
X18925000Y-7435000D01*
X18931500Y-9040750D02*
X18961500Y-9070750D01*
X18961500Y-9040750D02*
X18931500Y-9070750D01*
X18931500Y-9187750D02*
X18961500Y-9217750D01*
X18961500Y-9187750D02*
X18931500Y-9217750D01*
X18935000Y-6385000D02*
X18965000Y-6415000D01*
X18965000Y-6385000D02*
X18935000Y-6415000D01*
X18950000Y-11535000D02*
X18980000Y-11565000D01*
X18980000Y-11535000D02*
X18950000Y-11565000D01*
X18951000Y-11826000D02*
X18981000Y-11856000D01*
X18981000Y-11826000D02*
X18951000Y-11856000D01*
X18955000Y-11641000D02*
X18985000Y-11671000D01*
X18985000Y-11641000D02*
X18955000Y-11671000D01*
X18955000Y-11725000D02*
X18985000Y-11755000D01*
X18985000Y-11725000D02*
X18955000Y-11755000D01*
X18959750Y-9485000D02*
X18989750Y-9515000D01*
X18989750Y-9485000D02*
X18959750Y-9515000D01*
X18959750Y-9550000D02*
X18989750Y-9580000D01*
X18989750Y-9550000D02*
X18959750Y-9580000D01*
X18990000Y-11165000D02*
X19020000Y-11195000D01*
X19020000Y-11165000D02*
X18990000Y-11195000D01*
X19005000Y-11445000D02*
X19035000Y-11475000D01*
X19035000Y-11445000D02*
X19005000Y-11475000D01*
X19010000Y-11310000D02*
X19040000Y-11340000D01*
X19040000Y-11310000D02*
X19010000Y-11340000D01*
X19010000Y-11375000D02*
X19040000Y-11405000D01*
X19040000Y-11375000D02*
X19010000Y-11405000D01*
X19025000Y-9287500D02*
X19055000Y-9317500D01*
X19055000Y-9287500D02*
X19025000Y-9317500D01*
X19035000Y-6385000D02*
X19065000Y-6415000D01*
X19065000Y-6385000D02*
X19035000Y-6415000D01*
X19065000Y-6925000D02*
X19095000Y-6955000D01*
X19095000Y-6925000D02*
X19065000Y-6955000D01*
X19065000Y-7405000D02*
X19095000Y-7435000D01*
X19095000Y-7405000D02*
X19065000Y-7435000D01*
X19076500Y-7845500D02*
X19106500Y-7875500D01*
X19106500Y-7845500D02*
X19076500Y-7875500D01*
X19101000Y-10355000D02*
X19131000Y-10385000D01*
X19131000Y-10355000D02*
X19101000Y-10385000D01*
X19105000Y-8345000D02*
X19135000Y-8375000D01*
X19135000Y-8345000D02*
X19105000Y-8375000D01*
X19105000Y-8425000D02*
X19135000Y-8455000D01*
X19135000Y-8425000D02*
X19105000Y-8455000D01*
X19124000Y-8750000D02*
X19154000Y-8780000D01*
X19154000Y-8750000D02*
X19124000Y-8780000D01*
X19124000Y-8838000D02*
X19154000Y-8868000D01*
X19154000Y-8838000D02*
X19124000Y-8868000D01*
X19135000Y-6385000D02*
X19165000Y-6415000D01*
X19165000Y-6385000D02*
X19135000Y-6415000D01*
X19157000Y-7857000D02*
X19187000Y-7887000D01*
X19187000Y-7857000D02*
X19157000Y-7887000D01*
X19165000Y-7025000D02*
X19195000Y-7055000D01*
X19195000Y-7025000D02*
X19165000Y-7055000D01*
X19165000Y-7165000D02*
X19195000Y-7195000D01*
X19195000Y-7165000D02*
X19165000Y-7195000D01*
X19165000Y-7305000D02*
X19195000Y-7335000D01*
X19195000Y-7305000D02*
X19165000Y-7335000D01*
X19168000Y-11015000D02*
X19198000Y-11045000D01*
X19198000Y-11015000D02*
X19168000Y-11045000D01*
X19185000Y-8345000D02*
X19215000Y-8375000D01*
X19215000Y-8345000D02*
X19185000Y-8375000D01*
X19185000Y-8425000D02*
X19215000Y-8455000D01*
X19215000Y-8425000D02*
X19185000Y-8455000D01*
X19186000Y-10355000D02*
X19216000Y-10385000D01*
X19216000Y-10355000D02*
X19186000Y-10385000D01*
X19208000Y-11200000D02*
X19238000Y-11230000D01*
X19238000Y-11200000D02*
X19208000Y-11230000D01*
X19235000Y-6385000D02*
X19265000Y-6415000D01*
X19265000Y-6385000D02*
X19235000Y-6415000D01*
X19248000Y-11015000D02*
X19278000Y-11045000D01*
X19278000Y-11015000D02*
X19248000Y-11045000D01*
X19261000Y-10355000D02*
X19291000Y-10385000D01*
X19291000Y-10355000D02*
X19261000Y-10385000D01*
X19274000Y-8810000D02*
X19304000Y-8840000D01*
X19304000Y-8810000D02*
X19274000Y-8840000D01*
X19275000Y-8040000D02*
X19305000Y-8070000D01*
X19305000Y-8040000D02*
X19275000Y-8070000D01*
X19335000Y-6385000D02*
X19365000Y-6415000D01*
X19365000Y-6385000D02*
X19335000Y-6415000D01*
X19367000Y-8040000D02*
X19397000Y-8070000D01*
X19397000Y-8040000D02*
X19367000Y-8070000D01*
X19405000Y-8825000D02*
X19435000Y-8855000D01*
X19435000Y-8825000D02*
X19405000Y-8855000D01*
X19425000Y-8345000D02*
X19455000Y-8375000D01*
X19455000Y-8345000D02*
X19425000Y-8375000D01*
X19425000Y-8425000D02*
X19455000Y-8455000D01*
X19455000Y-8425000D02*
X19425000Y-8455000D01*
X19425000Y-8505000D02*
X19455000Y-8535000D01*
X19455000Y-8505000D02*
X19425000Y-8535000D01*
X19435000Y-6385000D02*
X19465000Y-6415000D01*
X19465000Y-6385000D02*
X19435000Y-6415000D01*
X19447000Y-8040000D02*
X19477000Y-8070000D01*
X19477000Y-8040000D02*
X19447000Y-8070000D01*
X19529000Y-12309000D02*
X19559000Y-12339000D01*
X19559000Y-12309000D02*
X19529000Y-12339000D01*
X19535000Y-6385000D02*
X19565000Y-6415000D01*
X19565000Y-6385000D02*
X19535000Y-6415000D01*
X19560000Y-12245000D02*
X19590000Y-12275000D01*
X19590000Y-12245000D02*
X19560000Y-12275000D01*
X19600000Y-12185000D02*
X19630000Y-12215000D01*
X19630000Y-12185000D02*
X19600000Y-12215000D01*
X19635000Y-6385000D02*
X19665000Y-6415000D01*
X19665000Y-6385000D02*
X19635000Y-6415000D01*
X19635000Y-14335000D02*
X19665000Y-14365000D01*
X19665000Y-14335000D02*
X19635000Y-14365000D01*
X19637500Y-12125000D02*
X19667500Y-12155000D01*
X19667500Y-12125000D02*
X19637500Y-12155000D01*
X19674000Y-6933000D02*
X19704000Y-6963000D01*
X19704000Y-6933000D02*
X19674000Y-6963000D01*
X19680000Y-7041000D02*
X19710000Y-7071000D01*
X19710000Y-7041000D02*
X19680000Y-7071000D01*
X19724000Y-7105000D02*
X19754000Y-7135000D01*
X19754000Y-7105000D02*
X19724000Y-7135000D01*
X19735000Y-6385000D02*
X19765000Y-6415000D01*
X19765000Y-6385000D02*
X19735000Y-6415000D01*
X19735000Y-14335000D02*
X19765000Y-14365000D01*
X19765000Y-14335000D02*
X19735000Y-14365000D01*
X19759000Y-6756000D02*
X19789000Y-6786000D01*
X19789000Y-6756000D02*
X19759000Y-6786000D01*
X19835000Y-6385000D02*
X19865000Y-6415000D01*
X19865000Y-6385000D02*
X19835000Y-6415000D01*
X19835000Y-14335000D02*
X19865000Y-14365000D01*
X19865000Y-14335000D02*
X19835000Y-14365000D01*
X19935000Y-14335000D02*
X19965000Y-14365000D01*
X19965000Y-14335000D02*
X19935000Y-14365000D01*
X20035000Y-14335000D02*
X20065000Y-14365000D01*
X20065000Y-14335000D02*
X20035000Y-14365000D01*
X20065000Y-6712500D02*
X20095000Y-6742500D01*
X20095000Y-6712500D02*
X20065000Y-6742500D01*
X20065750Y-7259000D02*
X20095750Y-7289000D01*
X20095750Y-7259000D02*
X20065750Y-7289000D01*
X20121500Y-7424750D02*
X20151500Y-7454750D01*
X20151500Y-7424750D02*
X20121500Y-7454750D01*
X20121500Y-7684750D02*
X20151500Y-7714750D01*
X20151500Y-7684750D02*
X20121500Y-7714750D01*
X20121500Y-7944750D02*
X20151500Y-7974750D01*
X20151500Y-7944750D02*
X20121500Y-7974750D01*
X20135000Y-6385000D02*
X20165000Y-6415000D01*
X20165000Y-6385000D02*
X20135000Y-6415000D01*
X20219000Y-7319750D02*
X20249000Y-7349750D01*
X20249000Y-7319750D02*
X20219000Y-7349750D01*
X20219000Y-7579750D02*
X20249000Y-7609750D01*
X20249000Y-7579750D02*
X20219000Y-7609750D01*
X20219000Y-7839750D02*
X20249000Y-7869750D01*
X20249000Y-7839750D02*
X20219000Y-7869750D01*
X20219000Y-8099750D02*
X20249000Y-8129750D01*
X20249000Y-8099750D02*
X20219000Y-8129750D01*
X20335000Y-8485000D02*
X20365000Y-8515000D01*
X20365000Y-8485000D02*
X20335000Y-8515000D01*
X20335000Y-8585000D02*
X20365000Y-8615000D01*
X20365000Y-8585000D02*
X20335000Y-8615000D01*
X20335000Y-8685000D02*
X20365000Y-8715000D01*
X20365000Y-8685000D02*
X20335000Y-8715000D01*
X20335000Y-8785000D02*
X20365000Y-8815000D01*
X20365000Y-8785000D02*
X20335000Y-8815000D01*
X20335000Y-8885000D02*
X20365000Y-8915000D01*
X20365000Y-8885000D02*
X20335000Y-8915000D01*
X20335000Y-8985000D02*
X20365000Y-9015000D01*
X20365000Y-8985000D02*
X20335000Y-9015000D01*
X20335000Y-9085000D02*
X20365000Y-9115000D01*
X20365000Y-9085000D02*
X20335000Y-9115000D01*
X20335000Y-9385000D02*
X20365000Y-9415000D01*
X20365000Y-9385000D02*
X20335000Y-9415000D01*
X20335000Y-9485000D02*
X20365000Y-9515000D01*
X20365000Y-9485000D02*
X20335000Y-9515000D01*
X20335000Y-9585000D02*
X20365000Y-9615000D01*
X20365000Y-9585000D02*
X20335000Y-9615000D01*
X20335000Y-9885000D02*
X20365000Y-9915000D01*
X20365000Y-9885000D02*
X20335000Y-9915000D01*
X20335000Y-9985000D02*
X20365000Y-10015000D01*
X20365000Y-9985000D02*
X20335000Y-10015000D01*
X20335000Y-10085000D02*
X20365000Y-10115000D01*
X20365000Y-10085000D02*
X20335000Y-10115000D01*
X20335000Y-10385000D02*
X20365000Y-10415000D01*
X20365000Y-10385000D02*
X20335000Y-10415000D01*
X20335000Y-10485000D02*
X20365000Y-10515000D01*
X20365000Y-10485000D02*
X20335000Y-10515000D01*
X20335000Y-10985000D02*
X20365000Y-11015000D01*
X20365000Y-10985000D02*
X20335000Y-11015000D01*
X20335000Y-11085000D02*
X20365000Y-11115000D01*
X20365000Y-11085000D02*
X20335000Y-11115000D01*
X20335000Y-11385000D02*
X20365000Y-11415000D01*
X20365000Y-11385000D02*
X20335000Y-11415000D01*
X20335000Y-11485000D02*
X20365000Y-11515000D01*
X20365000Y-11485000D02*
X20335000Y-11515000D01*
X20335000Y-11985000D02*
X20365000Y-12015000D01*
X20365000Y-11985000D02*
X20335000Y-12015000D01*
X20335000Y-12085000D02*
X20365000Y-12115000D01*
X20365000Y-12085000D02*
X20335000Y-12115000D01*
X20335000Y-12185000D02*
X20365000Y-12215000D01*
X20365000Y-12185000D02*
X20335000Y-12215000D01*
X20335000Y-12285000D02*
X20365000Y-12315000D01*
X20365000Y-12285000D02*
X20335000Y-12315000D01*
X20335000Y-12385000D02*
X20365000Y-12415000D01*
X20365000Y-12385000D02*
X20335000Y-12415000D01*
X20335000Y-12485000D02*
X20365000Y-12515000D01*
X20365000Y-12485000D02*
X20335000Y-12515000D01*
X20335000Y-12585000D02*
X20365000Y-12615000D01*
X20365000Y-12585000D02*
X20335000Y-12615000D01*
X20335000Y-12685000D02*
X20365000Y-12715000D01*
X20365000Y-12685000D02*
X20335000Y-12715000D01*
X20335000Y-12785000D02*
X20365000Y-12815000D01*
X20365000Y-12785000D02*
X20335000Y-12815000D01*
X20335000Y-13085000D02*
X20365000Y-13115000D01*
X20365000Y-13085000D02*
X20335000Y-13115000D01*
X20335000Y-13185000D02*
X20365000Y-13215000D01*
X20365000Y-13185000D02*
X20335000Y-13215000D01*
X20335000Y-13285000D02*
X20365000Y-13315000D01*
X20365000Y-13285000D02*
X20335000Y-13315000D01*
X20335000Y-13385000D02*
X20365000Y-13415000D01*
X20365000Y-13385000D02*
X20335000Y-13415000D01*
X20335000Y-13485000D02*
X20365000Y-13515000D01*
X20365000Y-13485000D02*
X20335000Y-13515000D01*
X20335000Y-13585000D02*
X20365000Y-13615000D01*
X20365000Y-13585000D02*
X20335000Y-13615000D01*
X20335000Y-13685000D02*
X20365000Y-13715000D01*
X20365000Y-13685000D02*
X20335000Y-13715000D01*
X20335000Y-13785000D02*
X20365000Y-13815000D01*
X20365000Y-13785000D02*
X20335000Y-13815000D01*
X20335000Y-13885000D02*
X20365000Y-13915000D01*
X20365000Y-13885000D02*
X20335000Y-13915000D01*
X20335000Y-13985000D02*
X20365000Y-14015000D01*
X20365000Y-13985000D02*
X20335000Y-14015000D01*
X16813000Y-6437000D02*
G75*
G02*
X16753000Y-6437000I-30000J0D01*
G01*
X16753000Y-6437000D02*
G75*
G02*
X16813000Y-6437000I30000J0D01*
G01*
X16813000Y-6477000D02*
X16813000Y-6397000D01*
X16753000Y-6397000D02*
G75*
G02*
X16813000Y-6397000I30000J0D01*
G01*
X16753000Y-6397000D02*
X16753000Y-6477000D01*
X16753000Y-6477000D02*
G75*
G03*
X16813000Y-6477000I30000J0D01*
G01*
X16813000Y-6857000D02*
G75*
G02*
X16753000Y-6857000I-30000J0D01*
G01*
X16753000Y-6857000D02*
G75*
G02*
X16813000Y-6857000I30000J0D01*
G01*
X16813000Y-6912000D02*
X16813000Y-6802000D01*
X16753000Y-6802000D02*
G75*
G02*
X16813000Y-6802000I30000J0D01*
G01*
X16753000Y-6802000D02*
X16753000Y-6912000D01*
X16753000Y-6912000D02*
G75*
G03*
X16813000Y-6912000I30000J0D01*
G01*
X17677000Y-6437000D02*
G75*
G02*
X17617000Y-6437000I-30000J0D01*
G01*
X17617000Y-6437000D02*
G75*
G02*
X17677000Y-6437000I30000J0D01*
G01*
X17677000Y-6477000D02*
X17677000Y-6397000D01*
X17617000Y-6397000D02*
G75*
G02*
X17677000Y-6397000I30000J0D01*
G01*
X17617000Y-6397000D02*
X17617000Y-6477000D01*
X17617000Y-6477000D02*
G75*
G03*
X17677000Y-6477000I30000J0D01*
G01*
X17677000Y-6857000D02*
G75*
G02*
X17617000Y-6857000I-30000J0D01*
G01*
X17617000Y-6857000D02*
G75*
G02*
X17677000Y-6857000I30000J0D01*
G01*
X17677000Y-6912000D02*
X17677000Y-6802000D01*
X17617000Y-6802000D02*
G75*
G02*
X17677000Y-6802000I30000J0D01*
G01*
X17617000Y-6802000D02*
X17617000Y-6912000D01*
X17617000Y-6912000D02*
G75*
G03*
X17677000Y-6912000I30000J0D01*
G01*
X17733000Y-12400000D02*
X17733000Y-12500000D01*
X17683000Y-12450000D02*
X17783000Y-12450000D01*
X17733000Y-12654000D02*
X17733000Y-12754000D01*
X17683000Y-12704000D02*
X17783000Y-12704000D01*
X17733000Y-12908000D02*
X17733000Y-13008000D01*
X17683000Y-12958000D02*
X17783000Y-12958000D01*
X17987000Y-12400000D02*
X17987000Y-12500000D01*
X17937000Y-12450000D02*
X18037000Y-12450000D01*
X17987000Y-12654000D02*
X17987000Y-12754000D01*
X17937000Y-12704000D02*
X18037000Y-12704000D01*
X17987000Y-12908000D02*
X17987000Y-13008000D01*
X17937000Y-12958000D02*
X18037000Y-12958000D01*
X18241000Y-12400000D02*
X18241000Y-12500000D01*
X18191000Y-12450000D02*
X18291000Y-12450000D01*
X18241000Y-12654000D02*
X18241000Y-12754000D01*
X18191000Y-12704000D02*
X18291000Y-12704000D01*
X18241000Y-12908000D02*
X18241000Y-13008000D01*
X18191000Y-12958000D02*
X18291000Y-12958000D01*
X18495000Y-12400000D02*
X18495000Y-12500000D01*
X18445000Y-12450000D02*
X18545000Y-12450000D01*
X18495000Y-12654000D02*
X18495000Y-12754000D01*
X18445000Y-12704000D02*
X18545000Y-12704000D01*
X18495000Y-12908000D02*
X18495000Y-13008000D01*
X18445000Y-12958000D02*
X18545000Y-12958000D01*
X18749000Y-12400000D02*
X18749000Y-12500000D01*
X18699000Y-12450000D02*
X18799000Y-12450000D01*
X18749000Y-12654000D02*
X18749000Y-12754000D01*
X18699000Y-12704000D02*
X18799000Y-12704000D01*
X18749000Y-12908000D02*
X18749000Y-13008000D01*
X18699000Y-12958000D02*
X18799000Y-12958000D01*
X19003000Y-12400000D02*
X19003000Y-12500000D01*
X18953000Y-12450000D02*
X19053000Y-12450000D01*
X19003000Y-12654000D02*
X19003000Y-12754000D01*
X18953000Y-12704000D02*
X19053000Y-12704000D01*
X19003000Y-12908000D02*
X19003000Y-13008000D01*
X18953000Y-12958000D02*
X19053000Y-12958000D01*
X19257000Y-12400000D02*
X19257000Y-12500000D01*
X19207000Y-12450000D02*
X19307000Y-12450000D01*
X19257000Y-12654000D02*
X19257000Y-12754000D01*
X19207000Y-12704000D02*
X19307000Y-12704000D01*
X19257000Y-12908000D02*
X19257000Y-13008000D01*
X19207000Y-12958000D02*
X19307000Y-12958000D01*
X19511000Y-12400000D02*
X19511000Y-12500000D01*
X19461000Y-12450000D02*
X19561000Y-12450000D01*
X19511000Y-12654000D02*
X19511000Y-12754000D01*
X19461000Y-12704000D02*
X19561000Y-12704000D01*
X19511000Y-12908000D02*
X19511000Y-13008000D01*
X19461000Y-12958000D02*
X19561000Y-12958000D01*
X19765000Y-12400000D02*
X19765000Y-12500000D01*
X19715000Y-12450000D02*
X19815000Y-12450000D01*
X19765000Y-12654000D02*
X19765000Y-12754000D01*
X19715000Y-12704000D02*
X19815000Y-12704000D01*
X19765000Y-12908000D02*
X19765000Y-13008000D01*
X19715000Y-12958000D02*
X19815000Y-12958000D01*
D13*
X16929891Y-7262891D02*
X16929891Y-7185109D01*
X16852109Y-7185109D01*
X16852109Y-7262891D01*
X16929891Y-7262891D01*
X16929891Y-7712891D02*
X16929891Y-7635109D01*
X16852109Y-7635109D01*
X16852109Y-7712891D01*
X16929891Y-7712891D01*
X17579891Y-7262891D02*
X17579891Y-7185109D01*
X17502109Y-7185109D01*
X17502109Y-7262891D01*
X17579891Y-7262891D01*
X17579891Y-7712891D02*
X17579891Y-7635109D01*
X17502109Y-7635109D01*
X17502109Y-7712891D01*
X17579891Y-7712891D01*
D14*
X17095000Y-9369000D02*
X17160000Y-9304000D01*
X17095000Y-9239000D01*
X17030000Y-9304000D01*
X17095000Y-9369000D01*
X17095000Y-9869000D02*
X17160000Y-9804000D01*
X17095000Y-9739000D01*
X17030000Y-9804000D01*
X17095000Y-9869000D01*
X17095000Y-10369000D02*
X17160000Y-10304000D01*
X17095000Y-10239000D01*
X17030000Y-10304000D01*
X17095000Y-10369000D01*
X17095000Y-10869000D02*
X17160000Y-10804000D01*
X17095000Y-10739000D01*
X17030000Y-10804000D01*
X17095000Y-10869000D01*
X17095000Y-11369000D02*
X17160000Y-11304000D01*
X17095000Y-11239000D01*
X17030000Y-11304000D01*
X17095000Y-11369000D01*
X17095000Y-11869000D02*
X17160000Y-11804000D01*
X17095000Y-11739000D01*
X17030000Y-11804000D01*
X17095000Y-11869000D01*
X17095000Y-12569000D02*
X17160000Y-12504000D01*
X17095000Y-12439000D01*
X17030000Y-12504000D01*
X17095000Y-12569000D01*
X17095000Y-13069000D02*
X17160000Y-13004000D01*
X17095000Y-12939000D01*
X17030000Y-13004000D01*
X17095000Y-13069000D01*
X17637000Y-13872000D02*
X17702000Y-13807000D01*
X17637000Y-13742000D01*
X17572000Y-13807000D01*
X17637000Y-13872000D01*
X18137000Y-13872000D02*
X18202000Y-13807000D01*
X18137000Y-13742000D01*
X18072000Y-13807000D01*
X18137000Y-13872000D01*
X18814000Y-13872000D02*
X18879000Y-13807000D01*
X18814000Y-13742000D01*
X18749000Y-13807000D01*
X18814000Y-13872000D01*
X19314000Y-13872000D02*
X19379000Y-13807000D01*
X19314000Y-13742000D01*
X19249000Y-13807000D01*
X19314000Y-13872000D01*
X19795000Y-9329000D02*
X19860000Y-9264000D01*
X19795000Y-9199000D01*
X19730000Y-9264000D01*
X19795000Y-9329000D01*
X19795000Y-9829000D02*
X19860000Y-9764000D01*
X19795000Y-9699000D01*
X19730000Y-9764000D01*
X19795000Y-9829000D01*
X19795000Y-10329000D02*
X19860000Y-10264000D01*
X19795000Y-10199000D01*
X19730000Y-10264000D01*
X19795000Y-10329000D01*
X19795000Y-10829000D02*
X19860000Y-10764000D01*
X19795000Y-10699000D01*
X19730000Y-10764000D01*
X19795000Y-10829000D01*
X19795000Y-11329000D02*
X19860000Y-11264000D01*
X19795000Y-11199000D01*
X19730000Y-11264000D01*
X19795000Y-11329000D01*
X19795000Y-11829000D02*
X19860000Y-11764000D01*
X19795000Y-11699000D01*
X19730000Y-11764000D01*
X19795000Y-11829000D01*
D15*
X16790000Y-8440000D02*
X17110000Y-8760000D01*
X17110000Y-8440000D02*
X16790000Y-8760000D01*
X17110000Y-8600000D02*
G75*
G02*
X16790000Y-8600000I-160000J0D01*
G01*
X16790000Y-8600000D02*
G75*
G02*
X17110000Y-8600000I160000J0D01*
G01*
X16790000Y-13790000D02*
X17110000Y-14110000D01*
X17110000Y-13790000D02*
X16790000Y-14110000D01*
X17110000Y-13950000D02*
G75*
G02*
X16790000Y-13950000I-160000J0D01*
G01*
X16790000Y-13950000D02*
G75*
G02*
X17110000Y-13950000I160000J0D01*
G01*
X19790000Y-8440000D02*
X20110000Y-8760000D01*
X20110000Y-8440000D02*
X19790000Y-8760000D01*
X20110000Y-8600000D02*
G75*
G02*
X19790000Y-8600000I-160000J0D01*
G01*
X19790000Y-8600000D02*
G75*
G02*
X20110000Y-8600000I160000J0D01*
G01*
X19790000Y-13790000D02*
X20110000Y-14110000D01*
X20110000Y-13790000D02*
X19790000Y-14110000D01*
X20110000Y-13950000D02*
G75*
G02*
X19790000Y-13950000I-160000J0D01*
G01*
X19790000Y-13950000D02*
G75*
G02*
X20110000Y-13950000I160000J0D01*
G01*
D11*
X16708277Y-14763984D02*
X16708277Y-14563984D01*
X16708277Y-14563984D02*
X16755896Y-14563984D01*
X16755896Y-14563984D02*
X16784467Y-14573508D01*
X16784467Y-14573508D02*
X16803515Y-14592555D01*
X16803515Y-14592555D02*
X16813039Y-14611603D01*
X16813039Y-14611603D02*
X16822563Y-14649698D01*
X16822563Y-14649698D02*
X16822563Y-14678269D01*
X16822563Y-14678269D02*
X16813039Y-14716365D01*
X16813039Y-14716365D02*
X16803515Y-14735412D01*
X16803515Y-14735412D02*
X16784467Y-14754460D01*
X16784467Y-14754460D02*
X16755896Y-14763984D01*
X16755896Y-14763984D02*
X16708277Y-14763984D01*
X16908277Y-14763984D02*
X16908277Y-14630650D01*
X16908277Y-14668746D02*
X16917801Y-14649698D01*
X16917801Y-14649698D02*
X16927324Y-14640174D01*
X16927324Y-14640174D02*
X16946372Y-14630650D01*
X16946372Y-14630650D02*
X16965420Y-14630650D01*
X17032086Y-14763984D02*
X17032086Y-14630650D01*
X17032086Y-14563984D02*
X17022563Y-14573508D01*
X17022563Y-14573508D02*
X17032086Y-14583031D01*
X17032086Y-14583031D02*
X17041610Y-14573508D01*
X17041610Y-14573508D02*
X17032086Y-14563984D01*
X17032086Y-14563984D02*
X17032086Y-14583031D01*
X17155896Y-14763984D02*
X17136848Y-14754460D01*
X17136848Y-14754460D02*
X17127324Y-14735412D01*
X17127324Y-14735412D02*
X17127324Y-14563984D01*
X17260658Y-14763984D02*
X17241610Y-14754460D01*
X17241610Y-14754460D02*
X17232086Y-14735412D01*
X17232086Y-14735412D02*
X17232086Y-14563984D01*
X17489229Y-14763984D02*
X17489229Y-14563984D01*
X17489229Y-14563984D02*
X17555896Y-14706841D01*
X17555896Y-14706841D02*
X17622563Y-14563984D01*
X17622563Y-14563984D02*
X17622563Y-14763984D01*
X17803515Y-14763984D02*
X17803515Y-14659222D01*
X17803515Y-14659222D02*
X17793991Y-14640174D01*
X17793991Y-14640174D02*
X17774944Y-14630650D01*
X17774944Y-14630650D02*
X17736848Y-14630650D01*
X17736848Y-14630650D02*
X17717801Y-14640174D01*
X17803515Y-14754460D02*
X17784467Y-14763984D01*
X17784467Y-14763984D02*
X17736848Y-14763984D01*
X17736848Y-14763984D02*
X17717801Y-14754460D01*
X17717801Y-14754460D02*
X17708277Y-14735412D01*
X17708277Y-14735412D02*
X17708277Y-14716365D01*
X17708277Y-14716365D02*
X17717801Y-14697317D01*
X17717801Y-14697317D02*
X17736848Y-14687793D01*
X17736848Y-14687793D02*
X17784467Y-14687793D01*
X17784467Y-14687793D02*
X17803515Y-14678269D01*
X17898753Y-14630650D02*
X17898753Y-14830650D01*
X17898753Y-14640174D02*
X17917801Y-14630650D01*
X17917801Y-14630650D02*
X17955896Y-14630650D01*
X17955896Y-14630650D02*
X17974944Y-14640174D01*
X17974944Y-14640174D02*
X17984467Y-14649698D01*
X17984467Y-14649698D02*
X17993991Y-14668746D01*
X17993991Y-14668746D02*
X17993991Y-14725888D01*
X17993991Y-14725888D02*
X17984467Y-14744936D01*
X17984467Y-14744936D02*
X17974944Y-14754460D01*
X17974944Y-14754460D02*
X17955896Y-14763984D01*
X17955896Y-14763984D02*
X17917801Y-14763984D01*
X17917801Y-14763984D02*
X17898753Y-14754460D01*
X18079705Y-14744936D02*
X18089229Y-14754460D01*
X18089229Y-14754460D02*
X18079705Y-14763984D01*
X18079705Y-14763984D02*
X18070182Y-14754460D01*
X18070182Y-14754460D02*
X18079705Y-14744936D01*
X18079705Y-14744936D02*
X18079705Y-14763984D01*
X18079705Y-14640174D02*
X18089229Y-14649698D01*
X18089229Y-14649698D02*
X18079705Y-14659222D01*
X18079705Y-14659222D02*
X18070182Y-14649698D01*
X18070182Y-14649698D02*
X18079705Y-14640174D01*
X18079705Y-14640174D02*
X18079705Y-14659222D01*
D12*
X16417500Y-15077500D02*
X16447500Y-15107500D01*
X16447500Y-15077500D02*
X16417500Y-15107500D01*
D11*
X16746372Y-14983984D02*
X16765420Y-14983984D01*
X16765420Y-14983984D02*
X16784467Y-14993508D01*
X16784467Y-14993508D02*
X16793991Y-15003031D01*
X16793991Y-15003031D02*
X16803515Y-15022079D01*
X16803515Y-15022079D02*
X16813039Y-15060174D01*
X16813039Y-15060174D02*
X16813039Y-15107793D01*
X16813039Y-15107793D02*
X16803515Y-15145888D01*
X16803515Y-15145888D02*
X16793991Y-15164936D01*
X16793991Y-15164936D02*
X16784467Y-15174460D01*
X16784467Y-15174460D02*
X16765420Y-15183984D01*
X16765420Y-15183984D02*
X16746372Y-15183984D01*
X16746372Y-15183984D02*
X16727324Y-15174460D01*
X16727324Y-15174460D02*
X16717801Y-15164936D01*
X16717801Y-15164936D02*
X16708277Y-15145888D01*
X16708277Y-15145888D02*
X16698753Y-15107793D01*
X16698753Y-15107793D02*
X16698753Y-15060174D01*
X16698753Y-15060174D02*
X16708277Y-15022079D01*
X16708277Y-15022079D02*
X16717801Y-15003031D01*
X16717801Y-15003031D02*
X16727324Y-14993508D01*
X16727324Y-14993508D02*
X16746372Y-14983984D01*
X16898753Y-15164936D02*
X16908277Y-15174460D01*
X16908277Y-15174460D02*
X16898753Y-15183984D01*
X16898753Y-15183984D02*
X16889229Y-15174460D01*
X16889229Y-15174460D02*
X16898753Y-15164936D01*
X16898753Y-15164936D02*
X16898753Y-15183984D01*
X16974944Y-14983984D02*
X17098753Y-14983984D01*
X17098753Y-14983984D02*
X17032086Y-15060174D01*
X17032086Y-15060174D02*
X17060658Y-15060174D01*
X17060658Y-15060174D02*
X17079705Y-15069698D01*
X17079705Y-15069698D02*
X17089229Y-15079222D01*
X17089229Y-15079222D02*
X17098753Y-15098269D01*
X17098753Y-15098269D02*
X17098753Y-15145888D01*
X17098753Y-15145888D02*
X17089229Y-15164936D01*
X17089229Y-15164936D02*
X17079705Y-15174460D01*
X17079705Y-15174460D02*
X17060658Y-15183984D01*
X17060658Y-15183984D02*
X17003515Y-15183984D01*
X17003515Y-15183984D02*
X16984467Y-15174460D01*
X16984467Y-15174460D02*
X16974944Y-15164936D01*
X17222563Y-14983984D02*
X17241610Y-14983984D01*
X17241610Y-14983984D02*
X17260658Y-14993508D01*
X17260658Y-14993508D02*
X17270182Y-15003031D01*
X17270182Y-15003031D02*
X17279705Y-15022079D01*
X17279705Y-15022079D02*
X17289229Y-15060174D01*
X17289229Y-15060174D02*
X17289229Y-15107793D01*
X17289229Y-15107793D02*
X17279705Y-15145888D01*
X17279705Y-15145888D02*
X17270182Y-15164936D01*
X17270182Y-15164936D02*
X17260658Y-15174460D01*
X17260658Y-15174460D02*
X17241610Y-15183984D01*
X17241610Y-15183984D02*
X17222563Y-15183984D01*
X17222563Y-15183984D02*
X17203515Y-15174460D01*
X17203515Y-15174460D02*
X17193991Y-15164936D01*
X17193991Y-15164936D02*
X17184467Y-15145888D01*
X17184467Y-15145888D02*
X17174944Y-15107793D01*
X17174944Y-15107793D02*
X17174944Y-15060174D01*
X17174944Y-15060174D02*
X17184467Y-15022079D01*
X17184467Y-15022079D02*
X17193991Y-15003031D01*
X17193991Y-15003031D02*
X17203515Y-14993508D01*
X17203515Y-14993508D02*
X17222563Y-14983984D01*
X17413039Y-14983984D02*
X17432086Y-14983984D01*
X17432086Y-14983984D02*
X17451134Y-14993508D01*
X17451134Y-14993508D02*
X17460658Y-15003031D01*
X17460658Y-15003031D02*
X17470182Y-15022079D01*
X17470182Y-15022079D02*
X17479705Y-15060174D01*
X17479705Y-15060174D02*
X17479705Y-15107793D01*
X17479705Y-15107793D02*
X17470182Y-15145888D01*
X17470182Y-15145888D02*
X17460658Y-15164936D01*
X17460658Y-15164936D02*
X17451134Y-15174460D01*
X17451134Y-15174460D02*
X17432086Y-15183984D01*
X17432086Y-15183984D02*
X17413039Y-15183984D01*
X17413039Y-15183984D02*
X17393991Y-15174460D01*
X17393991Y-15174460D02*
X17384467Y-15164936D01*
X17384467Y-15164936D02*
X17374944Y-15145888D01*
X17374944Y-15145888D02*
X17365420Y-15107793D01*
X17365420Y-15107793D02*
X17365420Y-15060174D01*
X17365420Y-15060174D02*
X17374944Y-15022079D01*
X17374944Y-15022079D02*
X17384467Y-15003031D01*
X17384467Y-15003031D02*
X17393991Y-14993508D01*
X17393991Y-14993508D02*
X17413039Y-14983984D01*
X17565420Y-15183984D02*
X17565420Y-15050650D01*
X17565420Y-15069698D02*
X17574944Y-15060174D01*
X17574944Y-15060174D02*
X17593991Y-15050650D01*
X17593991Y-15050650D02*
X17622563Y-15050650D01*
X17622563Y-15050650D02*
X17641610Y-15060174D01*
X17641610Y-15060174D02*
X17651134Y-15079222D01*
X17651134Y-15079222D02*
X17651134Y-15183984D01*
X17651134Y-15079222D02*
X17660658Y-15060174D01*
X17660658Y-15060174D02*
X17679705Y-15050650D01*
X17679705Y-15050650D02*
X17708277Y-15050650D01*
X17708277Y-15050650D02*
X17727325Y-15060174D01*
X17727325Y-15060174D02*
X17736848Y-15079222D01*
X17736848Y-15079222D02*
X17736848Y-15183984D01*
X17832086Y-15183984D02*
X17832086Y-15050650D01*
X17832086Y-15069698D02*
X17841610Y-15060174D01*
X17841610Y-15060174D02*
X17860658Y-15050650D01*
X17860658Y-15050650D02*
X17889229Y-15050650D01*
X17889229Y-15050650D02*
X17908277Y-15060174D01*
X17908277Y-15060174D02*
X17917801Y-15079222D01*
X17917801Y-15079222D02*
X17917801Y-15183984D01*
X17917801Y-15079222D02*
X17927325Y-15060174D01*
X17927325Y-15060174D02*
X17946372Y-15050650D01*
X17946372Y-15050650D02*
X17974944Y-15050650D01*
X17974944Y-15050650D02*
X17993991Y-15060174D01*
X17993991Y-15060174D02*
X18003515Y-15079222D01*
X18003515Y-15079222D02*
X18003515Y-15183984D01*
X18393991Y-14974460D02*
X18222563Y-15231603D01*
X18651134Y-14983984D02*
X18670182Y-14983984D01*
X18670182Y-14983984D02*
X18689229Y-14993508D01*
X18689229Y-14993508D02*
X18698753Y-15003031D01*
X18698753Y-15003031D02*
X18708277Y-15022079D01*
X18708277Y-15022079D02*
X18717801Y-15060174D01*
X18717801Y-15060174D02*
X18717801Y-15107793D01*
X18717801Y-15107793D02*
X18708277Y-15145888D01*
X18708277Y-15145888D02*
X18698753Y-15164936D01*
X18698753Y-15164936D02*
X18689229Y-15174460D01*
X18689229Y-15174460D02*
X18670182Y-15183984D01*
X18670182Y-15183984D02*
X18651134Y-15183984D01*
X18651134Y-15183984D02*
X18632087Y-15174460D01*
X18632087Y-15174460D02*
X18622563Y-15164936D01*
X18622563Y-15164936D02*
X18613039Y-15145888D01*
X18613039Y-15145888D02*
X18603515Y-15107793D01*
X18603515Y-15107793D02*
X18603515Y-15060174D01*
X18603515Y-15060174D02*
X18613039Y-15022079D01*
X18613039Y-15022079D02*
X18622563Y-15003031D01*
X18622563Y-15003031D02*
X18632087Y-14993508D01*
X18632087Y-14993508D02*
X18651134Y-14983984D01*
X18803515Y-15164936D02*
X18813039Y-15174460D01*
X18813039Y-15174460D02*
X18803515Y-15183984D01*
X18803515Y-15183984D02*
X18793991Y-15174460D01*
X18793991Y-15174460D02*
X18803515Y-15164936D01*
X18803515Y-15164936D02*
X18803515Y-15183984D01*
X18936848Y-14983984D02*
X18955896Y-14983984D01*
X18955896Y-14983984D02*
X18974944Y-14993508D01*
X18974944Y-14993508D02*
X18984468Y-15003031D01*
X18984468Y-15003031D02*
X18993991Y-15022079D01*
X18993991Y-15022079D02*
X19003515Y-15060174D01*
X19003515Y-15060174D02*
X19003515Y-15107793D01*
X19003515Y-15107793D02*
X18993991Y-15145888D01*
X18993991Y-15145888D02*
X18984468Y-15164936D01*
X18984468Y-15164936D02*
X18974944Y-15174460D01*
X18974944Y-15174460D02*
X18955896Y-15183984D01*
X18955896Y-15183984D02*
X18936848Y-15183984D01*
X18936848Y-15183984D02*
X18917801Y-15174460D01*
X18917801Y-15174460D02*
X18908277Y-15164936D01*
X18908277Y-15164936D02*
X18898753Y-15145888D01*
X18898753Y-15145888D02*
X18889229Y-15107793D01*
X18889229Y-15107793D02*
X18889229Y-15060174D01*
X18889229Y-15060174D02*
X18898753Y-15022079D01*
X18898753Y-15022079D02*
X18908277Y-15003031D01*
X18908277Y-15003031D02*
X18917801Y-14993508D01*
X18917801Y-14993508D02*
X18936848Y-14983984D01*
X19193991Y-15183984D02*
X19079706Y-15183984D01*
X19136848Y-15183984D02*
X19136848Y-14983984D01*
X19136848Y-14983984D02*
X19117801Y-15012555D01*
X19117801Y-15012555D02*
X19098753Y-15031603D01*
X19098753Y-15031603D02*
X19079706Y-15041127D01*
X19384468Y-15183984D02*
X19270182Y-15183984D01*
X19327325Y-15183984D02*
X19327325Y-14983984D01*
X19327325Y-14983984D02*
X19308277Y-15012555D01*
X19308277Y-15012555D02*
X19289229Y-15031603D01*
X19289229Y-15031603D02*
X19270182Y-15041127D01*
X19498753Y-15069698D02*
X19479706Y-15060174D01*
X19479706Y-15060174D02*
X19470182Y-15050650D01*
X19470182Y-15050650D02*
X19460658Y-15031603D01*
X19460658Y-15031603D02*
X19460658Y-15022079D01*
X19460658Y-15022079D02*
X19470182Y-15003031D01*
X19470182Y-15003031D02*
X19479706Y-14993508D01*
X19479706Y-14993508D02*
X19498753Y-14983984D01*
X19498753Y-14983984D02*
X19536849Y-14983984D01*
X19536849Y-14983984D02*
X19555896Y-14993508D01*
X19555896Y-14993508D02*
X19565420Y-15003031D01*
X19565420Y-15003031D02*
X19574944Y-15022079D01*
X19574944Y-15022079D02*
X19574944Y-15031603D01*
X19574944Y-15031603D02*
X19565420Y-15050650D01*
X19565420Y-15050650D02*
X19555896Y-15060174D01*
X19555896Y-15060174D02*
X19536849Y-15069698D01*
X19536849Y-15069698D02*
X19498753Y-15069698D01*
X19498753Y-15069698D02*
X19479706Y-15079222D01*
X19479706Y-15079222D02*
X19470182Y-15088746D01*
X19470182Y-15088746D02*
X19460658Y-15107793D01*
X19460658Y-15107793D02*
X19460658Y-15145888D01*
X19460658Y-15145888D02*
X19470182Y-15164936D01*
X19470182Y-15164936D02*
X19479706Y-15174460D01*
X19479706Y-15174460D02*
X19498753Y-15183984D01*
X19498753Y-15183984D02*
X19536849Y-15183984D01*
X19536849Y-15183984D02*
X19555896Y-15174460D01*
X19555896Y-15174460D02*
X19565420Y-15164936D01*
X19565420Y-15164936D02*
X19574944Y-15145888D01*
X19574944Y-15145888D02*
X19574944Y-15107793D01*
X19574944Y-15107793D02*
X19565420Y-15088746D01*
X19565420Y-15088746D02*
X19555896Y-15079222D01*
X19555896Y-15079222D02*
X19536849Y-15069698D01*
X19651134Y-14983984D02*
X19651134Y-15022079D01*
X19727325Y-14983984D02*
X19727325Y-15022079D01*
X20022563Y-15260174D02*
X20013039Y-15250650D01*
X20013039Y-15250650D02*
X19993991Y-15222079D01*
X19993991Y-15222079D02*
X19984468Y-15203031D01*
X19984468Y-15203031D02*
X19974944Y-15174460D01*
X19974944Y-15174460D02*
X19965420Y-15126841D01*
X19965420Y-15126841D02*
X19965420Y-15088746D01*
X19965420Y-15088746D02*
X19974944Y-15041127D01*
X19974944Y-15041127D02*
X19984468Y-15012555D01*
X19984468Y-15012555D02*
X19993991Y-14993508D01*
X19993991Y-14993508D02*
X20013039Y-14964936D01*
X20013039Y-14964936D02*
X20022563Y-14955412D01*
X20089230Y-15003031D02*
X20098753Y-14993508D01*
X20098753Y-14993508D02*
X20117801Y-14983984D01*
X20117801Y-14983984D02*
X20165420Y-14983984D01*
X20165420Y-14983984D02*
X20184468Y-14993508D01*
X20184468Y-14993508D02*
X20193991Y-15003031D01*
X20193991Y-15003031D02*
X20203515Y-15022079D01*
X20203515Y-15022079D02*
X20203515Y-15041127D01*
X20203515Y-15041127D02*
X20193991Y-15069698D01*
X20193991Y-15069698D02*
X20079706Y-15183984D01*
X20079706Y-15183984D02*
X20203515Y-15183984D01*
X20317801Y-15069698D02*
X20298753Y-15060174D01*
X20298753Y-15060174D02*
X20289230Y-15050650D01*
X20289230Y-15050650D02*
X20279706Y-15031603D01*
X20279706Y-15031603D02*
X20279706Y-15022079D01*
X20279706Y-15022079D02*
X20289230Y-15003031D01*
X20289230Y-15003031D02*
X20298753Y-14993508D01*
X20298753Y-14993508D02*
X20317801Y-14983984D01*
X20317801Y-14983984D02*
X20355896Y-14983984D01*
X20355896Y-14983984D02*
X20374944Y-14993508D01*
X20374944Y-14993508D02*
X20384468Y-15003031D01*
X20384468Y-15003031D02*
X20393991Y-15022079D01*
X20393991Y-15022079D02*
X20393991Y-15031603D01*
X20393991Y-15031603D02*
X20384468Y-15050650D01*
X20384468Y-15050650D02*
X20374944Y-15060174D01*
X20374944Y-15060174D02*
X20355896Y-15069698D01*
X20355896Y-15069698D02*
X20317801Y-15069698D01*
X20317801Y-15069698D02*
X20298753Y-15079222D01*
X20298753Y-15079222D02*
X20289230Y-15088746D01*
X20289230Y-15088746D02*
X20279706Y-15107793D01*
X20279706Y-15107793D02*
X20279706Y-15145888D01*
X20279706Y-15145888D02*
X20289230Y-15164936D01*
X20289230Y-15164936D02*
X20298753Y-15174460D01*
X20298753Y-15174460D02*
X20317801Y-15183984D01*
X20317801Y-15183984D02*
X20355896Y-15183984D01*
X20355896Y-15183984D02*
X20374944Y-15174460D01*
X20374944Y-15174460D02*
X20384468Y-15164936D01*
X20384468Y-15164936D02*
X20393991Y-15145888D01*
X20393991Y-15145888D02*
X20393991Y-15107793D01*
X20393991Y-15107793D02*
X20384468Y-15088746D01*
X20384468Y-15088746D02*
X20374944Y-15079222D01*
X20374944Y-15079222D02*
X20355896Y-15069698D01*
X20460658Y-14983984D02*
X20593991Y-14983984D01*
X20593991Y-14983984D02*
X20508277Y-15183984D01*
X20822563Y-15183984D02*
X20822563Y-14983984D01*
X20908277Y-15183984D02*
X20908277Y-15079222D01*
X20908277Y-15079222D02*
X20898753Y-15060174D01*
X20898753Y-15060174D02*
X20879706Y-15050650D01*
X20879706Y-15050650D02*
X20851134Y-15050650D01*
X20851134Y-15050650D02*
X20832087Y-15060174D01*
X20832087Y-15060174D02*
X20822563Y-15069698D01*
X21032087Y-15183984D02*
X21013039Y-15174460D01*
X21013039Y-15174460D02*
X21003515Y-15164936D01*
X21003515Y-15164936D02*
X20993992Y-15145888D01*
X20993992Y-15145888D02*
X20993992Y-15088746D01*
X20993992Y-15088746D02*
X21003515Y-15069698D01*
X21003515Y-15069698D02*
X21013039Y-15060174D01*
X21013039Y-15060174D02*
X21032087Y-15050650D01*
X21032087Y-15050650D02*
X21060658Y-15050650D01*
X21060658Y-15050650D02*
X21079706Y-15060174D01*
X21079706Y-15060174D02*
X21089230Y-15069698D01*
X21089230Y-15069698D02*
X21098753Y-15088746D01*
X21098753Y-15088746D02*
X21098753Y-15145888D01*
X21098753Y-15145888D02*
X21089230Y-15164936D01*
X21089230Y-15164936D02*
X21079706Y-15174460D01*
X21079706Y-15174460D02*
X21060658Y-15183984D01*
X21060658Y-15183984D02*
X21032087Y-15183984D01*
X21213039Y-15183984D02*
X21193992Y-15174460D01*
X21193992Y-15174460D02*
X21184468Y-15155412D01*
X21184468Y-15155412D02*
X21184468Y-14983984D01*
X21365420Y-15174460D02*
X21346373Y-15183984D01*
X21346373Y-15183984D02*
X21308277Y-15183984D01*
X21308277Y-15183984D02*
X21289230Y-15174460D01*
X21289230Y-15174460D02*
X21279706Y-15155412D01*
X21279706Y-15155412D02*
X21279706Y-15079222D01*
X21279706Y-15079222D02*
X21289230Y-15060174D01*
X21289230Y-15060174D02*
X21308277Y-15050650D01*
X21308277Y-15050650D02*
X21346373Y-15050650D01*
X21346373Y-15050650D02*
X21365420Y-15060174D01*
X21365420Y-15060174D02*
X21374944Y-15079222D01*
X21374944Y-15079222D02*
X21374944Y-15098269D01*
X21374944Y-15098269D02*
X21279706Y-15117317D01*
X21451134Y-15174460D02*
X21470182Y-15183984D01*
X21470182Y-15183984D02*
X21508277Y-15183984D01*
X21508277Y-15183984D02*
X21527325Y-15174460D01*
X21527325Y-15174460D02*
X21536849Y-15155412D01*
X21536849Y-15155412D02*
X21536849Y-15145888D01*
X21536849Y-15145888D02*
X21527325Y-15126841D01*
X21527325Y-15126841D02*
X21508277Y-15117317D01*
X21508277Y-15117317D02*
X21479706Y-15117317D01*
X21479706Y-15117317D02*
X21460658Y-15107793D01*
X21460658Y-15107793D02*
X21451134Y-15088746D01*
X21451134Y-15088746D02*
X21451134Y-15079222D01*
X21451134Y-15079222D02*
X21460658Y-15060174D01*
X21460658Y-15060174D02*
X21479706Y-15050650D01*
X21479706Y-15050650D02*
X21508277Y-15050650D01*
X21508277Y-15050650D02*
X21527325Y-15060174D01*
X21603515Y-15260174D02*
X21613039Y-15250650D01*
X21613039Y-15250650D02*
X21632087Y-15222079D01*
X21632087Y-15222079D02*
X21641611Y-15203031D01*
X21641611Y-15203031D02*
X21651134Y-15174460D01*
X21651134Y-15174460D02*
X21660658Y-15126841D01*
X21660658Y-15126841D02*
X21660658Y-15088746D01*
X21660658Y-15088746D02*
X21651134Y-15041127D01*
X21651134Y-15041127D02*
X21641611Y-15012555D01*
X21641611Y-15012555D02*
X21632087Y-14993508D01*
X21632087Y-14993508D02*
X21613039Y-14964936D01*
X21613039Y-14964936D02*
X21603515Y-14955412D01*
D12*
X16447500Y-15356500D02*
G75*
G02*
X16387500Y-15356500I-30000J0D01*
G01*
X16387500Y-15356500D02*
G75*
G02*
X16447500Y-15356500I30000J0D01*
G01*
D11*
X16746372Y-15247984D02*
X16765420Y-15247984D01*
X16765420Y-15247984D02*
X16784467Y-15257508D01*
X16784467Y-15257508D02*
X16793991Y-15267031D01*
X16793991Y-15267031D02*
X16803515Y-15286079D01*
X16803515Y-15286079D02*
X16813039Y-15324174D01*
X16813039Y-15324174D02*
X16813039Y-15371793D01*
X16813039Y-15371793D02*
X16803515Y-15409888D01*
X16803515Y-15409888D02*
X16793991Y-15428936D01*
X16793991Y-15428936D02*
X16784467Y-15438460D01*
X16784467Y-15438460D02*
X16765420Y-15447984D01*
X16765420Y-15447984D02*
X16746372Y-15447984D01*
X16746372Y-15447984D02*
X16727324Y-15438460D01*
X16727324Y-15438460D02*
X16717801Y-15428936D01*
X16717801Y-15428936D02*
X16708277Y-15409888D01*
X16708277Y-15409888D02*
X16698753Y-15371793D01*
X16698753Y-15371793D02*
X16698753Y-15324174D01*
X16698753Y-15324174D02*
X16708277Y-15286079D01*
X16708277Y-15286079D02*
X16717801Y-15267031D01*
X16717801Y-15267031D02*
X16727324Y-15257508D01*
X16727324Y-15257508D02*
X16746372Y-15247984D01*
X16898753Y-15428936D02*
X16908277Y-15438460D01*
X16908277Y-15438460D02*
X16898753Y-15447984D01*
X16898753Y-15447984D02*
X16889229Y-15438460D01*
X16889229Y-15438460D02*
X16898753Y-15428936D01*
X16898753Y-15428936D02*
X16898753Y-15447984D01*
X17079705Y-15247984D02*
X17041610Y-15247984D01*
X17041610Y-15247984D02*
X17022563Y-15257508D01*
X17022563Y-15257508D02*
X17013039Y-15267031D01*
X17013039Y-15267031D02*
X16993991Y-15295603D01*
X16993991Y-15295603D02*
X16984467Y-15333698D01*
X16984467Y-15333698D02*
X16984467Y-15409888D01*
X16984467Y-15409888D02*
X16993991Y-15428936D01*
X16993991Y-15428936D02*
X17003515Y-15438460D01*
X17003515Y-15438460D02*
X17022563Y-15447984D01*
X17022563Y-15447984D02*
X17060658Y-15447984D01*
X17060658Y-15447984D02*
X17079705Y-15438460D01*
X17079705Y-15438460D02*
X17089229Y-15428936D01*
X17089229Y-15428936D02*
X17098753Y-15409888D01*
X17098753Y-15409888D02*
X17098753Y-15362269D01*
X17098753Y-15362269D02*
X17089229Y-15343222D01*
X17089229Y-15343222D02*
X17079705Y-15333698D01*
X17079705Y-15333698D02*
X17060658Y-15324174D01*
X17060658Y-15324174D02*
X17022563Y-15324174D01*
X17022563Y-15324174D02*
X17003515Y-15333698D01*
X17003515Y-15333698D02*
X16993991Y-15343222D01*
X16993991Y-15343222D02*
X16984467Y-15362269D01*
X17222563Y-15247984D02*
X17241610Y-15247984D01*
X17241610Y-15247984D02*
X17260658Y-15257508D01*
X17260658Y-15257508D02*
X17270182Y-15267031D01*
X17270182Y-15267031D02*
X17279705Y-15286079D01*
X17279705Y-15286079D02*
X17289229Y-15324174D01*
X17289229Y-15324174D02*
X17289229Y-15371793D01*
X17289229Y-15371793D02*
X17279705Y-15409888D01*
X17279705Y-15409888D02*
X17270182Y-15428936D01*
X17270182Y-15428936D02*
X17260658Y-15438460D01*
X17260658Y-15438460D02*
X17241610Y-15447984D01*
X17241610Y-15447984D02*
X17222563Y-15447984D01*
X17222563Y-15447984D02*
X17203515Y-15438460D01*
X17203515Y-15438460D02*
X17193991Y-15428936D01*
X17193991Y-15428936D02*
X17184467Y-15409888D01*
X17184467Y-15409888D02*
X17174944Y-15371793D01*
X17174944Y-15371793D02*
X17174944Y-15324174D01*
X17174944Y-15324174D02*
X17184467Y-15286079D01*
X17184467Y-15286079D02*
X17193991Y-15267031D01*
X17193991Y-15267031D02*
X17203515Y-15257508D01*
X17203515Y-15257508D02*
X17222563Y-15247984D01*
X17413039Y-15247984D02*
X17432086Y-15247984D01*
X17432086Y-15247984D02*
X17451134Y-15257508D01*
X17451134Y-15257508D02*
X17460658Y-15267031D01*
X17460658Y-15267031D02*
X17470182Y-15286079D01*
X17470182Y-15286079D02*
X17479705Y-15324174D01*
X17479705Y-15324174D02*
X17479705Y-15371793D01*
X17479705Y-15371793D02*
X17470182Y-15409888D01*
X17470182Y-15409888D02*
X17460658Y-15428936D01*
X17460658Y-15428936D02*
X17451134Y-15438460D01*
X17451134Y-15438460D02*
X17432086Y-15447984D01*
X17432086Y-15447984D02*
X17413039Y-15447984D01*
X17413039Y-15447984D02*
X17393991Y-15438460D01*
X17393991Y-15438460D02*
X17384467Y-15428936D01*
X17384467Y-15428936D02*
X17374944Y-15409888D01*
X17374944Y-15409888D02*
X17365420Y-15371793D01*
X17365420Y-15371793D02*
X17365420Y-15324174D01*
X17365420Y-15324174D02*
X17374944Y-15286079D01*
X17374944Y-15286079D02*
X17384467Y-15267031D01*
X17384467Y-15267031D02*
X17393991Y-15257508D01*
X17393991Y-15257508D02*
X17413039Y-15247984D01*
X17565420Y-15447984D02*
X17565420Y-15314650D01*
X17565420Y-15333698D02*
X17574944Y-15324174D01*
X17574944Y-15324174D02*
X17593991Y-15314650D01*
X17593991Y-15314650D02*
X17622563Y-15314650D01*
X17622563Y-15314650D02*
X17641610Y-15324174D01*
X17641610Y-15324174D02*
X17651134Y-15343222D01*
X17651134Y-15343222D02*
X17651134Y-15447984D01*
X17651134Y-15343222D02*
X17660658Y-15324174D01*
X17660658Y-15324174D02*
X17679705Y-15314650D01*
X17679705Y-15314650D02*
X17708277Y-15314650D01*
X17708277Y-15314650D02*
X17727325Y-15324174D01*
X17727325Y-15324174D02*
X17736848Y-15343222D01*
X17736848Y-15343222D02*
X17736848Y-15447984D01*
X17832086Y-15447984D02*
X17832086Y-15314650D01*
X17832086Y-15333698D02*
X17841610Y-15324174D01*
X17841610Y-15324174D02*
X17860658Y-15314650D01*
X17860658Y-15314650D02*
X17889229Y-15314650D01*
X17889229Y-15314650D02*
X17908277Y-15324174D01*
X17908277Y-15324174D02*
X17917801Y-15343222D01*
X17917801Y-15343222D02*
X17917801Y-15447984D01*
X17917801Y-15343222D02*
X17927325Y-15324174D01*
X17927325Y-15324174D02*
X17946372Y-15314650D01*
X17946372Y-15314650D02*
X17974944Y-15314650D01*
X17974944Y-15314650D02*
X17993991Y-15324174D01*
X17993991Y-15324174D02*
X18003515Y-15343222D01*
X18003515Y-15343222D02*
X18003515Y-15447984D01*
X18393991Y-15238460D02*
X18222563Y-15495603D01*
X18651134Y-15247984D02*
X18670182Y-15247984D01*
X18670182Y-15247984D02*
X18689229Y-15257508D01*
X18689229Y-15257508D02*
X18698753Y-15267031D01*
X18698753Y-15267031D02*
X18708277Y-15286079D01*
X18708277Y-15286079D02*
X18717801Y-15324174D01*
X18717801Y-15324174D02*
X18717801Y-15371793D01*
X18717801Y-15371793D02*
X18708277Y-15409888D01*
X18708277Y-15409888D02*
X18698753Y-15428936D01*
X18698753Y-15428936D02*
X18689229Y-15438460D01*
X18689229Y-15438460D02*
X18670182Y-15447984D01*
X18670182Y-15447984D02*
X18651134Y-15447984D01*
X18651134Y-15447984D02*
X18632087Y-15438460D01*
X18632087Y-15438460D02*
X18622563Y-15428936D01*
X18622563Y-15428936D02*
X18613039Y-15409888D01*
X18613039Y-15409888D02*
X18603515Y-15371793D01*
X18603515Y-15371793D02*
X18603515Y-15324174D01*
X18603515Y-15324174D02*
X18613039Y-15286079D01*
X18613039Y-15286079D02*
X18622563Y-15267031D01*
X18622563Y-15267031D02*
X18632087Y-15257508D01*
X18632087Y-15257508D02*
X18651134Y-15247984D01*
X18803515Y-15428936D02*
X18813039Y-15438460D01*
X18813039Y-15438460D02*
X18803515Y-15447984D01*
X18803515Y-15447984D02*
X18793991Y-15438460D01*
X18793991Y-15438460D02*
X18803515Y-15428936D01*
X18803515Y-15428936D02*
X18803515Y-15447984D01*
X18936848Y-15247984D02*
X18955896Y-15247984D01*
X18955896Y-15247984D02*
X18974944Y-15257508D01*
X18974944Y-15257508D02*
X18984468Y-15267031D01*
X18984468Y-15267031D02*
X18993991Y-15286079D01*
X18993991Y-15286079D02*
X19003515Y-15324174D01*
X19003515Y-15324174D02*
X19003515Y-15371793D01*
X19003515Y-15371793D02*
X18993991Y-15409888D01*
X18993991Y-15409888D02*
X18984468Y-15428936D01*
X18984468Y-15428936D02*
X18974944Y-15438460D01*
X18974944Y-15438460D02*
X18955896Y-15447984D01*
X18955896Y-15447984D02*
X18936848Y-15447984D01*
X18936848Y-15447984D02*
X18917801Y-15438460D01*
X18917801Y-15438460D02*
X18908277Y-15428936D01*
X18908277Y-15428936D02*
X18898753Y-15409888D01*
X18898753Y-15409888D02*
X18889229Y-15371793D01*
X18889229Y-15371793D02*
X18889229Y-15324174D01*
X18889229Y-15324174D02*
X18898753Y-15286079D01*
X18898753Y-15286079D02*
X18908277Y-15267031D01*
X18908277Y-15267031D02*
X18917801Y-15257508D01*
X18917801Y-15257508D02*
X18936848Y-15247984D01*
X19079706Y-15267031D02*
X19089229Y-15257508D01*
X19089229Y-15257508D02*
X19108277Y-15247984D01*
X19108277Y-15247984D02*
X19155896Y-15247984D01*
X19155896Y-15247984D02*
X19174944Y-15257508D01*
X19174944Y-15257508D02*
X19184468Y-15267031D01*
X19184468Y-15267031D02*
X19193991Y-15286079D01*
X19193991Y-15286079D02*
X19193991Y-15305127D01*
X19193991Y-15305127D02*
X19184468Y-15333698D01*
X19184468Y-15333698D02*
X19070182Y-15447984D01*
X19070182Y-15447984D02*
X19193991Y-15447984D01*
X19260658Y-15247984D02*
X19384468Y-15247984D01*
X19384468Y-15247984D02*
X19317801Y-15324174D01*
X19317801Y-15324174D02*
X19346372Y-15324174D01*
X19346372Y-15324174D02*
X19365420Y-15333698D01*
X19365420Y-15333698D02*
X19374944Y-15343222D01*
X19374944Y-15343222D02*
X19384468Y-15362269D01*
X19384468Y-15362269D02*
X19384468Y-15409888D01*
X19384468Y-15409888D02*
X19374944Y-15428936D01*
X19374944Y-15428936D02*
X19365420Y-15438460D01*
X19365420Y-15438460D02*
X19346372Y-15447984D01*
X19346372Y-15447984D02*
X19289229Y-15447984D01*
X19289229Y-15447984D02*
X19270182Y-15438460D01*
X19270182Y-15438460D02*
X19260658Y-15428936D01*
X19555896Y-15247984D02*
X19517801Y-15247984D01*
X19517801Y-15247984D02*
X19498753Y-15257508D01*
X19498753Y-15257508D02*
X19489229Y-15267031D01*
X19489229Y-15267031D02*
X19470182Y-15295603D01*
X19470182Y-15295603D02*
X19460658Y-15333698D01*
X19460658Y-15333698D02*
X19460658Y-15409888D01*
X19460658Y-15409888D02*
X19470182Y-15428936D01*
X19470182Y-15428936D02*
X19479706Y-15438460D01*
X19479706Y-15438460D02*
X19498753Y-15447984D01*
X19498753Y-15447984D02*
X19536849Y-15447984D01*
X19536849Y-15447984D02*
X19555896Y-15438460D01*
X19555896Y-15438460D02*
X19565420Y-15428936D01*
X19565420Y-15428936D02*
X19574944Y-15409888D01*
X19574944Y-15409888D02*
X19574944Y-15362269D01*
X19574944Y-15362269D02*
X19565420Y-15343222D01*
X19565420Y-15343222D02*
X19555896Y-15333698D01*
X19555896Y-15333698D02*
X19536849Y-15324174D01*
X19536849Y-15324174D02*
X19498753Y-15324174D01*
X19498753Y-15324174D02*
X19479706Y-15333698D01*
X19479706Y-15333698D02*
X19470182Y-15343222D01*
X19470182Y-15343222D02*
X19460658Y-15362269D01*
X19651134Y-15247984D02*
X19651134Y-15286079D01*
X19727325Y-15247984D02*
X19727325Y-15286079D01*
X20022563Y-15524174D02*
X20013039Y-15514650D01*
X20013039Y-15514650D02*
X19993991Y-15486079D01*
X19993991Y-15486079D02*
X19984468Y-15467031D01*
X19984468Y-15467031D02*
X19974944Y-15438460D01*
X19974944Y-15438460D02*
X19965420Y-15390841D01*
X19965420Y-15390841D02*
X19965420Y-15352746D01*
X19965420Y-15352746D02*
X19974944Y-15305127D01*
X19974944Y-15305127D02*
X19984468Y-15276555D01*
X19984468Y-15276555D02*
X19993991Y-15257508D01*
X19993991Y-15257508D02*
X20013039Y-15228936D01*
X20013039Y-15228936D02*
X20022563Y-15219412D01*
X20136849Y-15247984D02*
X20155896Y-15247984D01*
X20155896Y-15247984D02*
X20174944Y-15257508D01*
X20174944Y-15257508D02*
X20184468Y-15267031D01*
X20184468Y-15267031D02*
X20193991Y-15286079D01*
X20193991Y-15286079D02*
X20203515Y-15324174D01*
X20203515Y-15324174D02*
X20203515Y-15371793D01*
X20203515Y-15371793D02*
X20193991Y-15409888D01*
X20193991Y-15409888D02*
X20184468Y-15428936D01*
X20184468Y-15428936D02*
X20174944Y-15438460D01*
X20174944Y-15438460D02*
X20155896Y-15447984D01*
X20155896Y-15447984D02*
X20136849Y-15447984D01*
X20136849Y-15447984D02*
X20117801Y-15438460D01*
X20117801Y-15438460D02*
X20108277Y-15428936D01*
X20108277Y-15428936D02*
X20098753Y-15409888D01*
X20098753Y-15409888D02*
X20089230Y-15371793D01*
X20089230Y-15371793D02*
X20089230Y-15324174D01*
X20089230Y-15324174D02*
X20098753Y-15286079D01*
X20098753Y-15286079D02*
X20108277Y-15267031D01*
X20108277Y-15267031D02*
X20117801Y-15257508D01*
X20117801Y-15257508D02*
X20136849Y-15247984D01*
X20441611Y-15447984D02*
X20441611Y-15247984D01*
X20527325Y-15447984D02*
X20527325Y-15343222D01*
X20527325Y-15343222D02*
X20517801Y-15324174D01*
X20517801Y-15324174D02*
X20498753Y-15314650D01*
X20498753Y-15314650D02*
X20470182Y-15314650D01*
X20470182Y-15314650D02*
X20451134Y-15324174D01*
X20451134Y-15324174D02*
X20441611Y-15333698D01*
X20651134Y-15447984D02*
X20632087Y-15438460D01*
X20632087Y-15438460D02*
X20622563Y-15428936D01*
X20622563Y-15428936D02*
X20613039Y-15409888D01*
X20613039Y-15409888D02*
X20613039Y-15352746D01*
X20613039Y-15352746D02*
X20622563Y-15333698D01*
X20622563Y-15333698D02*
X20632087Y-15324174D01*
X20632087Y-15324174D02*
X20651134Y-15314650D01*
X20651134Y-15314650D02*
X20679706Y-15314650D01*
X20679706Y-15314650D02*
X20698753Y-15324174D01*
X20698753Y-15324174D02*
X20708277Y-15333698D01*
X20708277Y-15333698D02*
X20717801Y-15352746D01*
X20717801Y-15352746D02*
X20717801Y-15409888D01*
X20717801Y-15409888D02*
X20708277Y-15428936D01*
X20708277Y-15428936D02*
X20698753Y-15438460D01*
X20698753Y-15438460D02*
X20679706Y-15447984D01*
X20679706Y-15447984D02*
X20651134Y-15447984D01*
X20832087Y-15447984D02*
X20813039Y-15438460D01*
X20813039Y-15438460D02*
X20803515Y-15419412D01*
X20803515Y-15419412D02*
X20803515Y-15247984D01*
X20984468Y-15438460D02*
X20965420Y-15447984D01*
X20965420Y-15447984D02*
X20927325Y-15447984D01*
X20927325Y-15447984D02*
X20908277Y-15438460D01*
X20908277Y-15438460D02*
X20898753Y-15419412D01*
X20898753Y-15419412D02*
X20898753Y-15343222D01*
X20898753Y-15343222D02*
X20908277Y-15324174D01*
X20908277Y-15324174D02*
X20927325Y-15314650D01*
X20927325Y-15314650D02*
X20965420Y-15314650D01*
X20965420Y-15314650D02*
X20984468Y-15324174D01*
X20984468Y-15324174D02*
X20993992Y-15343222D01*
X20993992Y-15343222D02*
X20993992Y-15362269D01*
X20993992Y-15362269D02*
X20898753Y-15381317D01*
X21070182Y-15438460D02*
X21089230Y-15447984D01*
X21089230Y-15447984D02*
X21127325Y-15447984D01*
X21127325Y-15447984D02*
X21146373Y-15438460D01*
X21146373Y-15438460D02*
X21155896Y-15419412D01*
X21155896Y-15419412D02*
X21155896Y-15409888D01*
X21155896Y-15409888D02*
X21146373Y-15390841D01*
X21146373Y-15390841D02*
X21127325Y-15381317D01*
X21127325Y-15381317D02*
X21098753Y-15381317D01*
X21098753Y-15381317D02*
X21079706Y-15371793D01*
X21079706Y-15371793D02*
X21070182Y-15352746D01*
X21070182Y-15352746D02*
X21070182Y-15343222D01*
X21070182Y-15343222D02*
X21079706Y-15324174D01*
X21079706Y-15324174D02*
X21098753Y-15314650D01*
X21098753Y-15314650D02*
X21127325Y-15314650D01*
X21127325Y-15314650D02*
X21146373Y-15324174D01*
X21393992Y-15371793D02*
X21546373Y-15371793D01*
X21470182Y-15447984D02*
X21470182Y-15295603D01*
X21879706Y-15314650D02*
X21879706Y-15447984D01*
X21832087Y-15238460D02*
X21784468Y-15381317D01*
X21784468Y-15381317D02*
X21908277Y-15381317D01*
X22127325Y-15438460D02*
X22146373Y-15447984D01*
X22146373Y-15447984D02*
X22184468Y-15447984D01*
X22184468Y-15447984D02*
X22203516Y-15438460D01*
X22203516Y-15438460D02*
X22213039Y-15419412D01*
X22213039Y-15419412D02*
X22213039Y-15409888D01*
X22213039Y-15409888D02*
X22203516Y-15390841D01*
X22203516Y-15390841D02*
X22184468Y-15381317D01*
X22184468Y-15381317D02*
X22155896Y-15381317D01*
X22155896Y-15381317D02*
X22136849Y-15371793D01*
X22136849Y-15371793D02*
X22127325Y-15352746D01*
X22127325Y-15352746D02*
X22127325Y-15343222D01*
X22127325Y-15343222D02*
X22136849Y-15324174D01*
X22136849Y-15324174D02*
X22155896Y-15314650D01*
X22155896Y-15314650D02*
X22184468Y-15314650D01*
X22184468Y-15314650D02*
X22203516Y-15324174D01*
X22327325Y-15447984D02*
X22308277Y-15438460D01*
X22308277Y-15438460D02*
X22298754Y-15419412D01*
X22298754Y-15419412D02*
X22298754Y-15247984D01*
X22432087Y-15447984D02*
X22413039Y-15438460D01*
X22413039Y-15438460D02*
X22403515Y-15428936D01*
X22403515Y-15428936D02*
X22393992Y-15409888D01*
X22393992Y-15409888D02*
X22393992Y-15352746D01*
X22393992Y-15352746D02*
X22403515Y-15333698D01*
X22403515Y-15333698D02*
X22413039Y-15324174D01*
X22413039Y-15324174D02*
X22432087Y-15314650D01*
X22432087Y-15314650D02*
X22460658Y-15314650D01*
X22460658Y-15314650D02*
X22479706Y-15324174D01*
X22479706Y-15324174D02*
X22489230Y-15333698D01*
X22489230Y-15333698D02*
X22498754Y-15352746D01*
X22498754Y-15352746D02*
X22498754Y-15409888D01*
X22498754Y-15409888D02*
X22489230Y-15428936D01*
X22489230Y-15428936D02*
X22479706Y-15438460D01*
X22479706Y-15438460D02*
X22460658Y-15447984D01*
X22460658Y-15447984D02*
X22432087Y-15447984D01*
X22555896Y-15314650D02*
X22632087Y-15314650D01*
X22584468Y-15247984D02*
X22584468Y-15419412D01*
X22584468Y-15419412D02*
X22593992Y-15438460D01*
X22593992Y-15438460D02*
X22613039Y-15447984D01*
X22613039Y-15447984D02*
X22632087Y-15447984D01*
X22689230Y-15438460D02*
X22708277Y-15447984D01*
X22708277Y-15447984D02*
X22746373Y-15447984D01*
X22746373Y-15447984D02*
X22765420Y-15438460D01*
X22765420Y-15438460D02*
X22774944Y-15419412D01*
X22774944Y-15419412D02*
X22774944Y-15409888D01*
X22774944Y-15409888D02*
X22765420Y-15390841D01*
X22765420Y-15390841D02*
X22746373Y-15381317D01*
X22746373Y-15381317D02*
X22717801Y-15381317D01*
X22717801Y-15381317D02*
X22698754Y-15371793D01*
X22698754Y-15371793D02*
X22689230Y-15352746D01*
X22689230Y-15352746D02*
X22689230Y-15343222D01*
X22689230Y-15343222D02*
X22698754Y-15324174D01*
X22698754Y-15324174D02*
X22717801Y-15314650D01*
X22717801Y-15314650D02*
X22746373Y-15314650D01*
X22746373Y-15314650D02*
X22765420Y-15324174D01*
X22841611Y-15524174D02*
X22851135Y-15514650D01*
X22851135Y-15514650D02*
X22870182Y-15486079D01*
X22870182Y-15486079D02*
X22879706Y-15467031D01*
X22879706Y-15467031D02*
X22889230Y-15438460D01*
X22889230Y-15438460D02*
X22898754Y-15390841D01*
X22898754Y-15390841D02*
X22898754Y-15352746D01*
X22898754Y-15352746D02*
X22889230Y-15305127D01*
X22889230Y-15305127D02*
X22879706Y-15276555D01*
X22879706Y-15276555D02*
X22870182Y-15257508D01*
X22870182Y-15257508D02*
X22851135Y-15228936D01*
X22851135Y-15228936D02*
X22841611Y-15219412D01*
D12*
X16397500Y-15570500D02*
X16397500Y-15670500D01*
X16347500Y-15620500D02*
X16447500Y-15620500D01*
D11*
X16813039Y-15711984D02*
X16698753Y-15711984D01*
X16755896Y-15711984D02*
X16755896Y-15511984D01*
X16755896Y-15511984D02*
X16736848Y-15540555D01*
X16736848Y-15540555D02*
X16717801Y-15559603D01*
X16717801Y-15559603D02*
X16698753Y-15569127D01*
X16898753Y-15692936D02*
X16908277Y-15702460D01*
X16908277Y-15702460D02*
X16898753Y-15711984D01*
X16898753Y-15711984D02*
X16889229Y-15702460D01*
X16889229Y-15702460D02*
X16898753Y-15692936D01*
X16898753Y-15692936D02*
X16898753Y-15711984D01*
X17032086Y-15511984D02*
X17051134Y-15511984D01*
X17051134Y-15511984D02*
X17070182Y-15521508D01*
X17070182Y-15521508D02*
X17079705Y-15531031D01*
X17079705Y-15531031D02*
X17089229Y-15550079D01*
X17089229Y-15550079D02*
X17098753Y-15588174D01*
X17098753Y-15588174D02*
X17098753Y-15635793D01*
X17098753Y-15635793D02*
X17089229Y-15673888D01*
X17089229Y-15673888D02*
X17079705Y-15692936D01*
X17079705Y-15692936D02*
X17070182Y-15702460D01*
X17070182Y-15702460D02*
X17051134Y-15711984D01*
X17051134Y-15711984D02*
X17032086Y-15711984D01*
X17032086Y-15711984D02*
X17013039Y-15702460D01*
X17013039Y-15702460D02*
X17003515Y-15692936D01*
X17003515Y-15692936D02*
X16993991Y-15673888D01*
X16993991Y-15673888D02*
X16984467Y-15635793D01*
X16984467Y-15635793D02*
X16984467Y-15588174D01*
X16984467Y-15588174D02*
X16993991Y-15550079D01*
X16993991Y-15550079D02*
X17003515Y-15531031D01*
X17003515Y-15531031D02*
X17013039Y-15521508D01*
X17013039Y-15521508D02*
X17032086Y-15511984D01*
X17222563Y-15511984D02*
X17241610Y-15511984D01*
X17241610Y-15511984D02*
X17260658Y-15521508D01*
X17260658Y-15521508D02*
X17270182Y-15531031D01*
X17270182Y-15531031D02*
X17279705Y-15550079D01*
X17279705Y-15550079D02*
X17289229Y-15588174D01*
X17289229Y-15588174D02*
X17289229Y-15635793D01*
X17289229Y-15635793D02*
X17279705Y-15673888D01*
X17279705Y-15673888D02*
X17270182Y-15692936D01*
X17270182Y-15692936D02*
X17260658Y-15702460D01*
X17260658Y-15702460D02*
X17241610Y-15711984D01*
X17241610Y-15711984D02*
X17222563Y-15711984D01*
X17222563Y-15711984D02*
X17203515Y-15702460D01*
X17203515Y-15702460D02*
X17193991Y-15692936D01*
X17193991Y-15692936D02*
X17184467Y-15673888D01*
X17184467Y-15673888D02*
X17174944Y-15635793D01*
X17174944Y-15635793D02*
X17174944Y-15588174D01*
X17174944Y-15588174D02*
X17184467Y-15550079D01*
X17184467Y-15550079D02*
X17193991Y-15531031D01*
X17193991Y-15531031D02*
X17203515Y-15521508D01*
X17203515Y-15521508D02*
X17222563Y-15511984D01*
X17413039Y-15511984D02*
X17432086Y-15511984D01*
X17432086Y-15511984D02*
X17451134Y-15521508D01*
X17451134Y-15521508D02*
X17460658Y-15531031D01*
X17460658Y-15531031D02*
X17470182Y-15550079D01*
X17470182Y-15550079D02*
X17479705Y-15588174D01*
X17479705Y-15588174D02*
X17479705Y-15635793D01*
X17479705Y-15635793D02*
X17470182Y-15673888D01*
X17470182Y-15673888D02*
X17460658Y-15692936D01*
X17460658Y-15692936D02*
X17451134Y-15702460D01*
X17451134Y-15702460D02*
X17432086Y-15711984D01*
X17432086Y-15711984D02*
X17413039Y-15711984D01*
X17413039Y-15711984D02*
X17393991Y-15702460D01*
X17393991Y-15702460D02*
X17384467Y-15692936D01*
X17384467Y-15692936D02*
X17374944Y-15673888D01*
X17374944Y-15673888D02*
X17365420Y-15635793D01*
X17365420Y-15635793D02*
X17365420Y-15588174D01*
X17365420Y-15588174D02*
X17374944Y-15550079D01*
X17374944Y-15550079D02*
X17384467Y-15531031D01*
X17384467Y-15531031D02*
X17393991Y-15521508D01*
X17393991Y-15521508D02*
X17413039Y-15511984D01*
X17565420Y-15711984D02*
X17565420Y-15578650D01*
X17565420Y-15597698D02*
X17574944Y-15588174D01*
X17574944Y-15588174D02*
X17593991Y-15578650D01*
X17593991Y-15578650D02*
X17622563Y-15578650D01*
X17622563Y-15578650D02*
X17641610Y-15588174D01*
X17641610Y-15588174D02*
X17651134Y-15607222D01*
X17651134Y-15607222D02*
X17651134Y-15711984D01*
X17651134Y-15607222D02*
X17660658Y-15588174D01*
X17660658Y-15588174D02*
X17679705Y-15578650D01*
X17679705Y-15578650D02*
X17708277Y-15578650D01*
X17708277Y-15578650D02*
X17727325Y-15588174D01*
X17727325Y-15588174D02*
X17736848Y-15607222D01*
X17736848Y-15607222D02*
X17736848Y-15711984D01*
X17832086Y-15711984D02*
X17832086Y-15578650D01*
X17832086Y-15597698D02*
X17841610Y-15588174D01*
X17841610Y-15588174D02*
X17860658Y-15578650D01*
X17860658Y-15578650D02*
X17889229Y-15578650D01*
X17889229Y-15578650D02*
X17908277Y-15588174D01*
X17908277Y-15588174D02*
X17917801Y-15607222D01*
X17917801Y-15607222D02*
X17917801Y-15711984D01*
X17917801Y-15607222D02*
X17927325Y-15588174D01*
X17927325Y-15588174D02*
X17946372Y-15578650D01*
X17946372Y-15578650D02*
X17974944Y-15578650D01*
X17974944Y-15578650D02*
X17993991Y-15588174D01*
X17993991Y-15588174D02*
X18003515Y-15607222D01*
X18003515Y-15607222D02*
X18003515Y-15711984D01*
X18393991Y-15502460D02*
X18222563Y-15759603D01*
X18651134Y-15511984D02*
X18670182Y-15511984D01*
X18670182Y-15511984D02*
X18689229Y-15521508D01*
X18689229Y-15521508D02*
X18698753Y-15531031D01*
X18698753Y-15531031D02*
X18708277Y-15550079D01*
X18708277Y-15550079D02*
X18717801Y-15588174D01*
X18717801Y-15588174D02*
X18717801Y-15635793D01*
X18717801Y-15635793D02*
X18708277Y-15673888D01*
X18708277Y-15673888D02*
X18698753Y-15692936D01*
X18698753Y-15692936D02*
X18689229Y-15702460D01*
X18689229Y-15702460D02*
X18670182Y-15711984D01*
X18670182Y-15711984D02*
X18651134Y-15711984D01*
X18651134Y-15711984D02*
X18632087Y-15702460D01*
X18632087Y-15702460D02*
X18622563Y-15692936D01*
X18622563Y-15692936D02*
X18613039Y-15673888D01*
X18613039Y-15673888D02*
X18603515Y-15635793D01*
X18603515Y-15635793D02*
X18603515Y-15588174D01*
X18603515Y-15588174D02*
X18613039Y-15550079D01*
X18613039Y-15550079D02*
X18622563Y-15531031D01*
X18622563Y-15531031D02*
X18632087Y-15521508D01*
X18632087Y-15521508D02*
X18651134Y-15511984D01*
X18803515Y-15692936D02*
X18813039Y-15702460D01*
X18813039Y-15702460D02*
X18803515Y-15711984D01*
X18803515Y-15711984D02*
X18793991Y-15702460D01*
X18793991Y-15702460D02*
X18803515Y-15692936D01*
X18803515Y-15692936D02*
X18803515Y-15711984D01*
X18936848Y-15511984D02*
X18955896Y-15511984D01*
X18955896Y-15511984D02*
X18974944Y-15521508D01*
X18974944Y-15521508D02*
X18984468Y-15531031D01*
X18984468Y-15531031D02*
X18993991Y-15550079D01*
X18993991Y-15550079D02*
X19003515Y-15588174D01*
X19003515Y-15588174D02*
X19003515Y-15635793D01*
X19003515Y-15635793D02*
X18993991Y-15673888D01*
X18993991Y-15673888D02*
X18984468Y-15692936D01*
X18984468Y-15692936D02*
X18974944Y-15702460D01*
X18974944Y-15702460D02*
X18955896Y-15711984D01*
X18955896Y-15711984D02*
X18936848Y-15711984D01*
X18936848Y-15711984D02*
X18917801Y-15702460D01*
X18917801Y-15702460D02*
X18908277Y-15692936D01*
X18908277Y-15692936D02*
X18898753Y-15673888D01*
X18898753Y-15673888D02*
X18889229Y-15635793D01*
X18889229Y-15635793D02*
X18889229Y-15588174D01*
X18889229Y-15588174D02*
X18898753Y-15550079D01*
X18898753Y-15550079D02*
X18908277Y-15531031D01*
X18908277Y-15531031D02*
X18917801Y-15521508D01*
X18917801Y-15521508D02*
X18936848Y-15511984D01*
X19070182Y-15511984D02*
X19193991Y-15511984D01*
X19193991Y-15511984D02*
X19127325Y-15588174D01*
X19127325Y-15588174D02*
X19155896Y-15588174D01*
X19155896Y-15588174D02*
X19174944Y-15597698D01*
X19174944Y-15597698D02*
X19184468Y-15607222D01*
X19184468Y-15607222D02*
X19193991Y-15626269D01*
X19193991Y-15626269D02*
X19193991Y-15673888D01*
X19193991Y-15673888D02*
X19184468Y-15692936D01*
X19184468Y-15692936D02*
X19174944Y-15702460D01*
X19174944Y-15702460D02*
X19155896Y-15711984D01*
X19155896Y-15711984D02*
X19098753Y-15711984D01*
X19098753Y-15711984D02*
X19079706Y-15702460D01*
X19079706Y-15702460D02*
X19070182Y-15692936D01*
X19289229Y-15711984D02*
X19327325Y-15711984D01*
X19327325Y-15711984D02*
X19346372Y-15702460D01*
X19346372Y-15702460D02*
X19355896Y-15692936D01*
X19355896Y-15692936D02*
X19374944Y-15664365D01*
X19374944Y-15664365D02*
X19384468Y-15626269D01*
X19384468Y-15626269D02*
X19384468Y-15550079D01*
X19384468Y-15550079D02*
X19374944Y-15531031D01*
X19374944Y-15531031D02*
X19365420Y-15521508D01*
X19365420Y-15521508D02*
X19346372Y-15511984D01*
X19346372Y-15511984D02*
X19308277Y-15511984D01*
X19308277Y-15511984D02*
X19289229Y-15521508D01*
X19289229Y-15521508D02*
X19279706Y-15531031D01*
X19279706Y-15531031D02*
X19270182Y-15550079D01*
X19270182Y-15550079D02*
X19270182Y-15597698D01*
X19270182Y-15597698D02*
X19279706Y-15616746D01*
X19279706Y-15616746D02*
X19289229Y-15626269D01*
X19289229Y-15626269D02*
X19308277Y-15635793D01*
X19308277Y-15635793D02*
X19346372Y-15635793D01*
X19346372Y-15635793D02*
X19365420Y-15626269D01*
X19365420Y-15626269D02*
X19374944Y-15616746D01*
X19374944Y-15616746D02*
X19384468Y-15597698D01*
X19555896Y-15578650D02*
X19555896Y-15711984D01*
X19508277Y-15502460D02*
X19460658Y-15645317D01*
X19460658Y-15645317D02*
X19584468Y-15645317D01*
X19651134Y-15511984D02*
X19651134Y-15550079D01*
X19727325Y-15511984D02*
X19727325Y-15550079D01*
X20022563Y-15788174D02*
X20013039Y-15778650D01*
X20013039Y-15778650D02*
X19993991Y-15750079D01*
X19993991Y-15750079D02*
X19984468Y-15731031D01*
X19984468Y-15731031D02*
X19974944Y-15702460D01*
X19974944Y-15702460D02*
X19965420Y-15654841D01*
X19965420Y-15654841D02*
X19965420Y-15616746D01*
X19965420Y-15616746D02*
X19974944Y-15569127D01*
X19974944Y-15569127D02*
X19984468Y-15540555D01*
X19984468Y-15540555D02*
X19993991Y-15521508D01*
X19993991Y-15521508D02*
X20013039Y-15492936D01*
X20013039Y-15492936D02*
X20022563Y-15483412D01*
X20089230Y-15531031D02*
X20098753Y-15521508D01*
X20098753Y-15521508D02*
X20117801Y-15511984D01*
X20117801Y-15511984D02*
X20165420Y-15511984D01*
X20165420Y-15511984D02*
X20184468Y-15521508D01*
X20184468Y-15521508D02*
X20193991Y-15531031D01*
X20193991Y-15531031D02*
X20203515Y-15550079D01*
X20203515Y-15550079D02*
X20203515Y-15569127D01*
X20203515Y-15569127D02*
X20193991Y-15597698D01*
X20193991Y-15597698D02*
X20079706Y-15711984D01*
X20079706Y-15711984D02*
X20203515Y-15711984D01*
X20270182Y-15511984D02*
X20403515Y-15511984D01*
X20403515Y-15511984D02*
X20317801Y-15711984D01*
X20632087Y-15711984D02*
X20632087Y-15511984D01*
X20717801Y-15711984D02*
X20717801Y-15607222D01*
X20717801Y-15607222D02*
X20708277Y-15588174D01*
X20708277Y-15588174D02*
X20689230Y-15578650D01*
X20689230Y-15578650D02*
X20660658Y-15578650D01*
X20660658Y-15578650D02*
X20641611Y-15588174D01*
X20641611Y-15588174D02*
X20632087Y-15597698D01*
X20841611Y-15711984D02*
X20822563Y-15702460D01*
X20822563Y-15702460D02*
X20813039Y-15692936D01*
X20813039Y-15692936D02*
X20803515Y-15673888D01*
X20803515Y-15673888D02*
X20803515Y-15616746D01*
X20803515Y-15616746D02*
X20813039Y-15597698D01*
X20813039Y-15597698D02*
X20822563Y-15588174D01*
X20822563Y-15588174D02*
X20841611Y-15578650D01*
X20841611Y-15578650D02*
X20870182Y-15578650D01*
X20870182Y-15578650D02*
X20889230Y-15588174D01*
X20889230Y-15588174D02*
X20898753Y-15597698D01*
X20898753Y-15597698D02*
X20908277Y-15616746D01*
X20908277Y-15616746D02*
X20908277Y-15673888D01*
X20908277Y-15673888D02*
X20898753Y-15692936D01*
X20898753Y-15692936D02*
X20889230Y-15702460D01*
X20889230Y-15702460D02*
X20870182Y-15711984D01*
X20870182Y-15711984D02*
X20841611Y-15711984D01*
X21022563Y-15711984D02*
X21003515Y-15702460D01*
X21003515Y-15702460D02*
X20993992Y-15683412D01*
X20993992Y-15683412D02*
X20993992Y-15511984D01*
X21174944Y-15702460D02*
X21155896Y-15711984D01*
X21155896Y-15711984D02*
X21117801Y-15711984D01*
X21117801Y-15711984D02*
X21098753Y-15702460D01*
X21098753Y-15702460D02*
X21089230Y-15683412D01*
X21089230Y-15683412D02*
X21089230Y-15607222D01*
X21089230Y-15607222D02*
X21098753Y-15588174D01*
X21098753Y-15588174D02*
X21117801Y-15578650D01*
X21117801Y-15578650D02*
X21155896Y-15578650D01*
X21155896Y-15578650D02*
X21174944Y-15588174D01*
X21174944Y-15588174D02*
X21184468Y-15607222D01*
X21184468Y-15607222D02*
X21184468Y-15626269D01*
X21184468Y-15626269D02*
X21089230Y-15645317D01*
X21260658Y-15702460D02*
X21279706Y-15711984D01*
X21279706Y-15711984D02*
X21317801Y-15711984D01*
X21317801Y-15711984D02*
X21336849Y-15702460D01*
X21336849Y-15702460D02*
X21346373Y-15683412D01*
X21346373Y-15683412D02*
X21346373Y-15673888D01*
X21346373Y-15673888D02*
X21336849Y-15654841D01*
X21336849Y-15654841D02*
X21317801Y-15645317D01*
X21317801Y-15645317D02*
X21289230Y-15645317D01*
X21289230Y-15645317D02*
X21270182Y-15635793D01*
X21270182Y-15635793D02*
X21260658Y-15616746D01*
X21260658Y-15616746D02*
X21260658Y-15607222D01*
X21260658Y-15607222D02*
X21270182Y-15588174D01*
X21270182Y-15588174D02*
X21289230Y-15578650D01*
X21289230Y-15578650D02*
X21317801Y-15578650D01*
X21317801Y-15578650D02*
X21336849Y-15588174D01*
X21413039Y-15788174D02*
X21422563Y-15778650D01*
X21422563Y-15778650D02*
X21441611Y-15750079D01*
X21441611Y-15750079D02*
X21451134Y-15731031D01*
X21451134Y-15731031D02*
X21460658Y-15702460D01*
X21460658Y-15702460D02*
X21470182Y-15654841D01*
X21470182Y-15654841D02*
X21470182Y-15616746D01*
X21470182Y-15616746D02*
X21460658Y-15569127D01*
X21460658Y-15569127D02*
X21451134Y-15540555D01*
X21451134Y-15540555D02*
X21441611Y-15521508D01*
X21441611Y-15521508D02*
X21422563Y-15492936D01*
X21422563Y-15492936D02*
X21413039Y-15483412D01*
D13*
X16431391Y-15923391D02*
X16431391Y-15845609D01*
X16353609Y-15845609D01*
X16353609Y-15923391D01*
X16431391Y-15923391D01*
D11*
X16813039Y-15975984D02*
X16698753Y-15975984D01*
X16755896Y-15975984D02*
X16755896Y-15775984D01*
X16755896Y-15775984D02*
X16736848Y-15804555D01*
X16736848Y-15804555D02*
X16717801Y-15823603D01*
X16717801Y-15823603D02*
X16698753Y-15833127D01*
X16898753Y-15956936D02*
X16908277Y-15966460D01*
X16908277Y-15966460D02*
X16898753Y-15975984D01*
X16898753Y-15975984D02*
X16889229Y-15966460D01*
X16889229Y-15966460D02*
X16898753Y-15956936D01*
X16898753Y-15956936D02*
X16898753Y-15975984D01*
X17098753Y-15975984D02*
X16984467Y-15975984D01*
X17041610Y-15975984D02*
X17041610Y-15775984D01*
X17041610Y-15775984D02*
X17022563Y-15804555D01*
X17022563Y-15804555D02*
X17003515Y-15823603D01*
X17003515Y-15823603D02*
X16984467Y-15833127D01*
X17222563Y-15775984D02*
X17241610Y-15775984D01*
X17241610Y-15775984D02*
X17260658Y-15785508D01*
X17260658Y-15785508D02*
X17270182Y-15795031D01*
X17270182Y-15795031D02*
X17279705Y-15814079D01*
X17279705Y-15814079D02*
X17289229Y-15852174D01*
X17289229Y-15852174D02*
X17289229Y-15899793D01*
X17289229Y-15899793D02*
X17279705Y-15937888D01*
X17279705Y-15937888D02*
X17270182Y-15956936D01*
X17270182Y-15956936D02*
X17260658Y-15966460D01*
X17260658Y-15966460D02*
X17241610Y-15975984D01*
X17241610Y-15975984D02*
X17222563Y-15975984D01*
X17222563Y-15975984D02*
X17203515Y-15966460D01*
X17203515Y-15966460D02*
X17193991Y-15956936D01*
X17193991Y-15956936D02*
X17184467Y-15937888D01*
X17184467Y-15937888D02*
X17174944Y-15899793D01*
X17174944Y-15899793D02*
X17174944Y-15852174D01*
X17174944Y-15852174D02*
X17184467Y-15814079D01*
X17184467Y-15814079D02*
X17193991Y-15795031D01*
X17193991Y-15795031D02*
X17203515Y-15785508D01*
X17203515Y-15785508D02*
X17222563Y-15775984D01*
X17413039Y-15775984D02*
X17432086Y-15775984D01*
X17432086Y-15775984D02*
X17451134Y-15785508D01*
X17451134Y-15785508D02*
X17460658Y-15795031D01*
X17460658Y-15795031D02*
X17470182Y-15814079D01*
X17470182Y-15814079D02*
X17479705Y-15852174D01*
X17479705Y-15852174D02*
X17479705Y-15899793D01*
X17479705Y-15899793D02*
X17470182Y-15937888D01*
X17470182Y-15937888D02*
X17460658Y-15956936D01*
X17460658Y-15956936D02*
X17451134Y-15966460D01*
X17451134Y-15966460D02*
X17432086Y-15975984D01*
X17432086Y-15975984D02*
X17413039Y-15975984D01*
X17413039Y-15975984D02*
X17393991Y-15966460D01*
X17393991Y-15966460D02*
X17384467Y-15956936D01*
X17384467Y-15956936D02*
X17374944Y-15937888D01*
X17374944Y-15937888D02*
X17365420Y-15899793D01*
X17365420Y-15899793D02*
X17365420Y-15852174D01*
X17365420Y-15852174D02*
X17374944Y-15814079D01*
X17374944Y-15814079D02*
X17384467Y-15795031D01*
X17384467Y-15795031D02*
X17393991Y-15785508D01*
X17393991Y-15785508D02*
X17413039Y-15775984D01*
X17565420Y-15975984D02*
X17565420Y-15842650D01*
X17565420Y-15861698D02*
X17574944Y-15852174D01*
X17574944Y-15852174D02*
X17593991Y-15842650D01*
X17593991Y-15842650D02*
X17622563Y-15842650D01*
X17622563Y-15842650D02*
X17641610Y-15852174D01*
X17641610Y-15852174D02*
X17651134Y-15871222D01*
X17651134Y-15871222D02*
X17651134Y-15975984D01*
X17651134Y-15871222D02*
X17660658Y-15852174D01*
X17660658Y-15852174D02*
X17679705Y-15842650D01*
X17679705Y-15842650D02*
X17708277Y-15842650D01*
X17708277Y-15842650D02*
X17727325Y-15852174D01*
X17727325Y-15852174D02*
X17736848Y-15871222D01*
X17736848Y-15871222D02*
X17736848Y-15975984D01*
X17832086Y-15975984D02*
X17832086Y-15842650D01*
X17832086Y-15861698D02*
X17841610Y-15852174D01*
X17841610Y-15852174D02*
X17860658Y-15842650D01*
X17860658Y-15842650D02*
X17889229Y-15842650D01*
X17889229Y-15842650D02*
X17908277Y-15852174D01*
X17908277Y-15852174D02*
X17917801Y-15871222D01*
X17917801Y-15871222D02*
X17917801Y-15975984D01*
X17917801Y-15871222D02*
X17927325Y-15852174D01*
X17927325Y-15852174D02*
X17946372Y-15842650D01*
X17946372Y-15842650D02*
X17974944Y-15842650D01*
X17974944Y-15842650D02*
X17993991Y-15852174D01*
X17993991Y-15852174D02*
X18003515Y-15871222D01*
X18003515Y-15871222D02*
X18003515Y-15975984D01*
X18393991Y-15766460D02*
X18222563Y-16023603D01*
X18651134Y-15775984D02*
X18670182Y-15775984D01*
X18670182Y-15775984D02*
X18689229Y-15785508D01*
X18689229Y-15785508D02*
X18698753Y-15795031D01*
X18698753Y-15795031D02*
X18708277Y-15814079D01*
X18708277Y-15814079D02*
X18717801Y-15852174D01*
X18717801Y-15852174D02*
X18717801Y-15899793D01*
X18717801Y-15899793D02*
X18708277Y-15937888D01*
X18708277Y-15937888D02*
X18698753Y-15956936D01*
X18698753Y-15956936D02*
X18689229Y-15966460D01*
X18689229Y-15966460D02*
X18670182Y-15975984D01*
X18670182Y-15975984D02*
X18651134Y-15975984D01*
X18651134Y-15975984D02*
X18632087Y-15966460D01*
X18632087Y-15966460D02*
X18622563Y-15956936D01*
X18622563Y-15956936D02*
X18613039Y-15937888D01*
X18613039Y-15937888D02*
X18603515Y-15899793D01*
X18603515Y-15899793D02*
X18603515Y-15852174D01*
X18603515Y-15852174D02*
X18613039Y-15814079D01*
X18613039Y-15814079D02*
X18622563Y-15795031D01*
X18622563Y-15795031D02*
X18632087Y-15785508D01*
X18632087Y-15785508D02*
X18651134Y-15775984D01*
X18803515Y-15956936D02*
X18813039Y-15966460D01*
X18813039Y-15966460D02*
X18803515Y-15975984D01*
X18803515Y-15975984D02*
X18793991Y-15966460D01*
X18793991Y-15966460D02*
X18803515Y-15956936D01*
X18803515Y-15956936D02*
X18803515Y-15975984D01*
X18936848Y-15775984D02*
X18955896Y-15775984D01*
X18955896Y-15775984D02*
X18974944Y-15785508D01*
X18974944Y-15785508D02*
X18984468Y-15795031D01*
X18984468Y-15795031D02*
X18993991Y-15814079D01*
X18993991Y-15814079D02*
X19003515Y-15852174D01*
X19003515Y-15852174D02*
X19003515Y-15899793D01*
X19003515Y-15899793D02*
X18993991Y-15937888D01*
X18993991Y-15937888D02*
X18984468Y-15956936D01*
X18984468Y-15956936D02*
X18974944Y-15966460D01*
X18974944Y-15966460D02*
X18955896Y-15975984D01*
X18955896Y-15975984D02*
X18936848Y-15975984D01*
X18936848Y-15975984D02*
X18917801Y-15966460D01*
X18917801Y-15966460D02*
X18908277Y-15956936D01*
X18908277Y-15956936D02*
X18898753Y-15937888D01*
X18898753Y-15937888D02*
X18889229Y-15899793D01*
X18889229Y-15899793D02*
X18889229Y-15852174D01*
X18889229Y-15852174D02*
X18898753Y-15814079D01*
X18898753Y-15814079D02*
X18908277Y-15795031D01*
X18908277Y-15795031D02*
X18917801Y-15785508D01*
X18917801Y-15785508D02*
X18936848Y-15775984D01*
X19174944Y-15842650D02*
X19174944Y-15975984D01*
X19127325Y-15766460D02*
X19079706Y-15909317D01*
X19079706Y-15909317D02*
X19203515Y-15909317D01*
X19260658Y-15775984D02*
X19384468Y-15775984D01*
X19384468Y-15775984D02*
X19317801Y-15852174D01*
X19317801Y-15852174D02*
X19346372Y-15852174D01*
X19346372Y-15852174D02*
X19365420Y-15861698D01*
X19365420Y-15861698D02*
X19374944Y-15871222D01*
X19374944Y-15871222D02*
X19384468Y-15890269D01*
X19384468Y-15890269D02*
X19384468Y-15937888D01*
X19384468Y-15937888D02*
X19374944Y-15956936D01*
X19374944Y-15956936D02*
X19365420Y-15966460D01*
X19365420Y-15966460D02*
X19346372Y-15975984D01*
X19346372Y-15975984D02*
X19289229Y-15975984D01*
X19289229Y-15975984D02*
X19270182Y-15966460D01*
X19270182Y-15966460D02*
X19260658Y-15956936D01*
X19451134Y-15775984D02*
X19574944Y-15775984D01*
X19574944Y-15775984D02*
X19508277Y-15852174D01*
X19508277Y-15852174D02*
X19536849Y-15852174D01*
X19536849Y-15852174D02*
X19555896Y-15861698D01*
X19555896Y-15861698D02*
X19565420Y-15871222D01*
X19565420Y-15871222D02*
X19574944Y-15890269D01*
X19574944Y-15890269D02*
X19574944Y-15937888D01*
X19574944Y-15937888D02*
X19565420Y-15956936D01*
X19565420Y-15956936D02*
X19555896Y-15966460D01*
X19555896Y-15966460D02*
X19536849Y-15975984D01*
X19536849Y-15975984D02*
X19479706Y-15975984D01*
X19479706Y-15975984D02*
X19460658Y-15966460D01*
X19460658Y-15966460D02*
X19451134Y-15956936D01*
X19651134Y-15775984D02*
X19651134Y-15814079D01*
X19727325Y-15775984D02*
X19727325Y-15814079D01*
X20022563Y-16052174D02*
X20013039Y-16042650D01*
X20013039Y-16042650D02*
X19993991Y-16014079D01*
X19993991Y-16014079D02*
X19984468Y-15995031D01*
X19984468Y-15995031D02*
X19974944Y-15966460D01*
X19974944Y-15966460D02*
X19965420Y-15918841D01*
X19965420Y-15918841D02*
X19965420Y-15880746D01*
X19965420Y-15880746D02*
X19974944Y-15833127D01*
X19974944Y-15833127D02*
X19984468Y-15804555D01*
X19984468Y-15804555D02*
X19993991Y-15785508D01*
X19993991Y-15785508D02*
X20013039Y-15756936D01*
X20013039Y-15756936D02*
X20022563Y-15747412D01*
X20184468Y-15842650D02*
X20184468Y-15975984D01*
X20136849Y-15766460D02*
X20089230Y-15909317D01*
X20089230Y-15909317D02*
X20213039Y-15909317D01*
X20441611Y-15975984D02*
X20441611Y-15775984D01*
X20527325Y-15975984D02*
X20527325Y-15871222D01*
X20527325Y-15871222D02*
X20517801Y-15852174D01*
X20517801Y-15852174D02*
X20498753Y-15842650D01*
X20498753Y-15842650D02*
X20470182Y-15842650D01*
X20470182Y-15842650D02*
X20451134Y-15852174D01*
X20451134Y-15852174D02*
X20441611Y-15861698D01*
X20651134Y-15975984D02*
X20632087Y-15966460D01*
X20632087Y-15966460D02*
X20622563Y-15956936D01*
X20622563Y-15956936D02*
X20613039Y-15937888D01*
X20613039Y-15937888D02*
X20613039Y-15880746D01*
X20613039Y-15880746D02*
X20622563Y-15861698D01*
X20622563Y-15861698D02*
X20632087Y-15852174D01*
X20632087Y-15852174D02*
X20651134Y-15842650D01*
X20651134Y-15842650D02*
X20679706Y-15842650D01*
X20679706Y-15842650D02*
X20698753Y-15852174D01*
X20698753Y-15852174D02*
X20708277Y-15861698D01*
X20708277Y-15861698D02*
X20717801Y-15880746D01*
X20717801Y-15880746D02*
X20717801Y-15937888D01*
X20717801Y-15937888D02*
X20708277Y-15956936D01*
X20708277Y-15956936D02*
X20698753Y-15966460D01*
X20698753Y-15966460D02*
X20679706Y-15975984D01*
X20679706Y-15975984D02*
X20651134Y-15975984D01*
X20832087Y-15975984D02*
X20813039Y-15966460D01*
X20813039Y-15966460D02*
X20803515Y-15947412D01*
X20803515Y-15947412D02*
X20803515Y-15775984D01*
X20984468Y-15966460D02*
X20965420Y-15975984D01*
X20965420Y-15975984D02*
X20927325Y-15975984D01*
X20927325Y-15975984D02*
X20908277Y-15966460D01*
X20908277Y-15966460D02*
X20898753Y-15947412D01*
X20898753Y-15947412D02*
X20898753Y-15871222D01*
X20898753Y-15871222D02*
X20908277Y-15852174D01*
X20908277Y-15852174D02*
X20927325Y-15842650D01*
X20927325Y-15842650D02*
X20965420Y-15842650D01*
X20965420Y-15842650D02*
X20984468Y-15852174D01*
X20984468Y-15852174D02*
X20993992Y-15871222D01*
X20993992Y-15871222D02*
X20993992Y-15890269D01*
X20993992Y-15890269D02*
X20898753Y-15909317D01*
X21070182Y-15966460D02*
X21089230Y-15975984D01*
X21089230Y-15975984D02*
X21127325Y-15975984D01*
X21127325Y-15975984D02*
X21146373Y-15966460D01*
X21146373Y-15966460D02*
X21155896Y-15947412D01*
X21155896Y-15947412D02*
X21155896Y-15937888D01*
X21155896Y-15937888D02*
X21146373Y-15918841D01*
X21146373Y-15918841D02*
X21127325Y-15909317D01*
X21127325Y-15909317D02*
X21098753Y-15909317D01*
X21098753Y-15909317D02*
X21079706Y-15899793D01*
X21079706Y-15899793D02*
X21070182Y-15880746D01*
X21070182Y-15880746D02*
X21070182Y-15871222D01*
X21070182Y-15871222D02*
X21079706Y-15852174D01*
X21079706Y-15852174D02*
X21098753Y-15842650D01*
X21098753Y-15842650D02*
X21127325Y-15842650D01*
X21127325Y-15842650D02*
X21146373Y-15852174D01*
X21222563Y-16052174D02*
X21232087Y-16042650D01*
X21232087Y-16042650D02*
X21251134Y-16014079D01*
X21251134Y-16014079D02*
X21260658Y-15995031D01*
X21260658Y-15995031D02*
X21270182Y-15966460D01*
X21270182Y-15966460D02*
X21279706Y-15918841D01*
X21279706Y-15918841D02*
X21279706Y-15880746D01*
X21279706Y-15880746D02*
X21270182Y-15833127D01*
X21270182Y-15833127D02*
X21260658Y-15804555D01*
X21260658Y-15804555D02*
X21251134Y-15785508D01*
X21251134Y-15785508D02*
X21232087Y-15756936D01*
X21232087Y-15756936D02*
X21222563Y-15747412D01*
D14*
X16382500Y-16213500D02*
X16447500Y-16148500D01*
X16382500Y-16083500D01*
X16317500Y-16148500D01*
X16382500Y-16213500D01*
D11*
X16813039Y-16239984D02*
X16698753Y-16239984D01*
X16755896Y-16239984D02*
X16755896Y-16039984D01*
X16755896Y-16039984D02*
X16736848Y-16068555D01*
X16736848Y-16068555D02*
X16717801Y-16087603D01*
X16717801Y-16087603D02*
X16698753Y-16097127D01*
X16898753Y-16220936D02*
X16908277Y-16230460D01*
X16908277Y-16230460D02*
X16898753Y-16239984D01*
X16898753Y-16239984D02*
X16889229Y-16230460D01*
X16889229Y-16230460D02*
X16898753Y-16220936D01*
X16898753Y-16220936D02*
X16898753Y-16239984D01*
X16974944Y-16039984D02*
X17098753Y-16039984D01*
X17098753Y-16039984D02*
X17032086Y-16116174D01*
X17032086Y-16116174D02*
X17060658Y-16116174D01*
X17060658Y-16116174D02*
X17079705Y-16125698D01*
X17079705Y-16125698D02*
X17089229Y-16135222D01*
X17089229Y-16135222D02*
X17098753Y-16154269D01*
X17098753Y-16154269D02*
X17098753Y-16201888D01*
X17098753Y-16201888D02*
X17089229Y-16220936D01*
X17089229Y-16220936D02*
X17079705Y-16230460D01*
X17079705Y-16230460D02*
X17060658Y-16239984D01*
X17060658Y-16239984D02*
X17003515Y-16239984D01*
X17003515Y-16239984D02*
X16984467Y-16230460D01*
X16984467Y-16230460D02*
X16974944Y-16220936D01*
X17222563Y-16039984D02*
X17241610Y-16039984D01*
X17241610Y-16039984D02*
X17260658Y-16049508D01*
X17260658Y-16049508D02*
X17270182Y-16059031D01*
X17270182Y-16059031D02*
X17279705Y-16078079D01*
X17279705Y-16078079D02*
X17289229Y-16116174D01*
X17289229Y-16116174D02*
X17289229Y-16163793D01*
X17289229Y-16163793D02*
X17279705Y-16201888D01*
X17279705Y-16201888D02*
X17270182Y-16220936D01*
X17270182Y-16220936D02*
X17260658Y-16230460D01*
X17260658Y-16230460D02*
X17241610Y-16239984D01*
X17241610Y-16239984D02*
X17222563Y-16239984D01*
X17222563Y-16239984D02*
X17203515Y-16230460D01*
X17203515Y-16230460D02*
X17193991Y-16220936D01*
X17193991Y-16220936D02*
X17184467Y-16201888D01*
X17184467Y-16201888D02*
X17174944Y-16163793D01*
X17174944Y-16163793D02*
X17174944Y-16116174D01*
X17174944Y-16116174D02*
X17184467Y-16078079D01*
X17184467Y-16078079D02*
X17193991Y-16059031D01*
X17193991Y-16059031D02*
X17203515Y-16049508D01*
X17203515Y-16049508D02*
X17222563Y-16039984D01*
X17413039Y-16039984D02*
X17432086Y-16039984D01*
X17432086Y-16039984D02*
X17451134Y-16049508D01*
X17451134Y-16049508D02*
X17460658Y-16059031D01*
X17460658Y-16059031D02*
X17470182Y-16078079D01*
X17470182Y-16078079D02*
X17479705Y-16116174D01*
X17479705Y-16116174D02*
X17479705Y-16163793D01*
X17479705Y-16163793D02*
X17470182Y-16201888D01*
X17470182Y-16201888D02*
X17460658Y-16220936D01*
X17460658Y-16220936D02*
X17451134Y-16230460D01*
X17451134Y-16230460D02*
X17432086Y-16239984D01*
X17432086Y-16239984D02*
X17413039Y-16239984D01*
X17413039Y-16239984D02*
X17393991Y-16230460D01*
X17393991Y-16230460D02*
X17384467Y-16220936D01*
X17384467Y-16220936D02*
X17374944Y-16201888D01*
X17374944Y-16201888D02*
X17365420Y-16163793D01*
X17365420Y-16163793D02*
X17365420Y-16116174D01*
X17365420Y-16116174D02*
X17374944Y-16078079D01*
X17374944Y-16078079D02*
X17384467Y-16059031D01*
X17384467Y-16059031D02*
X17393991Y-16049508D01*
X17393991Y-16049508D02*
X17413039Y-16039984D01*
X17565420Y-16239984D02*
X17565420Y-16106650D01*
X17565420Y-16125698D02*
X17574944Y-16116174D01*
X17574944Y-16116174D02*
X17593991Y-16106650D01*
X17593991Y-16106650D02*
X17622563Y-16106650D01*
X17622563Y-16106650D02*
X17641610Y-16116174D01*
X17641610Y-16116174D02*
X17651134Y-16135222D01*
X17651134Y-16135222D02*
X17651134Y-16239984D01*
X17651134Y-16135222D02*
X17660658Y-16116174D01*
X17660658Y-16116174D02*
X17679705Y-16106650D01*
X17679705Y-16106650D02*
X17708277Y-16106650D01*
X17708277Y-16106650D02*
X17727325Y-16116174D01*
X17727325Y-16116174D02*
X17736848Y-16135222D01*
X17736848Y-16135222D02*
X17736848Y-16239984D01*
X17832086Y-16239984D02*
X17832086Y-16106650D01*
X17832086Y-16125698D02*
X17841610Y-16116174D01*
X17841610Y-16116174D02*
X17860658Y-16106650D01*
X17860658Y-16106650D02*
X17889229Y-16106650D01*
X17889229Y-16106650D02*
X17908277Y-16116174D01*
X17908277Y-16116174D02*
X17917801Y-16135222D01*
X17917801Y-16135222D02*
X17917801Y-16239984D01*
X17917801Y-16135222D02*
X17927325Y-16116174D01*
X17927325Y-16116174D02*
X17946372Y-16106650D01*
X17946372Y-16106650D02*
X17974944Y-16106650D01*
X17974944Y-16106650D02*
X17993991Y-16116174D01*
X17993991Y-16116174D02*
X18003515Y-16135222D01*
X18003515Y-16135222D02*
X18003515Y-16239984D01*
X18393991Y-16030460D02*
X18222563Y-16287603D01*
X18651134Y-16039984D02*
X18670182Y-16039984D01*
X18670182Y-16039984D02*
X18689229Y-16049508D01*
X18689229Y-16049508D02*
X18698753Y-16059031D01*
X18698753Y-16059031D02*
X18708277Y-16078079D01*
X18708277Y-16078079D02*
X18717801Y-16116174D01*
X18717801Y-16116174D02*
X18717801Y-16163793D01*
X18717801Y-16163793D02*
X18708277Y-16201888D01*
X18708277Y-16201888D02*
X18698753Y-16220936D01*
X18698753Y-16220936D02*
X18689229Y-16230460D01*
X18689229Y-16230460D02*
X18670182Y-16239984D01*
X18670182Y-16239984D02*
X18651134Y-16239984D01*
X18651134Y-16239984D02*
X18632087Y-16230460D01*
X18632087Y-16230460D02*
X18622563Y-16220936D01*
X18622563Y-16220936D02*
X18613039Y-16201888D01*
X18613039Y-16201888D02*
X18603515Y-16163793D01*
X18603515Y-16163793D02*
X18603515Y-16116174D01*
X18603515Y-16116174D02*
X18613039Y-16078079D01*
X18613039Y-16078079D02*
X18622563Y-16059031D01*
X18622563Y-16059031D02*
X18632087Y-16049508D01*
X18632087Y-16049508D02*
X18651134Y-16039984D01*
X18803515Y-16220936D02*
X18813039Y-16230460D01*
X18813039Y-16230460D02*
X18803515Y-16239984D01*
X18803515Y-16239984D02*
X18793991Y-16230460D01*
X18793991Y-16230460D02*
X18803515Y-16220936D01*
X18803515Y-16220936D02*
X18803515Y-16239984D01*
X18936848Y-16039984D02*
X18955896Y-16039984D01*
X18955896Y-16039984D02*
X18974944Y-16049508D01*
X18974944Y-16049508D02*
X18984468Y-16059031D01*
X18984468Y-16059031D02*
X18993991Y-16078079D01*
X18993991Y-16078079D02*
X19003515Y-16116174D01*
X19003515Y-16116174D02*
X19003515Y-16163793D01*
X19003515Y-16163793D02*
X18993991Y-16201888D01*
X18993991Y-16201888D02*
X18984468Y-16220936D01*
X18984468Y-16220936D02*
X18974944Y-16230460D01*
X18974944Y-16230460D02*
X18955896Y-16239984D01*
X18955896Y-16239984D02*
X18936848Y-16239984D01*
X18936848Y-16239984D02*
X18917801Y-16230460D01*
X18917801Y-16230460D02*
X18908277Y-16220936D01*
X18908277Y-16220936D02*
X18898753Y-16201888D01*
X18898753Y-16201888D02*
X18889229Y-16163793D01*
X18889229Y-16163793D02*
X18889229Y-16116174D01*
X18889229Y-16116174D02*
X18898753Y-16078079D01*
X18898753Y-16078079D02*
X18908277Y-16059031D01*
X18908277Y-16059031D02*
X18917801Y-16049508D01*
X18917801Y-16049508D02*
X18936848Y-16039984D01*
X19184468Y-16039984D02*
X19089229Y-16039984D01*
X19089229Y-16039984D02*
X19079706Y-16135222D01*
X19079706Y-16135222D02*
X19089229Y-16125698D01*
X19089229Y-16125698D02*
X19108277Y-16116174D01*
X19108277Y-16116174D02*
X19155896Y-16116174D01*
X19155896Y-16116174D02*
X19174944Y-16125698D01*
X19174944Y-16125698D02*
X19184468Y-16135222D01*
X19184468Y-16135222D02*
X19193991Y-16154269D01*
X19193991Y-16154269D02*
X19193991Y-16201888D01*
X19193991Y-16201888D02*
X19184468Y-16220936D01*
X19184468Y-16220936D02*
X19174944Y-16230460D01*
X19174944Y-16230460D02*
X19155896Y-16239984D01*
X19155896Y-16239984D02*
X19108277Y-16239984D01*
X19108277Y-16239984D02*
X19089229Y-16230460D01*
X19089229Y-16230460D02*
X19079706Y-16220936D01*
X19384468Y-16239984D02*
X19270182Y-16239984D01*
X19327325Y-16239984D02*
X19327325Y-16039984D01*
X19327325Y-16039984D02*
X19308277Y-16068555D01*
X19308277Y-16068555D02*
X19289229Y-16087603D01*
X19289229Y-16087603D02*
X19270182Y-16097127D01*
X19460658Y-16059031D02*
X19470182Y-16049508D01*
X19470182Y-16049508D02*
X19489229Y-16039984D01*
X19489229Y-16039984D02*
X19536849Y-16039984D01*
X19536849Y-16039984D02*
X19555896Y-16049508D01*
X19555896Y-16049508D02*
X19565420Y-16059031D01*
X19565420Y-16059031D02*
X19574944Y-16078079D01*
X19574944Y-16078079D02*
X19574944Y-16097127D01*
X19574944Y-16097127D02*
X19565420Y-16125698D01*
X19565420Y-16125698D02*
X19451134Y-16239984D01*
X19451134Y-16239984D02*
X19574944Y-16239984D01*
X19651134Y-16039984D02*
X19651134Y-16078079D01*
X19727325Y-16039984D02*
X19727325Y-16078079D01*
X20022563Y-16316174D02*
X20013039Y-16306650D01*
X20013039Y-16306650D02*
X19993991Y-16278079D01*
X19993991Y-16278079D02*
X19984468Y-16259031D01*
X19984468Y-16259031D02*
X19974944Y-16230460D01*
X19974944Y-16230460D02*
X19965420Y-16182841D01*
X19965420Y-16182841D02*
X19965420Y-16144746D01*
X19965420Y-16144746D02*
X19974944Y-16097127D01*
X19974944Y-16097127D02*
X19984468Y-16068555D01*
X19984468Y-16068555D02*
X19993991Y-16049508D01*
X19993991Y-16049508D02*
X20013039Y-16020936D01*
X20013039Y-16020936D02*
X20022563Y-16011412D01*
X20203515Y-16239984D02*
X20089230Y-16239984D01*
X20146372Y-16239984D02*
X20146372Y-16039984D01*
X20146372Y-16039984D02*
X20127325Y-16068555D01*
X20127325Y-16068555D02*
X20108277Y-16087603D01*
X20108277Y-16087603D02*
X20089230Y-16097127D01*
X20317801Y-16125698D02*
X20298753Y-16116174D01*
X20298753Y-16116174D02*
X20289230Y-16106650D01*
X20289230Y-16106650D02*
X20279706Y-16087603D01*
X20279706Y-16087603D02*
X20279706Y-16078079D01*
X20279706Y-16078079D02*
X20289230Y-16059031D01*
X20289230Y-16059031D02*
X20298753Y-16049508D01*
X20298753Y-16049508D02*
X20317801Y-16039984D01*
X20317801Y-16039984D02*
X20355896Y-16039984D01*
X20355896Y-16039984D02*
X20374944Y-16049508D01*
X20374944Y-16049508D02*
X20384468Y-16059031D01*
X20384468Y-16059031D02*
X20393991Y-16078079D01*
X20393991Y-16078079D02*
X20393991Y-16087603D01*
X20393991Y-16087603D02*
X20384468Y-16106650D01*
X20384468Y-16106650D02*
X20374944Y-16116174D01*
X20374944Y-16116174D02*
X20355896Y-16125698D01*
X20355896Y-16125698D02*
X20317801Y-16125698D01*
X20317801Y-16125698D02*
X20298753Y-16135222D01*
X20298753Y-16135222D02*
X20289230Y-16144746D01*
X20289230Y-16144746D02*
X20279706Y-16163793D01*
X20279706Y-16163793D02*
X20279706Y-16201888D01*
X20279706Y-16201888D02*
X20289230Y-16220936D01*
X20289230Y-16220936D02*
X20298753Y-16230460D01*
X20298753Y-16230460D02*
X20317801Y-16239984D01*
X20317801Y-16239984D02*
X20355896Y-16239984D01*
X20355896Y-16239984D02*
X20374944Y-16230460D01*
X20374944Y-16230460D02*
X20384468Y-16220936D01*
X20384468Y-16220936D02*
X20393991Y-16201888D01*
X20393991Y-16201888D02*
X20393991Y-16163793D01*
X20393991Y-16163793D02*
X20384468Y-16144746D01*
X20384468Y-16144746D02*
X20374944Y-16135222D01*
X20374944Y-16135222D02*
X20355896Y-16125698D01*
X20632087Y-16239984D02*
X20632087Y-16039984D01*
X20717801Y-16239984D02*
X20717801Y-16135222D01*
X20717801Y-16135222D02*
X20708277Y-16116174D01*
X20708277Y-16116174D02*
X20689230Y-16106650D01*
X20689230Y-16106650D02*
X20660658Y-16106650D01*
X20660658Y-16106650D02*
X20641611Y-16116174D01*
X20641611Y-16116174D02*
X20632087Y-16125698D01*
X20841611Y-16239984D02*
X20822563Y-16230460D01*
X20822563Y-16230460D02*
X20813039Y-16220936D01*
X20813039Y-16220936D02*
X20803515Y-16201888D01*
X20803515Y-16201888D02*
X20803515Y-16144746D01*
X20803515Y-16144746D02*
X20813039Y-16125698D01*
X20813039Y-16125698D02*
X20822563Y-16116174D01*
X20822563Y-16116174D02*
X20841611Y-16106650D01*
X20841611Y-16106650D02*
X20870182Y-16106650D01*
X20870182Y-16106650D02*
X20889230Y-16116174D01*
X20889230Y-16116174D02*
X20898753Y-16125698D01*
X20898753Y-16125698D02*
X20908277Y-16144746D01*
X20908277Y-16144746D02*
X20908277Y-16201888D01*
X20908277Y-16201888D02*
X20898753Y-16220936D01*
X20898753Y-16220936D02*
X20889230Y-16230460D01*
X20889230Y-16230460D02*
X20870182Y-16239984D01*
X20870182Y-16239984D02*
X20841611Y-16239984D01*
X21022563Y-16239984D02*
X21003515Y-16230460D01*
X21003515Y-16230460D02*
X20993992Y-16211412D01*
X20993992Y-16211412D02*
X20993992Y-16039984D01*
X21174944Y-16230460D02*
X21155896Y-16239984D01*
X21155896Y-16239984D02*
X21117801Y-16239984D01*
X21117801Y-16239984D02*
X21098753Y-16230460D01*
X21098753Y-16230460D02*
X21089230Y-16211412D01*
X21089230Y-16211412D02*
X21089230Y-16135222D01*
X21089230Y-16135222D02*
X21098753Y-16116174D01*
X21098753Y-16116174D02*
X21117801Y-16106650D01*
X21117801Y-16106650D02*
X21155896Y-16106650D01*
X21155896Y-16106650D02*
X21174944Y-16116174D01*
X21174944Y-16116174D02*
X21184468Y-16135222D01*
X21184468Y-16135222D02*
X21184468Y-16154269D01*
X21184468Y-16154269D02*
X21089230Y-16173317D01*
X21260658Y-16230460D02*
X21279706Y-16239984D01*
X21279706Y-16239984D02*
X21317801Y-16239984D01*
X21317801Y-16239984D02*
X21336849Y-16230460D01*
X21336849Y-16230460D02*
X21346373Y-16211412D01*
X21346373Y-16211412D02*
X21346373Y-16201888D01*
X21346373Y-16201888D02*
X21336849Y-16182841D01*
X21336849Y-16182841D02*
X21317801Y-16173317D01*
X21317801Y-16173317D02*
X21289230Y-16173317D01*
X21289230Y-16173317D02*
X21270182Y-16163793D01*
X21270182Y-16163793D02*
X21260658Y-16144746D01*
X21260658Y-16144746D02*
X21260658Y-16135222D01*
X21260658Y-16135222D02*
X21270182Y-16116174D01*
X21270182Y-16116174D02*
X21289230Y-16106650D01*
X21289230Y-16106650D02*
X21317801Y-16106650D01*
X21317801Y-16106650D02*
X21336849Y-16116174D01*
X21413039Y-16316174D02*
X21422563Y-16306650D01*
X21422563Y-16306650D02*
X21441611Y-16278079D01*
X21441611Y-16278079D02*
X21451134Y-16259031D01*
X21451134Y-16259031D02*
X21460658Y-16230460D01*
X21460658Y-16230460D02*
X21470182Y-16182841D01*
X21470182Y-16182841D02*
X21470182Y-16144746D01*
X21470182Y-16144746D02*
X21460658Y-16097127D01*
X21460658Y-16097127D02*
X21451134Y-16068555D01*
X21451134Y-16068555D02*
X21441611Y-16049508D01*
X21441611Y-16049508D02*
X21422563Y-16020936D01*
X21422563Y-16020936D02*
X21413039Y-16011412D01*
X16247500Y-16312500D02*
X16447500Y-16512500D01*
X16447500Y-16312500D02*
X16247500Y-16512500D01*
X16447500Y-16412500D02*
G75*
G02*
X16247500Y-16412500I-100000J0D01*
G01*
X16247500Y-16412500D02*
G75*
G02*
X16447500Y-16412500I100000J0D01*
G01*
X16689229Y-16303984D02*
X16813039Y-16303984D01*
X16813039Y-16303984D02*
X16746372Y-16380174D01*
X16746372Y-16380174D02*
X16774943Y-16380174D01*
X16774943Y-16380174D02*
X16793991Y-16389698D01*
X16793991Y-16389698D02*
X16803515Y-16399222D01*
X16803515Y-16399222D02*
X16813039Y-16418269D01*
X16813039Y-16418269D02*
X16813039Y-16465888D01*
X16813039Y-16465888D02*
X16803515Y-16484936D01*
X16803515Y-16484936D02*
X16793991Y-16494460D01*
X16793991Y-16494460D02*
X16774943Y-16503984D01*
X16774943Y-16503984D02*
X16717801Y-16503984D01*
X16717801Y-16503984D02*
X16698753Y-16494460D01*
X16698753Y-16494460D02*
X16689229Y-16484936D01*
X16898753Y-16484936D02*
X16908277Y-16494460D01*
X16908277Y-16494460D02*
X16898753Y-16503984D01*
X16898753Y-16503984D02*
X16889229Y-16494460D01*
X16889229Y-16494460D02*
X16898753Y-16484936D01*
X16898753Y-16484936D02*
X16898753Y-16503984D01*
X16984467Y-16323031D02*
X16993991Y-16313508D01*
X16993991Y-16313508D02*
X17013039Y-16303984D01*
X17013039Y-16303984D02*
X17060658Y-16303984D01*
X17060658Y-16303984D02*
X17079705Y-16313508D01*
X17079705Y-16313508D02*
X17089229Y-16323031D01*
X17089229Y-16323031D02*
X17098753Y-16342079D01*
X17098753Y-16342079D02*
X17098753Y-16361127D01*
X17098753Y-16361127D02*
X17089229Y-16389698D01*
X17089229Y-16389698D02*
X16974944Y-16503984D01*
X16974944Y-16503984D02*
X17098753Y-16503984D01*
X17222563Y-16303984D02*
X17241610Y-16303984D01*
X17241610Y-16303984D02*
X17260658Y-16313508D01*
X17260658Y-16313508D02*
X17270182Y-16323031D01*
X17270182Y-16323031D02*
X17279705Y-16342079D01*
X17279705Y-16342079D02*
X17289229Y-16380174D01*
X17289229Y-16380174D02*
X17289229Y-16427793D01*
X17289229Y-16427793D02*
X17279705Y-16465888D01*
X17279705Y-16465888D02*
X17270182Y-16484936D01*
X17270182Y-16484936D02*
X17260658Y-16494460D01*
X17260658Y-16494460D02*
X17241610Y-16503984D01*
X17241610Y-16503984D02*
X17222563Y-16503984D01*
X17222563Y-16503984D02*
X17203515Y-16494460D01*
X17203515Y-16494460D02*
X17193991Y-16484936D01*
X17193991Y-16484936D02*
X17184467Y-16465888D01*
X17184467Y-16465888D02*
X17174944Y-16427793D01*
X17174944Y-16427793D02*
X17174944Y-16380174D01*
X17174944Y-16380174D02*
X17184467Y-16342079D01*
X17184467Y-16342079D02*
X17193991Y-16323031D01*
X17193991Y-16323031D02*
X17203515Y-16313508D01*
X17203515Y-16313508D02*
X17222563Y-16303984D01*
X17413039Y-16303984D02*
X17432086Y-16303984D01*
X17432086Y-16303984D02*
X17451134Y-16313508D01*
X17451134Y-16313508D02*
X17460658Y-16323031D01*
X17460658Y-16323031D02*
X17470182Y-16342079D01*
X17470182Y-16342079D02*
X17479705Y-16380174D01*
X17479705Y-16380174D02*
X17479705Y-16427793D01*
X17479705Y-16427793D02*
X17470182Y-16465888D01*
X17470182Y-16465888D02*
X17460658Y-16484936D01*
X17460658Y-16484936D02*
X17451134Y-16494460D01*
X17451134Y-16494460D02*
X17432086Y-16503984D01*
X17432086Y-16503984D02*
X17413039Y-16503984D01*
X17413039Y-16503984D02*
X17393991Y-16494460D01*
X17393991Y-16494460D02*
X17384467Y-16484936D01*
X17384467Y-16484936D02*
X17374944Y-16465888D01*
X17374944Y-16465888D02*
X17365420Y-16427793D01*
X17365420Y-16427793D02*
X17365420Y-16380174D01*
X17365420Y-16380174D02*
X17374944Y-16342079D01*
X17374944Y-16342079D02*
X17384467Y-16323031D01*
X17384467Y-16323031D02*
X17393991Y-16313508D01*
X17393991Y-16313508D02*
X17413039Y-16303984D01*
X17565420Y-16503984D02*
X17565420Y-16370650D01*
X17565420Y-16389698D02*
X17574944Y-16380174D01*
X17574944Y-16380174D02*
X17593991Y-16370650D01*
X17593991Y-16370650D02*
X17622563Y-16370650D01*
X17622563Y-16370650D02*
X17641610Y-16380174D01*
X17641610Y-16380174D02*
X17651134Y-16399222D01*
X17651134Y-16399222D02*
X17651134Y-16503984D01*
X17651134Y-16399222D02*
X17660658Y-16380174D01*
X17660658Y-16380174D02*
X17679705Y-16370650D01*
X17679705Y-16370650D02*
X17708277Y-16370650D01*
X17708277Y-16370650D02*
X17727325Y-16380174D01*
X17727325Y-16380174D02*
X17736848Y-16399222D01*
X17736848Y-16399222D02*
X17736848Y-16503984D01*
X17832086Y-16503984D02*
X17832086Y-16370650D01*
X17832086Y-16389698D02*
X17841610Y-16380174D01*
X17841610Y-16380174D02*
X17860658Y-16370650D01*
X17860658Y-16370650D02*
X17889229Y-16370650D01*
X17889229Y-16370650D02*
X17908277Y-16380174D01*
X17908277Y-16380174D02*
X17917801Y-16399222D01*
X17917801Y-16399222D02*
X17917801Y-16503984D01*
X17917801Y-16399222D02*
X17927325Y-16380174D01*
X17927325Y-16380174D02*
X17946372Y-16370650D01*
X17946372Y-16370650D02*
X17974944Y-16370650D01*
X17974944Y-16370650D02*
X17993991Y-16380174D01*
X17993991Y-16380174D02*
X18003515Y-16399222D01*
X18003515Y-16399222D02*
X18003515Y-16503984D01*
X18393991Y-16294460D02*
X18222563Y-16551603D01*
X18651134Y-16303984D02*
X18670182Y-16303984D01*
X18670182Y-16303984D02*
X18689229Y-16313508D01*
X18689229Y-16313508D02*
X18698753Y-16323031D01*
X18698753Y-16323031D02*
X18708277Y-16342079D01*
X18708277Y-16342079D02*
X18717801Y-16380174D01*
X18717801Y-16380174D02*
X18717801Y-16427793D01*
X18717801Y-16427793D02*
X18708277Y-16465888D01*
X18708277Y-16465888D02*
X18698753Y-16484936D01*
X18698753Y-16484936D02*
X18689229Y-16494460D01*
X18689229Y-16494460D02*
X18670182Y-16503984D01*
X18670182Y-16503984D02*
X18651134Y-16503984D01*
X18651134Y-16503984D02*
X18632087Y-16494460D01*
X18632087Y-16494460D02*
X18622563Y-16484936D01*
X18622563Y-16484936D02*
X18613039Y-16465888D01*
X18613039Y-16465888D02*
X18603515Y-16427793D01*
X18603515Y-16427793D02*
X18603515Y-16380174D01*
X18603515Y-16380174D02*
X18613039Y-16342079D01*
X18613039Y-16342079D02*
X18622563Y-16323031D01*
X18622563Y-16323031D02*
X18632087Y-16313508D01*
X18632087Y-16313508D02*
X18651134Y-16303984D01*
X18803515Y-16484936D02*
X18813039Y-16494460D01*
X18813039Y-16494460D02*
X18803515Y-16503984D01*
X18803515Y-16503984D02*
X18793991Y-16494460D01*
X18793991Y-16494460D02*
X18803515Y-16484936D01*
X18803515Y-16484936D02*
X18803515Y-16503984D01*
X19003515Y-16503984D02*
X18889229Y-16503984D01*
X18946372Y-16503984D02*
X18946372Y-16303984D01*
X18946372Y-16303984D02*
X18927325Y-16332555D01*
X18927325Y-16332555D02*
X18908277Y-16351603D01*
X18908277Y-16351603D02*
X18889229Y-16361127D01*
X19079706Y-16323031D02*
X19089229Y-16313508D01*
X19089229Y-16313508D02*
X19108277Y-16303984D01*
X19108277Y-16303984D02*
X19155896Y-16303984D01*
X19155896Y-16303984D02*
X19174944Y-16313508D01*
X19174944Y-16313508D02*
X19184468Y-16323031D01*
X19184468Y-16323031D02*
X19193991Y-16342079D01*
X19193991Y-16342079D02*
X19193991Y-16361127D01*
X19193991Y-16361127D02*
X19184468Y-16389698D01*
X19184468Y-16389698D02*
X19070182Y-16503984D01*
X19070182Y-16503984D02*
X19193991Y-16503984D01*
X19365420Y-16303984D02*
X19327325Y-16303984D01*
X19327325Y-16303984D02*
X19308277Y-16313508D01*
X19308277Y-16313508D02*
X19298753Y-16323031D01*
X19298753Y-16323031D02*
X19279706Y-16351603D01*
X19279706Y-16351603D02*
X19270182Y-16389698D01*
X19270182Y-16389698D02*
X19270182Y-16465888D01*
X19270182Y-16465888D02*
X19279706Y-16484936D01*
X19279706Y-16484936D02*
X19289229Y-16494460D01*
X19289229Y-16494460D02*
X19308277Y-16503984D01*
X19308277Y-16503984D02*
X19346372Y-16503984D01*
X19346372Y-16503984D02*
X19365420Y-16494460D01*
X19365420Y-16494460D02*
X19374944Y-16484936D01*
X19374944Y-16484936D02*
X19384468Y-16465888D01*
X19384468Y-16465888D02*
X19384468Y-16418269D01*
X19384468Y-16418269D02*
X19374944Y-16399222D01*
X19374944Y-16399222D02*
X19365420Y-16389698D01*
X19365420Y-16389698D02*
X19346372Y-16380174D01*
X19346372Y-16380174D02*
X19308277Y-16380174D01*
X19308277Y-16380174D02*
X19289229Y-16389698D01*
X19289229Y-16389698D02*
X19279706Y-16399222D01*
X19279706Y-16399222D02*
X19270182Y-16418269D01*
X19508277Y-16303984D02*
X19527325Y-16303984D01*
X19527325Y-16303984D02*
X19546372Y-16313508D01*
X19546372Y-16313508D02*
X19555896Y-16323031D01*
X19555896Y-16323031D02*
X19565420Y-16342079D01*
X19565420Y-16342079D02*
X19574944Y-16380174D01*
X19574944Y-16380174D02*
X19574944Y-16427793D01*
X19574944Y-16427793D02*
X19565420Y-16465888D01*
X19565420Y-16465888D02*
X19555896Y-16484936D01*
X19555896Y-16484936D02*
X19546372Y-16494460D01*
X19546372Y-16494460D02*
X19527325Y-16503984D01*
X19527325Y-16503984D02*
X19508277Y-16503984D01*
X19508277Y-16503984D02*
X19489229Y-16494460D01*
X19489229Y-16494460D02*
X19479706Y-16484936D01*
X19479706Y-16484936D02*
X19470182Y-16465888D01*
X19470182Y-16465888D02*
X19460658Y-16427793D01*
X19460658Y-16427793D02*
X19460658Y-16380174D01*
X19460658Y-16380174D02*
X19470182Y-16342079D01*
X19470182Y-16342079D02*
X19479706Y-16323031D01*
X19479706Y-16323031D02*
X19489229Y-16313508D01*
X19489229Y-16313508D02*
X19508277Y-16303984D01*
X19651134Y-16303984D02*
X19651134Y-16342079D01*
X19727325Y-16303984D02*
X19727325Y-16342079D01*
X20022563Y-16580174D02*
X20013039Y-16570650D01*
X20013039Y-16570650D02*
X19993991Y-16542079D01*
X19993991Y-16542079D02*
X19984468Y-16523031D01*
X19984468Y-16523031D02*
X19974944Y-16494460D01*
X19974944Y-16494460D02*
X19965420Y-16446841D01*
X19965420Y-16446841D02*
X19965420Y-16408746D01*
X19965420Y-16408746D02*
X19974944Y-16361127D01*
X19974944Y-16361127D02*
X19984468Y-16332555D01*
X19984468Y-16332555D02*
X19993991Y-16313508D01*
X19993991Y-16313508D02*
X20013039Y-16284936D01*
X20013039Y-16284936D02*
X20022563Y-16275412D01*
X20184468Y-16370650D02*
X20184468Y-16503984D01*
X20136849Y-16294460D02*
X20089230Y-16437317D01*
X20089230Y-16437317D02*
X20213039Y-16437317D01*
X20441611Y-16503984D02*
X20441611Y-16303984D01*
X20527325Y-16503984D02*
X20527325Y-16399222D01*
X20527325Y-16399222D02*
X20517801Y-16380174D01*
X20517801Y-16380174D02*
X20498753Y-16370650D01*
X20498753Y-16370650D02*
X20470182Y-16370650D01*
X20470182Y-16370650D02*
X20451134Y-16380174D01*
X20451134Y-16380174D02*
X20441611Y-16389698D01*
X20651134Y-16503984D02*
X20632087Y-16494460D01*
X20632087Y-16494460D02*
X20622563Y-16484936D01*
X20622563Y-16484936D02*
X20613039Y-16465888D01*
X20613039Y-16465888D02*
X20613039Y-16408746D01*
X20613039Y-16408746D02*
X20622563Y-16389698D01*
X20622563Y-16389698D02*
X20632087Y-16380174D01*
X20632087Y-16380174D02*
X20651134Y-16370650D01*
X20651134Y-16370650D02*
X20679706Y-16370650D01*
X20679706Y-16370650D02*
X20698753Y-16380174D01*
X20698753Y-16380174D02*
X20708277Y-16389698D01*
X20708277Y-16389698D02*
X20717801Y-16408746D01*
X20717801Y-16408746D02*
X20717801Y-16465888D01*
X20717801Y-16465888D02*
X20708277Y-16484936D01*
X20708277Y-16484936D02*
X20698753Y-16494460D01*
X20698753Y-16494460D02*
X20679706Y-16503984D01*
X20679706Y-16503984D02*
X20651134Y-16503984D01*
X20832087Y-16503984D02*
X20813039Y-16494460D01*
X20813039Y-16494460D02*
X20803515Y-16475412D01*
X20803515Y-16475412D02*
X20803515Y-16303984D01*
X20984468Y-16494460D02*
X20965420Y-16503984D01*
X20965420Y-16503984D02*
X20927325Y-16503984D01*
X20927325Y-16503984D02*
X20908277Y-16494460D01*
X20908277Y-16494460D02*
X20898753Y-16475412D01*
X20898753Y-16475412D02*
X20898753Y-16399222D01*
X20898753Y-16399222D02*
X20908277Y-16380174D01*
X20908277Y-16380174D02*
X20927325Y-16370650D01*
X20927325Y-16370650D02*
X20965420Y-16370650D01*
X20965420Y-16370650D02*
X20984468Y-16380174D01*
X20984468Y-16380174D02*
X20993992Y-16399222D01*
X20993992Y-16399222D02*
X20993992Y-16418269D01*
X20993992Y-16418269D02*
X20898753Y-16437317D01*
X21070182Y-16494460D02*
X21089230Y-16503984D01*
X21089230Y-16503984D02*
X21127325Y-16503984D01*
X21127325Y-16503984D02*
X21146373Y-16494460D01*
X21146373Y-16494460D02*
X21155896Y-16475412D01*
X21155896Y-16475412D02*
X21155896Y-16465888D01*
X21155896Y-16465888D02*
X21146373Y-16446841D01*
X21146373Y-16446841D02*
X21127325Y-16437317D01*
X21127325Y-16437317D02*
X21098753Y-16437317D01*
X21098753Y-16437317D02*
X21079706Y-16427793D01*
X21079706Y-16427793D02*
X21070182Y-16408746D01*
X21070182Y-16408746D02*
X21070182Y-16399222D01*
X21070182Y-16399222D02*
X21079706Y-16380174D01*
X21079706Y-16380174D02*
X21098753Y-16370650D01*
X21098753Y-16370650D02*
X21127325Y-16370650D01*
X21127325Y-16370650D02*
X21146373Y-16380174D01*
X21222563Y-16580174D02*
X21232087Y-16570650D01*
X21232087Y-16570650D02*
X21251134Y-16542079D01*
X21251134Y-16542079D02*
X21260658Y-16523031D01*
X21260658Y-16523031D02*
X21270182Y-16494460D01*
X21270182Y-16494460D02*
X21279706Y-16446841D01*
X21279706Y-16446841D02*
X21279706Y-16408746D01*
X21279706Y-16408746D02*
X21270182Y-16361127D01*
X21270182Y-16361127D02*
X21260658Y-16332555D01*
X21260658Y-16332555D02*
X21251134Y-16313508D01*
X21251134Y-16313508D02*
X21232087Y-16284936D01*
X21232087Y-16284936D02*
X21222563Y-16275412D01*
M02*
